<?xml version="1.0" encoding="utf-8"?>
<!-- Generator: Adobe Illustrator 16.0.0, SVG Export Plug-In . SVG Version: 6.00 Build 0)  -->
<!DOCTYPE svg PUBLIC "-//W3C//DTD SVG 1.1//EN" "http://www.w3.org/Graphics/SVG/1.1/DTD/svg11.dtd">
<svg version="1.1" id="레이어_1" xmlns="http://www.w3.org/2000/svg" xmlns:xlink="http://www.w3.org/1999/xlink" x="0px"
	 y="0px" width="930.567px" height="358.277px" viewBox="0 0 930.567 358.277" enable-background="new 0 0 930.567 358.277"
	 xml:space="preserve">
<polygon fill="#1D3475" points="675.893,337.774 675.893,342.614 824.901,342.614 824.901,343.092 840.018,343.092 840.018,342.614 
	865.934,342.614 865.934,342.551 877.002,342.551 877.002,342.614 888.612,342.614 888.612,342.551 899.409,342.551 
	899.409,342.614 912.911,342.614 912.911,342.551 918.307,342.551 918.307,337.774 938.215,337.774 938.215,315.774 
	912.911,315.774 912.911,298.006 899.409,298.006 899.409,315.774 888.612,315.774 888.612,313.935 877.002,313.935 
	877.002,315.774 865.934,315.774 865.934,295.848 852.434,295.848 852.434,315.774 846.497,315.774 846.497,311.504 
	836.506,311.504 836.506,315.774 828.678,315.774 828.678,306.645 823.821,306.645 819.77,306.645 819.77,315.774 813.563,315.774 
	813.563,288.288 800.604,288.288 800.604,315.774 797.633,315.774 797.633,315.555 794.393,315.555 794.393,297.466 
	782.786,297.466 782.786,315.774 779.006,315.774 779.006,300.706 770.907,300.706 770.907,256.971 767.813,250.954 
	760.874,250.954 758.489,255.892 758.489,315.775 752.008,315.775 752.008,265.61 738.51,265.61 738.51,315.774 727.709,315.774 
	727.709,281.538 716.1,281.538 716.1,315.774 705.034,315.774 705.034,263.451 691.532,263.451 691.532,299.088 685.594,299.088 
	685.594,279.109 675.893,279.109 675.893,315.775 642.215,315.775 642.215,305.775 624.215,305.775 624.215,315.775 
	620.215,315.775 620.215,305.775 602.215,305.775 602.215,315.775 579.737,315.775 579.737,299.775 496.944,299.775 
	496.944,315.775 461.215,315.775 461.215,300.775 443.215,300.775 443.215,315.775 370.023,315.775 370.023,288.828 
	356.522,288.828 356.522,315.775 345.725,315.775 345.725,304.756 334.115,304.756 334.115,315.775 323.047,315.775 323.047,286.67 
	309.547,286.67 309.547,315.775 303.609,315.775 303.609,302.326 293.62,302.326 293.62,315.775 285.792,315.775 285.792,297.466 
	280.933,297.466 276.883,297.466 276.883,313.394 272.024,313.394 270.676,311.505 270.676,279.109 257.717,279.109 
	257.717,309.885 254.746,309.885 254.746,306.376 251.506,306.376 251.506,288.287 239.899,288.287 239.899,309.345 
	236.119,309.345 236.119,291.527 228.019,291.527 228.019,247.792 224.925,241.775 217.985,241.775 215.602,246.713 
	215.602,315.015 209.122,315.015 209.122,256.432 195.624,256.432 195.624,315.776 190.764,315.776 190.764,308.536 
	184.826,308.536 184.826,272.36 173.216,272.36 173.216,307.186 166.197,307.186 166.197,315.776 162.148,315.776 162.148,254.273 
	148.647,254.273 148.647,289.91 142.709,289.91 142.709,269.931 133.009,269.931 133.009,315.777 52.216,315.777 52.216,282.902 
	34.216,282.902 34.216,315.777 28.419,315.777 28.419,299.777 10.419,299.777 10.419,315.777 -9,315.777 -9,337.777 
	675.893,337.777 "/>
<g>
	<rect x="825.161" y="309.679" fill="#6B8BD1" width="1.535" height="1.975"/>
	<rect x="821.432" y="309.679" fill="#6B8BD1" width="1.537" height="1.975"/>
	<rect x="766.721" y="260.75" fill="#6B8BD1" width="1.893" height="5.399"/>
	<rect x="766.721" y="269.928" fill="#6B8BD1" width="1.893" height="5.399"/>
	<rect x="766.721" y="279.108" fill="#6B8BD1" width="1.893" height="5.398"/>
	<rect x="766.721" y="288.288" fill="#6B8BD1" width="1.893" height="5.399"/>
	<rect x="766.721" y="297.468" fill="#6B8BD1" width="1.893" height="5.398"/>
	<rect x="766.721" y="306.647" fill="#6B8BD1" width="1.893" height="5.397"/>
	<rect x="761.727" y="260.75" fill="#6B8BD1" width="1.891" height="5.399"/>
	<rect x="761.727" y="269.928" fill="#6B8BD1" width="1.891" height="5.399"/>
	<rect x="761.727" y="279.108" fill="#6B8BD1" width="1.891" height="5.398"/>
	<rect x="761.727" y="288.288" fill="#6B8BD1" width="1.891" height="5.399"/>
	<rect x="761.727" y="297.468" fill="#6B8BD1" width="1.891" height="5.398"/>
	<rect x="761.727" y="306.647" fill="#6B8BD1" width="1.891" height="5.397"/>
	<rect x="699.95" y="269.326" fill="#6B8BD1" width="1.891" height="2.43"/>
	<rect x="699.95" y="275.535" fill="#6B8BD1" width="1.891" height="2.429"/>
	<rect x="699.95" y="281.743" fill="#6B8BD1" width="1.891" height="2.43"/>
	<rect x="699.95" y="287.952" fill="#6B8BD1" width="1.891" height="2.43"/>
	<rect x="699.95" y="294.161" fill="#6B8BD1" width="1.891" height="2.43"/>
	<rect x="699.95" y="301.722" fill="#6B8BD1" width="1.891" height="2.431"/>
	<rect x="699.95" y="307.931" fill="#6B8BD1" width="1.891" height="2.431"/>
	<rect x="695.362" y="269.326" fill="#6B8BD1" width="1.891" height="2.43"/>
	<rect x="695.362" y="275.535" fill="#6B8BD1" width="1.891" height="2.429"/>
	<rect x="695.362" y="281.743" fill="#6B8BD1" width="1.891" height="2.43"/>
	<rect x="695.362" y="287.952" fill="#6B8BD1" width="1.891" height="2.43"/>
	<rect x="695.362" y="294.161" fill="#6B8BD1" width="1.891" height="2.43"/>
	<rect x="695.362" y="301.722" fill="#6B8BD1" width="1.891" height="2.431"/>
	<rect x="695.362" y="307.931" fill="#6B8BD1" width="1.891" height="2.431"/>
	<rect x="681.987" y="283" fill="#6B8BD1" width="1.535" height="1.974"/>
	<rect x="681.987" y="288.044" fill="#6B8BD1" width="1.535" height="1.976"/>
	<rect x="681.987" y="293.088" fill="#6B8BD1" width="1.535" height="1.977"/>
	<rect x="681.987" y="298.134" fill="#6B8BD1" width="1.535" height="1.975"/>
	<rect x="681.987" y="303.178" fill="#6B8BD1" width="1.535" height="1.974"/>
	<rect x="681.987" y="309.188" fill="#6B8BD1" width="1.535" height="1.974"/>
	<rect x="678.258" y="283" fill="#6B8BD1" width="1.537" height="1.974"/>
	<rect x="678.258" y="288.044" fill="#6B8BD1" width="1.537" height="1.976"/>
	<rect x="678.258" y="293.088" fill="#6B8BD1" width="1.537" height="1.977"/>
	<rect x="678.258" y="298.134" fill="#6B8BD1" width="1.537" height="1.975"/>
	<rect x="678.258" y="303.178" fill="#6B8BD1" width="1.537" height="1.974"/>
	<rect x="678.258" y="309.188" fill="#6B8BD1" width="1.537" height="1.974"/>
	<rect x="678.258" y="319.276" fill="#6B8BD1" width="1.537" height="1.975"/>
	<rect x="678.258" y="314.231" fill="#6B8BD1" width="1.537" height="1.975"/>
	<rect x="678.258" y="324.321" fill="#6B8BD1" width="1.537" height="1.974"/>
	<rect x="678.258" y="329.365" fill="#6B8BD1" width="1.537" height="1.974"/>
	<rect x="681.987" y="319.276" fill="#6B8BD1" width="1.535" height="1.975"/>
	<rect x="681.987" y="314.231" fill="#6B8BD1" width="1.535" height="1.975"/>
	<rect x="681.987" y="324.321" fill="#6B8BD1" width="1.535" height="1.974"/>
	<rect x="681.987" y="329.365" fill="#6B8BD1" width="1.535" height="1.974"/>
	<rect x="695.362" y="320.349" fill="#6B8BD1" width="1.891" height="2.43"/>
	<rect x="695.362" y="314.139" fill="#6B8BD1" width="1.891" height="2.431"/>
	<rect x="695.362" y="326.558" fill="#6B8BD1" width="1.891" height="2.43"/>
	<rect x="699.95" y="320.349" fill="#6B8BD1" width="1.891" height="2.43"/>
	<rect x="699.95" y="314.139" fill="#6B8BD1" width="1.891" height="2.431"/>
	<rect x="699.95" y="326.558" fill="#6B8BD1" width="1.891" height="2.43"/>
	<rect x="761.725" y="315.828" fill="#6B8BD1" width="1.891" height="5.398"/>
	<rect x="761.725" y="325.007" fill="#6B8BD1" width="1.891" height="5.398"/>
	<rect x="821.432" y="319.769" fill="#6B8BD1" width="1.537" height="1.974"/>
	<rect x="821.432" y="314.723" fill="#6B8BD1" width="1.537" height="1.974"/>
	<rect x="821.432" y="324.813" fill="#6B8BD1" width="1.537" height="1.975"/>
	<rect x="821.432" y="329.857" fill="#6B8BD1" width="1.537" height="1.975"/>
	<rect x="766.721" y="315.828" fill="#6B8BD1" width="1.891" height="5.398"/>
	<rect x="766.721" y="325.007" fill="#6B8BD1" width="1.891" height="5.398"/>
	<rect x="825.161" y="314.723" fill="#6B8BD1" width="1.535" height="1.974"/>
	<rect x="825.161" y="319.769" fill="#6B8BD1" width="1.535" height="1.974"/>
	<rect x="825.161" y="324.813" fill="#6B8BD1" width="1.535" height="1.975"/>
	<rect x="825.161" y="329.857" fill="#6B8BD1" width="1.535" height="1.975"/>
	<rect x="838.709" y="334.906" fill="#6B8BD1" width="1.535" height="1.976"/>
	<rect x="838.709" y="319.772" fill="#6B8BD1" width="1.535" height="1.976"/>
	<rect x="838.709" y="324.817" fill="#6B8BD1" width="1.535" height="1.976"/>
	<rect x="838.709" y="329.863" fill="#6B8BD1" width="1.535" height="1.973"/>
	<rect x="842.438" y="334.906" fill="#6B8BD1" width="1.535" height="1.976"/>
	<rect x="856.215" y="318.955" fill="#6B8BD1" width="1.893" height="5.398"/>
	<rect x="861.211" y="318.954" fill="#6B8BD1" width="1.893" height="5.398"/>
	<rect x="842.44" y="329.863" fill="#6B8BD1" width="1.535" height="1.973"/>
	<rect x="842.438" y="324.817" fill="#6B8BD1" width="1.535" height="1.976"/>
	<rect x="842.44" y="319.772" fill="#6B8BD1" width="1.535" height="1.976"/>
	<rect x="880.286" y="336.985" fill="#6B8BD1" width="1.535" height="1.976"/>
	<rect x="880.286" y="316.807" fill="#6B8BD1" width="1.535" height="1.975"/>
	<rect x="880.286" y="321.853" fill="#6B8BD1" width="1.535" height="1.974"/>
	<rect x="880.286" y="326.896" fill="#6B8BD1" width="1.535" height="1.974"/>
	<rect x="880.286" y="331.941" fill="#6B8BD1" width="1.535" height="1.974"/>
	<rect x="884.014" y="336.985" fill="#6B8BD1" width="1.535" height="1.976"/>
	<rect x="884.014" y="316.807" fill="#6B8BD1" width="1.535" height="1.975"/>
	<rect x="884.014" y="321.853" fill="#6B8BD1" width="1.535" height="1.974"/>
	<rect x="884.014" y="326.896" fill="#6B8BD1" width="1.535" height="1.974"/>
	<rect x="884.014" y="331.941" fill="#6B8BD1" width="1.535" height="1.974"/>
	<rect x="908.106" y="319.816" fill="#6B8BD1" width="1.891" height="2.43"/>
	<rect x="908.106" y="326.025" fill="#6B8BD1" width="1.891" height="2.429"/>
	<rect x="902.516" y="319.816" fill="#6B8BD1" width="1.891" height="2.43"/>
	<rect x="902.516" y="326.025" fill="#6B8BD1" width="1.891" height="2.429"/>
	<rect x="908.106" y="301.19" fill="#6B8BD1" width="1.891" height="2.429"/>
	<rect x="908.106" y="307.398" fill="#6B8BD1" width="1.891" height="2.43"/>
	<rect x="908.106" y="313.606" fill="#6B8BD1" width="1.891" height="2.431"/>
	<rect x="902.518" y="301.19" fill="#6B8BD1" width="1.891" height="2.429"/>
	<rect x="902.518" y="307.398" fill="#6B8BD1" width="1.891" height="2.43"/>
	<rect x="902.518" y="313.606" fill="#6B8BD1" width="1.891" height="2.431"/>
	<rect x="861.211" y="300.594" fill="#6B8BD1" width="1.893" height="5.398"/>
	<rect x="861.211" y="309.774" fill="#6B8BD1" width="1.893" height="5.397"/>
	<rect x="856.215" y="300.594" fill="#6B8BD1" width="1.893" height="5.398"/>
	<rect x="856.215" y="309.774" fill="#6B8BD1" width="1.893" height="5.397"/>
	<rect x="842.44" y="314.729" fill="#6B8BD1" width="1.535" height="1.974"/>
	<rect x="838.709" y="314.729" fill="#6B8BD1" width="1.535" height="1.974"/>
	<rect x="364.22" y="293.01" fill="#6B8BD1" width="1.891" height="2.43"/>
	<rect x="364.22" y="299.219" fill="#6B8BD1" width="1.891" height="2.431"/>
	<rect x="364.22" y="305.427" fill="#6B8BD1" width="1.891" height="2.432"/>
	<rect x="364.22" y="311.637" fill="#6B8BD1" width="1.891" height="2.43"/>
	<rect x="359.631" y="293.01" fill="#6B8BD1" width="1.891" height="2.43"/>
	<rect x="359.631" y="299.219" fill="#6B8BD1" width="1.891" height="2.431"/>
	<rect x="359.631" y="305.427" fill="#6B8BD1" width="1.891" height="2.432"/>
	<rect x="359.631" y="311.637" fill="#6B8BD1" width="1.891" height="2.43"/>
	<rect x="341.127" y="307.628" fill="#6B8BD1" width="1.536" height="1.976"/>
	<rect x="341.127" y="312.673" fill="#6B8BD1" width="1.536" height="1.975"/>
	<rect x="337.399" y="307.628" fill="#6B8BD1" width="1.534" height="1.976"/>
	<rect x="337.399" y="312.673" fill="#6B8BD1" width="1.534" height="1.975"/>
	<rect x="299.552" y="306.549" fill="#6B8BD1" width="1.536" height="1.975"/>
	<rect x="299.552" y="311.593" fill="#6B8BD1" width="1.536" height="1.977"/>
	<rect x="295.822" y="306.549" fill="#6B8BD1" width="1.536" height="1.975"/>
	<rect x="295.822" y="311.593" fill="#6B8BD1" width="1.536" height="1.977"/>
	<rect x="282.274" y="300.499" fill="#6B8BD1" width="1.535" height="1.976"/>
	<rect x="282.274" y="305.544" fill="#6B8BD1" width="1.535" height="1.975"/>
	<rect x="282.274" y="310.589" fill="#6B8BD1" width="1.535" height="1.975"/>
	<rect x="278.546" y="300.499" fill="#6B8BD1" width="1.536" height="1.976"/>
	<rect x="278.546" y="305.544" fill="#6B8BD1" width="1.536" height="1.975"/>
	<rect x="278.546" y="310.589" fill="#6B8BD1" width="1.536" height="1.975"/>
	<rect x="265.546" y="285.182" fill="#6B8BD1" width="1.891" height="5.397"/>
	<rect x="265.546" y="294.36" fill="#6B8BD1" width="1.891" height="5.398"/>
	<rect x="265.546" y="303.54" fill="#6B8BD1" width="1.891" height="5.398"/>
	<rect x="260.551" y="285.182" fill="#6B8BD1" width="1.89" height="5.397"/>
	<rect x="260.551" y="294.36" fill="#6B8BD1" width="1.89" height="5.398"/>
	<rect x="260.551" y="303.54" fill="#6B8BD1" width="1.89" height="5.398"/>
	<rect x="246.918" y="291.605" fill="#6B8BD1" width="1.891" height="2.43"/>
	<rect x="246.918" y="297.813" fill="#6B8BD1" width="1.891" height="2.43"/>
	<rect x="246.918" y="304.022" fill="#6B8BD1" width="1.891" height="2.43"/>
	<rect x="246.918" y="310.231" fill="#6B8BD1" width="1.891" height="2.43"/>
	<rect x="242.329" y="291.605" fill="#6B8BD1" width="1.891" height="2.43"/>
	<rect x="242.329" y="297.813" fill="#6B8BD1" width="1.891" height="2.43"/>
	<rect x="242.329" y="304.022" fill="#6B8BD1" width="1.891" height="2.43"/>
	<rect x="242.329" y="310.231" fill="#6B8BD1" width="1.891" height="2.43"/>
	<rect x="223.835" y="248.57" fill="#6B8BD1" width="1.891" height="5.398"/>
	<rect x="223.835" y="257.749" fill="#6B8BD1" width="1.891" height="5.399"/>
	<rect x="223.835" y="266.928" fill="#6B8BD1" width="1.891" height="5.399"/>
	<rect x="223.835" y="276.108" fill="#6B8BD1" width="1.891" height="5.398"/>
	<rect x="223.835" y="285.288" fill="#6B8BD1" width="1.891" height="5.398"/>
	<rect x="223.835" y="294.468" fill="#6B8BD1" width="1.891" height="5.398"/>
	<rect x="223.835" y="303.647" fill="#6B8BD1" width="1.891" height="5.397"/>
	<rect x="217.84" y="248.57" fill="#6B8BD1" width="1.89" height="5.398"/>
	<rect x="217.84" y="257.749" fill="#6B8BD1" width="1.89" height="5.399"/>
	<rect x="217.84" y="266.928" fill="#6B8BD1" width="1.89" height="5.399"/>
	<rect x="217.84" y="276.108" fill="#6B8BD1" width="1.89" height="5.398"/>
	<rect x="217.84" y="285.288" fill="#6B8BD1" width="1.89" height="5.398"/>
	<rect x="217.84" y="294.468" fill="#6B8BD1" width="1.89" height="5.398"/>
	<rect x="217.84" y="303.647" fill="#6B8BD1" width="1.89" height="5.397"/>
	<rect x="203.991" y="268.983" fill="#6B8BD1" width="1.891" height="2.43"/>
	<rect x="203.991" y="275.192" fill="#6B8BD1" width="1.891" height="2.429"/>
	<rect x="203.991" y="281.401" fill="#6B8BD1" width="1.891" height="2.429"/>
	<rect x="203.991" y="287.608" fill="#6B8BD1" width="1.891" height="2.431"/>
	<rect x="203.991" y="293.818" fill="#6B8BD1" width="1.891" height="2.43"/>
	<rect x="199.402" y="268.983" fill="#6B8BD1" width="1.891" height="2.43"/>
	<rect x="199.402" y="275.192" fill="#6B8BD1" width="1.891" height="2.429"/>
	<rect x="199.402" y="281.401" fill="#6B8BD1" width="1.891" height="2.429"/>
	<rect x="199.402" y="287.608" fill="#6B8BD1" width="1.891" height="2.431"/>
	<rect x="199.402" y="293.818" fill="#6B8BD1" width="1.891" height="2.43"/>
	<rect x="135.372" y="320.186" fill="#6B8BD1" width="1.536" height="1.974"/>
	<rect x="135.372" y="315.141" fill="#6B8BD1" width="1.536" height="1.974"/>
	<rect x="139.101" y="320.186" fill="#6B8BD1" width="1.535" height="1.974"/>
	<rect x="139.101" y="315.141" fill="#6B8BD1" width="1.535" height="1.974"/>
	<rect x="151.475" y="315.378" fill="#6B8BD1" width="1.891" height="2.431"/>
	<rect x="157.063" y="315.378" fill="#6B8BD1" width="1.891" height="2.431"/>
	<rect x="175.645" y="327.562" fill="#6B8BD1" width="1.891" height="2.429"/>
	<rect x="175.646" y="321.352" fill="#6B8BD1" width="1.891" height="2.43"/>
	<rect x="180.234" y="321.353" fill="#6B8BD1" width="1.891" height="2.43"/>
	<rect x="180.234" y="327.562" fill="#6B8BD1" width="1.891" height="2.429"/>
	<rect x="217.839" y="322.817" fill="#6B8BD1" width="1.89" height="5.397"/>
	<rect x="217.84" y="312.828" fill="#6B8BD1" width="1.89" height="5.398"/>
	<rect x="223.835" y="322.817" fill="#6B8BD1" width="1.891" height="5.397"/>
	<rect x="223.835" y="312.828" fill="#6B8BD1" width="1.891" height="5.398"/>
	<rect x="242.329" y="316.44" fill="#6B8BD1" width="1.891" height="2.43"/>
	<rect x="246.918" y="316.44" fill="#6B8BD1" width="1.891" height="2.43"/>
	<rect x="278.546" y="320.678" fill="#6B8BD1" width="1.536" height="1.975"/>
	<rect x="278.546" y="315.632" fill="#6B8BD1" width="1.536" height="1.976"/>
	<rect x="282.275" y="315.632" fill="#6B8BD1" width="1.535" height="1.976"/>
	<rect x="282.275" y="320.678" fill="#6B8BD1" width="1.535" height="1.975"/>
	<rect x="299.552" y="321.684" fill="#6B8BD1" width="1.536" height="1.973"/>
	<rect x="299.552" y="316.637" fill="#6B8BD1" width="1.536" height="1.976"/>
	<rect x="299.552" y="326.727" fill="#6B8BD1" width="1.536" height="1.976"/>
	<rect x="337.4" y="322.762" fill="#6B8BD1" width="1.534" height="1.974"/>
	<rect x="337.399" y="317.716" fill="#6B8BD1" width="1.534" height="1.975"/>
	<rect x="337.4" y="327.806" fill="#6B8BD1" width="1.534" height="1.976"/>
	<rect x="341.127" y="322.762" fill="#6B8BD1" width="1.536" height="1.974"/>
	<rect x="341.127" y="317.716" fill="#6B8BD1" width="1.536" height="1.975"/>
	<rect x="341.127" y="327.806" fill="#6B8BD1" width="1.536" height="1.976"/>
	<rect x="364.219" y="317.845" fill="#6B8BD1" width="1.891" height="2.429"/>
	<rect x="359.631" y="317.845" fill="#6B8BD1" width="1.891" height="2.429"/>
	<rect x="295.822" y="316.637" fill="#6B8BD1" width="1.536" height="1.976"/>
	<rect x="295.822" y="321.684" fill="#6B8BD1" width="1.536" height="1.973"/>
	<rect x="295.822" y="326.727" fill="#6B8BD1" width="1.536" height="1.976"/>
	<rect x="318.324" y="292.415" fill="#6B8BD1" width="1.892" height="5.398"/>
	<rect x="318.324" y="301.594" fill="#6B8BD1" width="1.892" height="5.398"/>
	<rect x="318.324" y="310.774" fill="#6B8BD1" width="1.892" height="5.397"/>
	<rect x="313.329" y="292.415" fill="#6B8BD1" width="1.891" height="5.398"/>
	<rect x="313.329" y="301.594" fill="#6B8BD1" width="1.891" height="5.398"/>
	<rect x="313.329" y="310.774" fill="#6B8BD1" width="1.891" height="5.397"/>
	<rect x="180.234" y="277.487" fill="#6B8BD1" width="1.891" height="2.43"/>
	<rect x="180.234" y="283.696" fill="#6B8BD1" width="1.891" height="2.43"/>
	<rect x="180.234" y="289.905" fill="#6B8BD1" width="1.891" height="2.429"/>
	<rect x="180.234" y="296.113" fill="#6B8BD1" width="1.891" height="2.43"/>
	<rect x="180.234" y="302.321" fill="#6B8BD1" width="1.891" height="2.432"/>
	<rect x="180.234" y="308.935" fill="#6B8BD1" width="1.891" height="2.43"/>
	<rect x="180.234" y="315.144" fill="#6B8BD1" width="1.891" height="2.43"/>
	<rect x="175.646" y="277.487" fill="#6B8BD1" width="1.891" height="2.43"/>
	<rect x="175.646" y="283.696" fill="#6B8BD1" width="1.891" height="2.43"/>
	<rect x="175.646" y="289.905" fill="#6B8BD1" width="1.891" height="2.429"/>
	<rect x="175.646" y="296.113" fill="#6B8BD1" width="1.891" height="2.43"/>
	<rect x="175.646" y="302.321" fill="#6B8BD1" width="1.891" height="2.432"/>
	<rect x="175.646" y="308.935" fill="#6B8BD1" width="1.891" height="2.43"/>
	<rect x="175.646" y="315.144" fill="#6B8BD1" width="1.891" height="2.43"/>
	<rect x="157.063" y="258.146" fill="#6B8BD1" width="1.891" height="2.43"/>
	<rect x="157.063" y="264.355" fill="#6B8BD1" width="1.891" height="2.429"/>
	<rect x="157.063" y="270.563" fill="#6B8BD1" width="1.891" height="2.43"/>
	<rect x="157.063" y="276.772" fill="#6B8BD1" width="1.891" height="2.43"/>
	<rect x="157.063" y="282.981" fill="#6B8BD1" width="1.891" height="2.43"/>
	<rect x="157.063" y="290.542" fill="#6B8BD1" width="1.891" height="2.432"/>
	<rect x="157.063" y="296.751" fill="#6B8BD1" width="1.891" height="2.432"/>
	<rect x="157.063" y="302.96" fill="#6B8BD1" width="1.891" height="2.432"/>
	<rect x="157.063" y="309.169" fill="#6B8BD1" width="1.891" height="2.431"/>
	<rect x="151.475" y="258.146" fill="#6B8BD1" width="1.891" height="2.43"/>
	<rect x="151.475" y="264.355" fill="#6B8BD1" width="1.891" height="2.429"/>
	<rect x="151.475" y="270.563" fill="#6B8BD1" width="1.891" height="2.43"/>
	<rect x="151.475" y="276.772" fill="#6B8BD1" width="1.891" height="2.43"/>
	<rect x="151.475" y="282.981" fill="#6B8BD1" width="1.891" height="2.43"/>
	<rect x="151.475" y="290.542" fill="#6B8BD1" width="1.891" height="2.432"/>
	<rect x="151.475" y="296.751" fill="#6B8BD1" width="1.891" height="2.432"/>
	<rect x="151.475" y="302.96" fill="#6B8BD1" width="1.891" height="2.432"/>
	<rect x="139.101" y="273.82" fill="#6B8BD1" width="1.535" height="1.973"/>
	<rect x="139.101" y="278.864" fill="#6B8BD1" width="1.535" height="1.975"/>
	<rect x="139.101" y="283.908" fill="#6B8BD1" width="1.535" height="1.976"/>
	<rect x="139.101" y="288.954" fill="#6B8BD1" width="1.535" height="1.974"/>
	<rect x="139.101" y="293.998" fill="#6B8BD1" width="1.535" height="1.975"/>
	<rect x="139.101" y="300.008" fill="#6B8BD1" width="1.535" height="1.975"/>
	<rect x="139.101" y="305.052" fill="#6B8BD1" width="1.535" height="1.976"/>
	<rect x="139.101" y="310.097" fill="#6B8BD1" width="1.535" height="1.975"/>
	<rect x="135.372" y="273.82" fill="#6B8BD1" width="1.536" height="1.973"/>
	<rect x="135.372" y="278.864" fill="#6B8BD1" width="1.536" height="1.975"/>
	<rect x="135.372" y="283.908" fill="#6B8BD1" width="1.536" height="1.976"/>
	<rect x="135.372" y="288.954" fill="#6B8BD1" width="1.536" height="1.974"/>
	<rect x="135.372" y="293.998" fill="#6B8BD1" width="1.536" height="1.975"/>
	<rect x="135.372" y="300.008" fill="#6B8BD1" width="1.536" height="1.975"/>
	<rect x="135.372" y="305.052" fill="#6B8BD1" width="1.536" height="1.976"/>
	<rect x="135.372" y="310.097" fill="#6B8BD1" width="1.536" height="1.975"/>
	<rect x="151.475" y="309.169" fill="#6B8BD1" width="1.891" height="2.431"/>
	<rect x="761.727" y="260.75" fill="#6B8BD1" width="1.891" height="5.399"/>
	<rect x="766.721" y="260.75" fill="#6B8BD1" width="1.893" height="5.399"/>
	<rect x="761.727" y="269.928" fill="#6B8BD1" width="1.891" height="5.399"/>
	<rect x="766.721" y="269.928" fill="#6B8BD1" width="1.893" height="5.399"/>
	<rect x="761.727" y="279.108" fill="#6B8BD1" width="1.891" height="5.398"/>
	<rect x="766.721" y="279.108" fill="#6B8BD1" width="1.893" height="5.398"/>
	<rect x="856.215" y="300.594" fill="#6B8BD1" width="1.893" height="5.398"/>
	<rect x="861.211" y="300.594" fill="#6B8BD1" width="1.893" height="5.398"/>
	<rect x="856.215" y="309.774" fill="#6B8BD1" width="1.893" height="5.397"/>
	<rect x="861.211" y="309.774" fill="#6B8BD1" width="1.893" height="5.397"/>
	<rect x="856.215" y="318.954" fill="#6B8BD1" width="1.893" height="5.398"/>
	<rect x="861.211" y="318.954" fill="#6B8BD1" width="1.893" height="5.398"/>
	<rect x="761.727" y="288.288" fill="#6B8BD1" width="1.891" height="5.399"/>
	<rect x="766.721" y="288.288" fill="#6B8BD1" width="1.893" height="5.399"/>
	<rect x="761.727" y="297.468" fill="#6B8BD1" width="1.891" height="5.398"/>
	<rect x="766.721" y="297.468" fill="#6B8BD1" width="1.893" height="5.398"/>
	<rect x="761.727" y="306.647" fill="#6B8BD1" width="1.891" height="5.397"/>
	<rect x="766.721" y="306.647" fill="#6B8BD1" width="1.893" height="5.397"/>
	<rect x="761.727" y="315.827" fill="#6B8BD1" width="1.891" height="5.398"/>
	<rect x="766.721" y="315.827" fill="#6B8BD1" width="1.893" height="5.398"/>
	<rect x="761.727" y="325.007" fill="#6B8BD1" width="1.891" height="5.398"/>
	<rect x="766.721" y="325.007" fill="#6B8BD1" width="1.893" height="5.398"/>
	<rect x="902.518" y="301.19" fill="#6B8BD1" width="1.891" height="2.429"/>
	<rect x="908.106" y="301.19" fill="#6B8BD1" width="1.891" height="2.429"/>
	<rect x="902.518" y="307.398" fill="#6B8BD1" width="1.891" height="2.43"/>
	<rect x="908.106" y="307.398" fill="#6B8BD1" width="1.891" height="2.43"/>
	<rect x="902.518" y="313.606" fill="#6B8BD1" width="1.891" height="2.431"/>
	<rect x="908.106" y="313.606" fill="#6B8BD1" width="1.891" height="2.431"/>
	<rect x="902.518" y="319.816" fill="#6B8BD1" width="1.891" height="2.43"/>
	<rect x="908.106" y="319.816" fill="#6B8BD1" width="1.891" height="2.43"/>
	<rect x="902.518" y="326.025" fill="#6B8BD1" width="1.891" height="2.429"/>
	<rect x="908.106" y="326.025" fill="#6B8BD1" width="1.891" height="2.429"/>
	<rect x="880.286" y="316.808" fill="#6B8BD1" width="1.535" height="1.975"/>
	<rect x="884.014" y="316.808" fill="#6B8BD1" width="1.535" height="1.975"/>
	<rect x="880.286" y="321.853" fill="#6B8BD1" width="1.535" height="1.974"/>
	<rect x="884.014" y="321.853" fill="#6B8BD1" width="1.535" height="1.974"/>
	<rect x="880.286" y="326.896" fill="#6B8BD1" width="1.535" height="1.974"/>
	<rect x="884.014" y="326.896" fill="#6B8BD1" width="1.535" height="1.974"/>
	<rect x="880.286" y="331.941" fill="#6B8BD1" width="1.535" height="1.974"/>
	<rect x="884.014" y="331.941" fill="#6B8BD1" width="1.535" height="1.974"/>
	<rect x="880.286" y="336.985" fill="#6B8BD1" width="1.535" height="1.976"/>
	<rect x="884.014" y="336.985" fill="#6B8BD1" width="1.535" height="1.976"/>
	<rect x="838.709" y="314.729" fill="#6B8BD1" width="1.535" height="1.974"/>
	<rect x="842.438" y="314.729" fill="#6B8BD1" width="1.535" height="1.974"/>
	<rect x="838.709" y="319.772" fill="#6B8BD1" width="1.535" height="1.976"/>
	<rect x="842.438" y="319.772" fill="#6B8BD1" width="1.535" height="1.976"/>
	<rect x="838.709" y="324.817" fill="#6B8BD1" width="1.535" height="1.976"/>
	<rect x="842.438" y="324.817" fill="#6B8BD1" width="1.535" height="1.976"/>
	<rect x="838.709" y="329.863" fill="#6B8BD1" width="1.535" height="1.973"/>
	<rect x="842.438" y="329.863" fill="#6B8BD1" width="1.535" height="1.973"/>
	<rect x="838.709" y="334.906" fill="#6B8BD1" width="1.535" height="1.976"/>
	<rect x="842.438" y="334.906" fill="#6B8BD1" width="1.535" height="1.976"/>
	<rect x="821.432" y="309.679" fill="#6B8BD1" width="1.537" height="1.975"/>
	<rect x="825.161" y="309.679" fill="#6B8BD1" width="1.535" height="1.975"/>
	<rect x="821.432" y="314.724" fill="#6B8BD1" width="1.537" height="1.974"/>
	<rect x="825.161" y="314.724" fill="#6B8BD1" width="1.535" height="1.974"/>
	<rect x="821.432" y="319.769" fill="#6B8BD1" width="1.537" height="1.974"/>
	<rect x="825.161" y="319.769" fill="#6B8BD1" width="1.535" height="1.974"/>
	<rect x="821.432" y="324.813" fill="#6B8BD1" width="1.537" height="1.975"/>
	<rect x="825.161" y="324.813" fill="#6B8BD1" width="1.535" height="1.975"/>
	<rect x="821.432" y="329.857" fill="#6B8BD1" width="1.537" height="1.975"/>
	<rect x="825.161" y="329.857" fill="#6B8BD1" width="1.535" height="1.975"/>
	<rect x="678.258" y="283" fill="#6B8BD1" width="1.537" height="1.974"/>
	<rect x="681.987" y="283" fill="#6B8BD1" width="1.535" height="1.974"/>
	<rect x="678.258" y="288.044" fill="#6B8BD1" width="1.537" height="1.976"/>
	<rect x="681.987" y="288.044" fill="#6B8BD1" width="1.535" height="1.976"/>
	<rect x="678.258" y="293.088" fill="#6B8BD1" width="1.537" height="1.977"/>
	<rect x="681.987" y="293.088" fill="#6B8BD1" width="1.535" height="1.977"/>
	<rect x="678.258" y="298.134" fill="#6B8BD1" width="1.537" height="1.975"/>
	<rect x="681.987" y="298.134" fill="#6B8BD1" width="1.535" height="1.975"/>
	<rect x="678.258" y="303.178" fill="#6B8BD1" width="1.537" height="1.974"/>
	<rect x="681.987" y="303.178" fill="#6B8BD1" width="1.535" height="1.974"/>
	<rect x="678.258" y="309.188" fill="#6B8BD1" width="1.537" height="1.974"/>
	<rect x="681.987" y="309.188" fill="#6B8BD1" width="1.535" height="1.974"/>
	<rect x="678.258" y="314.231" fill="#6B8BD1" width="1.537" height="1.975"/>
	<rect x="681.987" y="314.231" fill="#6B8BD1" width="1.535" height="1.975"/>
	<rect x="678.258" y="319.276" fill="#6B8BD1" width="1.537" height="1.975"/>
	<rect x="681.987" y="319.276" fill="#6B8BD1" width="1.535" height="1.975"/>
	<rect x="678.258" y="324.321" fill="#6B8BD1" width="1.537" height="1.974"/>
	<rect x="681.987" y="324.321" fill="#6B8BD1" width="1.535" height="1.974"/>
	<rect x="678.258" y="329.365" fill="#6B8BD1" width="1.537" height="1.974"/>
	<rect x="681.987" y="329.365" fill="#6B8BD1" width="1.535" height="1.974"/>
	<rect x="695.362" y="269.326" fill="#6B8BD1" width="1.891" height="2.43"/>
	<rect x="699.95" y="269.326" fill="#6B8BD1" width="1.891" height="2.43"/>
	<rect x="695.362" y="275.535" fill="#6B8BD1" width="1.891" height="2.429"/>
	<rect x="699.95" y="275.535" fill="#6B8BD1" width="1.891" height="2.429"/>
	<rect x="695.362" y="281.743" fill="#6B8BD1" width="1.891" height="2.43"/>
	<rect x="699.95" y="281.743" fill="#6B8BD1" width="1.891" height="2.43"/>
	<rect x="695.362" y="287.952" fill="#6B8BD1" width="1.891" height="2.43"/>
	<rect x="699.95" y="287.952" fill="#6B8BD1" width="1.891" height="2.43"/>
	<rect x="695.362" y="294.161" fill="#6B8BD1" width="1.891" height="2.43"/>
	<rect x="699.95" y="294.161" fill="#6B8BD1" width="1.891" height="2.43"/>
	<rect x="695.362" y="301.722" fill="#6B8BD1" width="1.891" height="2.431"/>
	<rect x="699.95" y="301.722" fill="#6B8BD1" width="1.891" height="2.431"/>
	<rect x="695.362" y="307.931" fill="#6B8BD1" width="1.891" height="2.431"/>
	<rect x="699.95" y="307.931" fill="#6B8BD1" width="1.891" height="2.431"/>
	<rect x="695.362" y="314.14" fill="#6B8BD1" width="1.891" height="2.431"/>
	<rect x="699.95" y="314.14" fill="#6B8BD1" width="1.891" height="2.431"/>
	<rect x="695.362" y="320.349" fill="#6B8BD1" width="1.891" height="2.43"/>
	<rect x="699.95" y="320.349" fill="#6B8BD1" width="1.891" height="2.43"/>
	<rect x="695.362" y="326.558" fill="#6B8BD1" width="1.891" height="2.43"/>
	<rect x="699.95" y="326.558" fill="#6B8BD1" width="1.891" height="2.43"/>
	<rect x="217.84" y="248.57" fill="#6B8BD1" width="1.89" height="5.398"/>
	<rect x="223.835" y="248.57" fill="#6B8BD1" width="1.891" height="5.398"/>
	<rect x="217.84" y="257.749" fill="#6B8BD1" width="1.89" height="5.399"/>
	<rect x="223.835" y="257.749" fill="#6B8BD1" width="1.891" height="5.399"/>
	<rect x="217.84" y="266.928" fill="#6B8BD1" width="1.89" height="5.399"/>
	<rect x="223.835" y="266.928" fill="#6B8BD1" width="1.891" height="5.399"/>
	<rect x="260.551" y="285.182" fill="#6B8BD1" width="1.89" height="5.397"/>
	<rect x="265.546" y="285.182" fill="#6B8BD1" width="1.891" height="5.397"/>
	<rect x="260.551" y="294.36" fill="#6B8BD1" width="1.89" height="5.398"/>
	<rect x="265.546" y="294.36" fill="#6B8BD1" width="1.891" height="5.398"/>
	<rect x="260.551" y="303.54" fill="#6B8BD1" width="1.89" height="5.398"/>
	<rect x="265.546" y="303.54" fill="#6B8BD1" width="1.891" height="5.398"/>
	<rect x="313.329" y="292.415" fill="#6B8BD1" width="1.891" height="5.398"/>
	<rect x="318.324" y="292.415" fill="#6B8BD1" width="1.892" height="5.398"/>
	<rect x="313.329" y="301.594" fill="#6B8BD1" width="1.891" height="5.398"/>
	<rect x="318.324" y="301.594" fill="#6B8BD1" width="1.892" height="5.398"/>
	<rect x="313.329" y="310.774" fill="#6B8BD1" width="1.891" height="5.397"/>
	<rect x="318.324" y="310.774" fill="#6B8BD1" width="1.892" height="5.397"/>
	<rect x="217.84" y="276.108" fill="#6B8BD1" width="1.89" height="5.398"/>
	<rect x="223.835" y="276.108" fill="#6B8BD1" width="1.891" height="5.398"/>
	<rect x="217.84" y="285.288" fill="#6B8BD1" width="1.89" height="5.398"/>
	<rect x="223.835" y="285.288" fill="#6B8BD1" width="1.891" height="5.398"/>
	<rect x="217.84" y="294.468" fill="#6B8BD1" width="1.89" height="5.398"/>
	<rect x="223.835" y="294.468" fill="#6B8BD1" width="1.891" height="5.398"/>
	<rect x="217.84" y="303.647" fill="#6B8BD1" width="1.89" height="5.397"/>
	<rect x="223.835" y="303.647" fill="#6B8BD1" width="1.891" height="5.397"/>
	<rect x="217.84" y="312.827" fill="#6B8BD1" width="1.89" height="5.398"/>
	<rect x="223.835" y="312.827" fill="#6B8BD1" width="1.891" height="5.398"/>
	<rect x="217.84" y="322.817" fill="#6B8BD1" width="1.89" height="5.397"/>
	<rect x="223.835" y="322.817" fill="#6B8BD1" width="1.891" height="5.397"/>
	<rect x="242.329" y="291.605" fill="#6B8BD1" width="1.891" height="2.43"/>
	<rect x="246.918" y="291.605" fill="#6B8BD1" width="1.891" height="2.43"/>
	<rect x="242.329" y="297.813" fill="#6B8BD1" width="1.891" height="2.43"/>
	<rect x="246.918" y="297.813" fill="#6B8BD1" width="1.891" height="2.43"/>
	<rect x="242.329" y="304.022" fill="#6B8BD1" width="1.891" height="2.43"/>
	<rect x="246.918" y="304.022" fill="#6B8BD1" width="1.891" height="2.43"/>
	<rect x="242.329" y="310.231" fill="#6B8BD1" width="1.891" height="2.43"/>
	<rect x="246.918" y="310.231" fill="#6B8BD1" width="1.891" height="2.43"/>
	<rect x="242.329" y="316.44" fill="#6B8BD1" width="1.891" height="2.43"/>
	<rect x="246.918" y="316.44" fill="#6B8BD1" width="1.891" height="2.43"/>
	<rect x="175.646" y="277.487" fill="#6B8BD1" width="1.891" height="2.43"/>
	<rect x="180.234" y="277.487" fill="#6B8BD1" width="1.891" height="2.43"/>
	<rect x="175.646" y="283.696" fill="#6B8BD1" width="1.891" height="2.43"/>
	<rect x="180.234" y="283.696" fill="#6B8BD1" width="1.891" height="2.43"/>
	<rect x="175.646" y="289.905" fill="#6B8BD1" width="1.891" height="2.429"/>
	<rect x="180.234" y="289.905" fill="#6B8BD1" width="1.891" height="2.429"/>
	<rect x="175.646" y="296.113" fill="#6B8BD1" width="1.891" height="2.43"/>
	<rect x="180.234" y="296.113" fill="#6B8BD1" width="1.891" height="2.43"/>
	<rect x="175.646" y="302.321" fill="#6B8BD1" width="1.891" height="2.432"/>
	<rect x="180.234" y="302.321" fill="#6B8BD1" width="1.891" height="2.432"/>
	<rect x="175.646" y="308.935" fill="#6B8BD1" width="1.891" height="2.43"/>
	<rect x="180.234" y="308.935" fill="#6B8BD1" width="1.891" height="2.43"/>
	<rect x="175.646" y="315.144" fill="#6B8BD1" width="1.891" height="2.43"/>
	<rect x="180.234" y="315.144" fill="#6B8BD1" width="1.891" height="2.43"/>
	<rect x="175.646" y="321.353" fill="#6B8BD1" width="1.891" height="2.43"/>
	<rect x="180.234" y="321.353" fill="#6B8BD1" width="1.891" height="2.43"/>
	<rect x="175.646" y="327.562" fill="#6B8BD1" width="1.891" height="2.429"/>
	<rect x="180.234" y="327.562" fill="#6B8BD1" width="1.891" height="2.429"/>
	<rect x="359.631" y="293.01" fill="#6B8BD1" width="1.891" height="2.43"/>
	<rect x="364.22" y="293.01" fill="#6B8BD1" width="1.891" height="2.43"/>
	<rect x="359.631" y="299.219" fill="#6B8BD1" width="1.891" height="2.431"/>
	<rect x="364.22" y="299.219" fill="#6B8BD1" width="1.891" height="2.431"/>
	<rect x="359.631" y="305.427" fill="#6B8BD1" width="1.891" height="2.432"/>
	<rect x="364.22" y="305.427" fill="#6B8BD1" width="1.891" height="2.432"/>
	<rect x="359.631" y="311.637" fill="#6B8BD1" width="1.891" height="2.43"/>
	<rect x="364.22" y="311.637" fill="#6B8BD1" width="1.891" height="2.43"/>
	<rect x="359.631" y="317.846" fill="#6B8BD1" width="1.891" height="2.429"/>
	<rect x="364.22" y="317.846" fill="#6B8BD1" width="1.891" height="2.429"/>
	<rect x="337.399" y="307.628" fill="#6B8BD1" width="1.534" height="1.976"/>
	<rect x="341.127" y="307.628" fill="#6B8BD1" width="1.536" height="1.976"/>
	<rect x="337.399" y="312.673" fill="#6B8BD1" width="1.534" height="1.975"/>
	<rect x="341.127" y="312.673" fill="#6B8BD1" width="1.536" height="1.975"/>
	<rect x="337.399" y="317.717" fill="#6B8BD1" width="1.534" height="1.975"/>
	<rect x="341.127" y="317.717" fill="#6B8BD1" width="1.536" height="1.975"/>
	<rect x="337.399" y="322.762" fill="#6B8BD1" width="1.534" height="1.974"/>
	<rect x="341.127" y="322.762" fill="#6B8BD1" width="1.536" height="1.974"/>
	<rect x="337.399" y="327.806" fill="#6B8BD1" width="1.534" height="1.976"/>
	<rect x="341.127" y="327.806" fill="#6B8BD1" width="1.536" height="1.976"/>
	<rect x="295.822" y="306.549" fill="#6B8BD1" width="1.536" height="1.975"/>
	<rect x="299.552" y="306.549" fill="#6B8BD1" width="1.536" height="1.975"/>
	<rect x="295.822" y="311.593" fill="#6B8BD1" width="1.536" height="1.977"/>
	<rect x="299.552" y="311.593" fill="#6B8BD1" width="1.536" height="1.977"/>
	<rect x="295.822" y="316.638" fill="#6B8BD1" width="1.536" height="1.976"/>
	<rect x="299.552" y="316.638" fill="#6B8BD1" width="1.536" height="1.976"/>
	<rect x="295.822" y="321.684" fill="#6B8BD1" width="1.536" height="1.973"/>
	<rect x="299.552" y="321.684" fill="#6B8BD1" width="1.536" height="1.973"/>
	<rect x="295.822" y="326.727" fill="#6B8BD1" width="1.536" height="1.976"/>
	<rect x="299.552" y="326.727" fill="#6B8BD1" width="1.536" height="1.976"/>
	<rect x="278.546" y="300.499" fill="#6B8BD1" width="1.536" height="1.976"/>
	<rect x="282.274" y="300.499" fill="#6B8BD1" width="1.535" height="1.976"/>
	<rect x="278.546" y="305.544" fill="#6B8BD1" width="1.536" height="1.975"/>
	<rect x="282.274" y="305.544" fill="#6B8BD1" width="1.535" height="1.975"/>
	<rect x="278.546" y="310.589" fill="#6B8BD1" width="1.536" height="1.975"/>
	<rect x="282.274" y="310.589" fill="#6B8BD1" width="1.535" height="1.975"/>
	<rect x="278.546" y="315.633" fill="#6B8BD1" width="1.536" height="1.976"/>
	<rect x="282.274" y="315.633" fill="#6B8BD1" width="1.535" height="1.976"/>
	<rect x="278.546" y="320.678" fill="#6B8BD1" width="1.536" height="1.975"/>
	<rect x="282.274" y="320.678" fill="#6B8BD1" width="1.535" height="1.975"/>
	<rect x="135.372" y="273.82" fill="#6B8BD1" width="1.536" height="1.973"/>
	<rect x="139.101" y="273.82" fill="#6B8BD1" width="1.535" height="1.973"/>
	<rect x="135.372" y="278.864" fill="#6B8BD1" width="1.536" height="1.975"/>
	<rect x="139.101" y="278.864" fill="#6B8BD1" width="1.535" height="1.975"/>
	<rect x="135.372" y="283.908" fill="#6B8BD1" width="1.536" height="1.976"/>
	<rect x="139.101" y="283.908" fill="#6B8BD1" width="1.535" height="1.976"/>
	<rect x="135.372" y="288.954" fill="#6B8BD1" width="1.536" height="1.974"/>
	<rect x="139.101" y="288.954" fill="#6B8BD1" width="1.535" height="1.974"/>
	<rect x="135.372" y="293.998" fill="#6B8BD1" width="1.536" height="1.975"/>
	<rect x="139.101" y="293.998" fill="#6B8BD1" width="1.535" height="1.975"/>
	<rect x="135.372" y="300.008" fill="#6B8BD1" width="1.536" height="1.975"/>
	<rect x="139.101" y="300.008" fill="#6B8BD1" width="1.535" height="1.975"/>
	<rect x="135.372" y="305.052" fill="#6B8BD1" width="1.536" height="1.976"/>
	<rect x="139.101" y="305.052" fill="#6B8BD1" width="1.535" height="1.976"/>
	<rect x="135.372" y="310.097" fill="#6B8BD1" width="1.536" height="1.975"/>
	<rect x="139.101" y="310.097" fill="#6B8BD1" width="1.535" height="1.975"/>
	<rect x="135.372" y="315.142" fill="#6B8BD1" width="1.536" height="1.974"/>
	<rect x="139.101" y="315.142" fill="#6B8BD1" width="1.535" height="1.974"/>
	<rect x="135.372" y="320.186" fill="#6B8BD1" width="1.536" height="1.974"/>
	<rect x="139.101" y="320.186" fill="#6B8BD1" width="1.535" height="1.974"/>
	<rect x="151.475" y="258.146" fill="#6B8BD1" width="1.891" height="2.43"/>
	<rect x="157.063" y="258.146" fill="#6B8BD1" width="1.891" height="2.43"/>
	<rect x="151.475" y="264.355" fill="#6B8BD1" width="1.891" height="2.429"/>
	<rect x="157.063" y="264.355" fill="#6B8BD1" width="1.891" height="2.429"/>
	<rect x="151.475" y="270.563" fill="#6B8BD1" width="1.891" height="2.43"/>
	<rect x="157.063" y="270.563" fill="#6B8BD1" width="1.891" height="2.43"/>
	<rect x="151.475" y="276.772" fill="#6B8BD1" width="1.891" height="2.43"/>
	<rect x="157.063" y="276.772" fill="#6B8BD1" width="1.891" height="2.43"/>
	<rect x="151.475" y="282.981" fill="#6B8BD1" width="1.891" height="2.43"/>
	<rect x="157.063" y="282.981" fill="#6B8BD1" width="1.891" height="2.43"/>
	<rect x="151.475" y="290.542" fill="#6B8BD1" width="1.891" height="2.432"/>
	<rect x="157.063" y="290.542" fill="#6B8BD1" width="1.891" height="2.432"/>
	<rect x="151.475" y="296.751" fill="#6B8BD1" width="1.891" height="2.432"/>
	<rect x="157.063" y="296.751" fill="#6B8BD1" width="1.891" height="2.432"/>
	<rect x="151.475" y="302.96" fill="#6B8BD1" width="1.891" height="2.432"/>
	<rect x="157.063" y="302.96" fill="#6B8BD1" width="1.891" height="2.432"/>
	<rect x="151.475" y="309.169" fill="#6B8BD1" width="1.891" height="2.431"/>
	<rect x="157.063" y="309.169" fill="#6B8BD1" width="1.891" height="2.431"/>
	<rect x="151.475" y="315.378" fill="#6B8BD1" width="1.891" height="2.431"/>
	<rect x="157.063" y="315.378" fill="#6B8BD1" width="1.891" height="2.431"/>
	<rect x="199.402" y="268.983" fill="#6B8BD1" width="1.891" height="2.43"/>
	<rect x="203.991" y="268.983" fill="#6B8BD1" width="1.891" height="2.43"/>
	<rect x="199.402" y="275.192" fill="#6B8BD1" width="1.891" height="2.429"/>
	<rect x="203.991" y="275.192" fill="#6B8BD1" width="1.891" height="2.429"/>
	<rect x="199.402" y="281.401" fill="#6B8BD1" width="1.891" height="2.429"/>
	<rect x="203.991" y="281.401" fill="#6B8BD1" width="1.891" height="2.429"/>
	<rect x="199.402" y="287.608" fill="#6B8BD1" width="1.891" height="2.431"/>
	<rect x="203.991" y="287.608" fill="#6B8BD1" width="1.891" height="2.431"/>
	<rect x="199.402" y="293.818" fill="#6B8BD1" width="1.891" height="2.43"/>
	<rect x="203.991" y="293.818" fill="#6B8BD1" width="1.891" height="2.43"/>
</g>
<g>
	<rect x="-9" y="334.648" fill="#0E2144" width="947.215" height="28.576"/>
	<g>
		<polygon fill="#0E2144" points="784.215,293.774 786.465,269.148 741.69,269.148 741.69,291.612 752.266,281.694 773.463,285.419 
					"/>
		<rect x="716.104" y="294.283" fill="#0E2144" width="32.457" height="42.004"/>
		<rect x="781.512" y="294.628" fill="#0E2144" width="32.453" height="41.659"/>
		<rect x="717.84" y="268.901" fill="#0E2144" width="32.84" height="22.296"/>
		<rect x="784.483" y="269.148" fill="#0E2144" width="27.006" height="22.298"/>
		<rect x="717.249" y="264.195" fill="#0E2144" width="95.994" height="5.449"/>
		<polygon fill="#0E2144" points="814.708,260.229 714.618,260.229 717.592,265.682 812.975,265.682 		"/>
		<path fill="#0E2144" d="M781.512,336.287h-3.221v-39.144c0,0-0.744-12.14-13.627-12.14s-12.389,12.389-12.389,12.389v38.895
			h-5.449v-43.105c0,0,0.496-19.077,17.59-19.077c17.096,0,17.838,19.325,17.838,19.325L781.512,336.287z"/>
		<rect x="788.2" y="274.598" fill="#0E2144" width="20.066" height="11.894"/>
		<rect x="787.026" y="300.737" fill="#0E2144" width="23.041" height="17.094"/>
		<rect x="720.627" y="300.737" fill="#0E2144" width="23.041" height="17.094"/>
		<rect x="721.307" y="274.598" fill="#0E2144" width="20.068" height="11.894"/>
		<rect x="718.336" y="244.374" fill="#0E2144" width="92.656" height="11.646"/>
		<rect x="781.149" y="290.471" fill="#0E2144" width="33.045" height="5.172"/>
		<rect x="715.946" y="290.471" fill="#0E2144" width="31.666" height="5.172"/>
		<g>
			<path fill="#0E2144" d="M742.788,249.719c0,1.559-1.109,2.822-2.479,2.822l0,0c-1.367,0-2.477-1.265-2.477-2.822v-2.239h4.953
				v2.239H742.788z"/>
			<circle fill="#0E2144" cx="740.309" cy="250.011" r="0.928"/>
		</g>
		<g>
			<path fill="#0E2144" d="M734.649,249.719c0,1.559-1.107,2.822-2.479,2.822l0,0c-1.367,0-2.477-1.265-2.477-2.822v-2.239h4.953
				v2.239H734.649z"/>
			<circle fill="#0E2144" cx="732.172" cy="250.011" r="0.93"/>
		</g>
		<g>
			<path fill="#0E2144" d="M726.51,249.719c0,1.559-1.109,2.822-2.477,2.822l0,0c-1.369,0-2.479-1.265-2.479-2.822v-2.239h4.953
				v2.239H726.51z"/>
			<circle fill="#0E2144" cx="724.034" cy="250.011" r="0.928"/>
		</g>
		<g>
			<path fill="#0E2144" d="M750.928,249.719c0,1.559-1.109,2.822-2.479,2.822l0,0c-1.369,0-2.479-1.265-2.479-2.822v-2.239h4.957
				V249.719L750.928,249.719z"/>
			<circle fill="#0E2144" cx="748.45" cy="250.011" r="0.93"/>
		</g>
		<g>
			<path fill="#0E2144" d="M759.063,249.719c0,1.559-1.107,2.822-2.479,2.822l0,0c-1.367,0-2.477-1.265-2.477-2.822v-2.239h4.953
				v2.239H759.063z"/>
			<circle fill="#0E2144" cx="756.586" cy="250.011" r="0.929"/>
		</g>
		<g>
			<path fill="#0E2144" d="M767.204,249.719c0,1.559-1.109,2.822-2.479,2.822l0,0c-1.367,0-2.479-1.265-2.479-2.822v-2.239h4.957
				V249.719L767.204,249.719z"/>
			<circle fill="#0E2144" cx="764.725" cy="250.011" r="0.929"/>
		</g>
		<g>
			<path fill="#0E2144" d="M775.342,249.719c0,1.559-1.109,2.822-2.477,2.822l0,0c-1.371,0-2.479-1.265-2.479-2.822v-2.239h4.953
				v2.239H775.342z"/>
			<circle fill="#0E2144" cx="772.864" cy="250.011" r="0.929"/>
		</g>
		<g>
			<path fill="#0E2144" d="M783.481,249.719c0,1.559-1.109,2.822-2.479,2.822l0,0c-1.369,0-2.479-1.265-2.479-2.822v-2.239h4.957
				V249.719z"/>
			<circle fill="#0E2144" cx="781.002" cy="250.011" r="0.93"/>
		</g>
		<g>
			<path fill="#0E2144" d="M791.618,249.719c0,1.559-1.109,2.822-2.477,2.822l0,0c-1.369,0-2.477-1.265-2.477-2.822v-2.239h4.953
				V249.719L791.618,249.719z"/>
			<circle fill="#0E2144" cx="789.141" cy="250.011" r="0.928"/>
		</g>
		<g>
			<path fill="#0E2144" d="M799.756,249.719c0,1.559-1.107,2.822-2.477,2.822l0,0c-1.369,0-2.479-1.265-2.479-2.822v-2.239h4.955
				V249.719L799.756,249.719z"/>
			<circle fill="#0E2144" cx="797.28" cy="250.011" r="0.929"/>
		</g>
		<g>
			<path fill="#0E2144" d="M807.897,249.719c0,1.559-1.111,2.822-2.479,2.822l0,0c-1.367,0-2.477-1.265-2.477-2.822v-2.239h4.953
				v2.239H807.897z"/>
			<circle fill="#0E2144" cx="805.418" cy="250.011" r="0.928"/>
		</g>
		<rect x="717.44" y="242.393" fill="#0E2144" width="94.297" height="3.484"/>
		<rect x="781.391" y="324.397" fill="#0E2144" width="32.592" height="1.98"/>
		<rect x="781.391" y="335.051" fill="#0E2144" width="32.592" height="1.981"/>
		<rect x="715.915" y="324.397" fill="#0E2144" width="30.869" height="1.98"/>
		<rect x="715.915" y="335.051" fill="#0E2144" width="30.869" height="1.981"/>
		<rect x="713.131" y="253.602" fill="#0E2144" width="102.816" height="7.176"/>
	</g>
	<g>
		<path fill="#0E2144" d="M830.471,229.469l-1.434-0.776c0,0-2.33,9.483-1.871,10.758l-2.904-1.255c0,0-1.996,9.219-1.871,10.757
			s-1.893-2.052-1.893-2.052l-3.023,7.574c0,0-2.465-7.607-0.359-12.544l-2.389,2.157c0,0,0.281-7.591,4.613-10.739l-3.041-0.055
			c0,0,9.285-14.154,18.131-16.777l1.521,2.618C835.952,219.135,832.184,222.657,830.471,229.469z"/>
		<path fill="#0E2144" d="M835.807,215.176c0,0-8.816-4.784-21.133,1.586l2.594,1.867c0,0-5.115,0.964-7.836,8.147l2.432,0.599
			c0,0-3.59,3.955-3.17,8.384l6.109-6.786l1.289,2.339c0,0,3.445-8.036,5.439-9.056l0.293,2.849
			C821.825,225.104,829.35,216.92,835.807,215.176z"/>
		<polygon fill="#0E2144" points="834.571,215.314 826.924,202.524 825.208,204.153 820.465,197.802 818.713,199.732 
			813.918,196.425 815.618,202.722 814.307,203.484 821.545,206.771 819.76,209.002 		"/>
		<path fill="#0E2144" d="M837.278,215.633c0,0,7.66-0.32,11.643-0.464l-1.785,2.23c0,0,9.199-0.446,13.395,2.791l-3.893,1.982
			c0,0,7.186,1.146,11.645,4.721l-2.619,1.521c0,0,8.158,5.839,9.33,11.463c1.168,5.627,0.158,1.238,0.158,1.238
			s-10.141-4.544-11.646-9.904l-0.988,3.238c0,0-8-4.597-8.215-7.976l-0.848,2.032c0,0-7.133-4.189-7.609-7.906l-0.99,3.238
			C844.854,223.84,837.124,219.578,837.278,215.633z"/>
		<path fill="#0E2144" d="M838.659,214.269c0,0,1.064,11.713,1.758,13.624l-2.338-0.886l3.559,8.652l-3.166-1.591
			c0,0,7.043,7.535,5.648,16.822l-1.541,0.125l-0.172,6.688c0,0-4.32-4.776-5.35-11.605l-0.813,1.732c0,0-2.781-10.084-1.402-16.631
			l-2.424,2.46C832.418,233.662,832.415,218.11,838.659,214.269z"/>
		<path fill="#0E2144" d="M837.508,216.271c0,0,4.084-16.601,30.342-6.503l-1.482,2.266l6.67,2.916l-2.92,1.487l4.287,5.076
			l-10.143-4.546l1.488,2.922l-9.594-6.615l0.621,2.513C856.778,215.786,847.096,212.517,837.508,216.271z"/>
		<path fill="#0E2144" d="M837.879,215.702c0,0,6.189-11.165,12.861-13.432l-1.293-1.98l8.104-1.49l-1.93-1.751
			c0,0,4.74-4.018,9.074-1.983c0,0-13.104-8.065-21.586,2.042C834.959,206.822,835.333,216.625,837.879,215.702z"/>
		<path fill="#0E2144" d="M837.709,216.971c0,0-9.979-4.869-9.35-14.561c0.629-9.689,9.115-12.092,9.115-12.092l-0.314,4.239
			l2.121,0.005l-4.254,5.138l3.939-0.596C838.967,199.105,831.674,209.082,837.709,216.971z"/>
		<path fill="#0E2144" d="M858.239,349.715l-3.16-0.761c0.033-0.146,3.502-15.331,2.414-62.111
			c-1.086-46.54-19.461-66.646-19.646-66.844l2.369-2.225c0.793,0.844,19.414,21.22,20.525,68.993
			C861.844,334.135,858.385,349.102,858.239,349.715z"/>
	</g>
	<g>
		<circle fill="#0E2144" cx="660.215" cy="197.377" r="15.304"/>
		<rect x="662.819" y="209.197" fill="#0E2144" width="1.76" height="71.419"/>
		<rect x="655.784" y="209.197" fill="#0E2144" width="1.758" height="71.419"/>
		<rect x="656.961" y="270.414" fill="#0E2144" width="6.563" height="1.759"/>
		<rect x="656.961" y="261.442" fill="#0E2144" width="6.563" height="1.759"/>
		<rect x="656.961" y="252.472" fill="#0E2144" width="6.563" height="1.758"/>
		<rect x="656.961" y="243.5" fill="#0E2144" width="6.563" height="1.758"/>
		<rect x="656.961" y="234.527" fill="#0E2144" width="6.563" height="1.759"/>
		<rect x="656.961" y="225.557" fill="#0E2144" width="6.563" height="1.76"/>
		<rect x="656.961" y="216.585" fill="#0E2144" width="6.563" height="1.76"/>
		<rect x="658.28" y="164.833" fill="#0E2144" width="4.223" height="20.758"/>
		<rect x="659.221" y="127.188" fill="#0E2144" width="1.639" height="14.425"/>
		
			<rect x="645.42" y="303.698" transform="matrix(0.9215 0.3885 -0.3885 0.9215 177.8187 -225.718)" fill="#0E2144" width="3.459" height="46.441"/>
		
			<rect x="655.542" y="303.712" transform="matrix(0.9863 0.1649 -0.1649 0.9863 62.8901 -103.8825)" fill="#0E2144" width="3.459" height="46.44"/>
		
			<rect x="663.413" y="319.487" transform="matrix(0.7274 0.6863 -0.6863 0.7274 409.0305 -365.3733)" fill="#0E2144" width="1.877" height="25.214"/>
		<polygon fill="#0E2144" points="656.672,341.827 655.049,342.772 646.561,324.516 648.184,323.569 		"/>
		
			<rect x="671.735" y="303.719" transform="matrix(-0.9215 0.3885 -0.3885 -0.9215 1421.0417 366.5896)" fill="#0E2144" width="3.459" height="46.442"/>
		<rect x="655.979" y="216.927" fill="#0E2144" width="7.951" height="0.791"/>
		<rect x="655.979" y="225.944" fill="#0E2144" width="7.951" height="0.791"/>
		<rect x="655.979" y="234.962" fill="#0E2144" width="7.951" height="0.79"/>
		<rect x="655.979" y="243.977" fill="#0E2144" width="7.951" height="0.792"/>
		<rect x="655.979" y="252.994" fill="#0E2144" width="7.951" height="0.792"/>
		<rect x="655.979" y="262.01" fill="#0E2144" width="7.951" height="0.792"/>
		<rect x="655.979" y="271.027" fill="#0E2144" width="7.951" height="0.792"/>
		<circle fill="#0E2144" cx="660.215" cy="293.776" r="16.712"/>
		<rect x="658.86" y="139.854" fill="#0E2144" width="2.359" height="20.758"/>
		<circle fill="#0E2144" cx="660.215" cy="160.787" r="6.508"/>
		<g>
			<g>
				<circle id="SVGID_1_" fill="#0E2144" cx="660.215" cy="197.377" r="15.304"/>
			</g>
			<g>
				<defs>
					<circle id="SVGID_2_" cx="660.215" cy="197.377" r="15.304"/>
				</defs>
				<clipPath id="SVGID_4_">
					<use xlink:href="#SVGID_2_"  overflow="visible"/>
				</clipPath>
				<g clip-path="url(#SVGID_4_)">
					
						<rect x="678.178" y="186.036" transform="matrix(0.7628 -0.6466 0.6466 0.7628 30.5573 486.5485)" fill="#0E2144" width="0.655" height="31.17"/>
					
						<rect x="673.805" y="186.063" transform="matrix(0.7628 -0.6466 0.6466 0.7628 29.5021 483.7274)" fill="#0E2144" width="0.655" height="31.171"/>
					
						<rect x="669.425" y="186.063" transform="matrix(0.7641 -0.6451 0.6451 0.7641 27.9282 479.6626)" fill="#0E2144" width="0.657" height="31.171"/>
					
						<rect x="665.038" y="186.034" transform="matrix(0.7616 -0.6481 0.6481 0.7616 27.9763 479.2828)" fill="#0E2144" width="0.654" height="31.171"/>
					
						<rect x="660.665" y="186.064" transform="matrix(0.7641 -0.6451 0.6451 0.7641 25.8611 474.0114)" fill="#0E2144" width="0.657" height="31.17"/>
					
						<rect x="656.245" y="186.002" transform="matrix(0.7641 -0.6451 0.6451 0.7641 24.8577 471.1455)" fill="#0E2144" width="0.657" height="31.172"/>
					
						<rect x="651.899" y="186.034" transform="matrix(0.7616 -0.6481 0.6481 0.7616 24.8436 470.7679)" fill="#0E2144" width="0.654" height="31.171"/>
					
						<rect x="647.525" y="186.061" transform="matrix(0.7628 -0.6466 0.6466 0.7628 23.2701 466.7346)" fill="#0E2144" width="0.655" height="31.172"/>
					
						<rect x="643.14" y="186.035" transform="matrix(0.7628 -0.6466 0.6466 0.7628 22.2469 463.8925)" fill="#0E2144" width="0.655" height="31.171"/>
					
						<rect x="638.765" y="186.062" transform="matrix(0.7641 -0.6451 0.6451 0.7641 20.6949 459.8822)" fill="#0E2144" width="0.657" height="31.171"/>
				</g>
			</g>
			<g>
				<defs>
					<circle id="SVGID_6_" cx="660.215" cy="197.377" r="15.304"/>
				</defs>
				<clipPath id="SVGID_8_">
					<use xlink:href="#SVGID_6_"  overflow="visible"/>
				</clipPath>
				<g clip-path="url(#SVGID_8_)">
					
						<rect x="638.732" y="186.8" transform="matrix(-0.7636 -0.6457 0.6457 -0.7636 996.3278 769.5852)" fill="#0E2144" width="0.655" height="31.172"/>
					
						<rect x="643.09" y="186.817" transform="matrix(-0.7641 -0.6451 0.6451 -0.7641 1004.4515 772.1481)" fill="#0E2144" width="0.657" height="31.172"/>
					
						<rect x="647.47" y="186.818" transform="matrix(-0.7641 -0.6451 0.6451 -0.7641 1012.1783 774.9729)" fill="#0E2144" width="0.657" height="31.17"/>
					
						<rect x="651.85" y="186.818" transform="matrix(-0.7628 -0.6466 0.6466 -0.7628 1018.7979 778.5044)" fill="#0E2144" width="0.655" height="31.17"/>
					
						<rect x="656.229" y="186.818" transform="matrix(-0.7628 -0.6466 0.6466 -0.7628 1026.5167 781.3367)" fill="#0E2144" width="0.655" height="31.171"/>
					
						<rect x="660.63" y="186.799" transform="matrix(-0.7628 -0.6466 0.6466 -0.7628 1034.2859 784.1494)" fill="#0E2144" width="0.655" height="31.171"/>
					
						<rect x="665.01" y="186.8" transform="matrix(-0.7628 -0.6466 0.6466 -0.7628 1042.0068 786.9814)" fill="#0E2144" width="0.655" height="31.17"/>
					
						<rect x="669.389" y="186.8" transform="matrix(-0.7628 -0.6466 0.6466 -0.7628 1049.7261 789.8129)" fill="#0E2144" width="0.655" height="31.17"/>
					
						<rect x="673.746" y="186.818" transform="matrix(-0.7641 -0.6451 0.6451 -0.7641 1058.5305 791.9275)" fill="#0E2144" width="0.657" height="31.172"/>
					
						<rect x="678.15" y="186.8" transform="matrix(-0.7616 -0.6481 0.6481 -0.7616 1064.0236 796.2233)" fill="#0E2144" width="0.654" height="31.17"/>
				</g>
			</g>
			<g>
				<defs>
					<circle id="SVGID_10_" cx="660.215" cy="197.377" r="15.304"/>
				</defs>
				<clipPath id="SVGID_11_">
					<use xlink:href="#SVGID_10_"  overflow="visible"/>
				</clipPath>
				<rect x="637.17" y="182.099" clip-path="url(#SVGID_11_)" fill="#0E2144" width="44.096" height="1.406"/>
			</g>
			<g>
				<defs>
					<circle id="SVGID_12_" cx="660.215" cy="197.377" r="15.304"/>
				</defs>
				<clipPath id="SVGID_13_">
					<use xlink:href="#SVGID_12_"  overflow="visible"/>
				</clipPath>
				<rect x="637.17" y="189.569" clip-path="url(#SVGID_13_)" fill="#0E2144" width="44.096" height="1.406"/>
			</g>
		</g>
		<g>
			<g>
				<circle id="SVGID_3_" fill="#0E2144" cx="660.215" cy="293.776" r="16.712"/>
			</g>
			<g>
				<defs>
					<circle id="SVGID_14_" cx="660.215" cy="293.776" r="16.712"/>
				</defs>
				<clipPath id="SVGID_15_">
					<use xlink:href="#SVGID_14_"  overflow="visible"/>
				</clipPath>
				<rect x="635.077" y="287.674" clip-path="url(#SVGID_15_)" fill="#0E2144" width="47.916" height="13.14"/>
			</g>
			<g>
				<defs>
					<circle id="SVGID_16_" cx="660.215" cy="293.776" r="16.712"/>
				</defs>
				<clipPath id="SVGID_17_">
					<use xlink:href="#SVGID_16_"  overflow="visible"/>
				</clipPath>
				<rect x="637.17" y="294.034" clip-path="url(#SVGID_17_)" fill="#0E2144" width="44.096" height="1.407"/>
			</g>
		</g>
	</g>
	<g>
		<g>
			<polygon fill="#0E2144" points="190.99,141.89 193.087,147.203 198.55,145.531 195.702,150.483 200.417,153.709 194.771,154.573 
				195.186,160.27 190.99,156.393 186.795,160.27 187.21,154.573 181.563,153.709 186.276,150.483 183.431,145.531 188.892,147.203 
							"/>
			<path fill="#0E2144" d="M187.603,156.825c0,0-0.74-2.033,1.294-4.436c2.032-2.403,0.554-4.067,0.554-4.067
				s4.988,2.959,3.511,7.578"/>
			<rect x="175.614" y="270.17" fill="#0E2144" width="43.24" height="5.71"/>
			<rect x="178.918" y="265.111" fill="#0E2144" width="36.587" height="5.358"/>
			<path fill="#0E2144" d="M212.365,265.729c0,0,0.491-17.248-0.123-18.728c0,0-0.247-0.493,1.23-0.984
				c1.479-0.493,0.493-3.327,0.369-4.189c-0.122-0.861-0.122-1.973,1.11-2.218c1.231-0.245,1.231-0.245,1.231-0.245
				s-1.848-19.959-3.202-24.888c-1.355-4.927,2.954-4.806,3.448-4.806c0,0,4.066-2.217,4.436-4.68
				c0.369-2.465,0.862-4.559,1.479-4.559c0.615,0,0.861-2.835-1.603-2.835c-2.464,0-8.376-0.122-9.732,1.232
				c-1.355,1.355-2.588,2.096-2.341,0.124c0.248-1.973,0.37-8.749-3.572-10.473c-3.941-1.726-3.819-3.821-3.326-4.189
				s0.863-1.479,2.094-0.736c1.232,0.736,3.328,2.71,3.943,2.463c0.614-0.246-1.946-2.142-4.066-4.684
				c-1.231-1.478,1.355-1.601,1.355-1.601s5.422-1.108,5.297-1.725c-0.122-0.617-5.05,0.615-5.789,0.491
				c-0.74-0.123-1.478-1.479-0.122-2.956c1.354-1.478,4.804-5.175,4.804-5.175s0.246-1.231-0.617-0.493
				c-0.861,0.74-6.283,5.053-6.651,4.932c-0.371-0.124-0.123-8.996-0.123-8.996s-0.739-1.23-1.725,5.546c0,0-0.863,3.08-1.725,1.848
				c-0.76-1.087-1.479-7.269-1.973-7.269c-0.491,0-0.245,7.885-1.108,8.623c-0.862,0.738-1.268-0.104-1.724,0.493
				c-1.172,1.532-1.172-10.017-0.368-12.813c0.6-0.139,1.354-4.681,0.368-6.777c-0.987-2.094-2.588,1.233-3.573,0.616
				c-0.984-0.616-3.08-2.341-3.325-0.983c-0.248,1.354-0.397,6.967,1.352,6.967c0.51,7.861,0.127,22.105-1.352,24.815
				c0,0-2.097,3.941-0.738,7.392c1.354,3.45-0.248,3.326,0.983,4.436c1.233,1.108,1.602,3.078,0.739,4.189
				c-0.863,1.107-1.971,5.912,0.123,7.392c2.095,1.479-0.369,3.695-0.369,3.695s-2.342,3.818-0.738,5.543
				c1.601,1.725,2.586,2.588,2.341,6.652c-0.247,4.065,0.614,6.53-1.356,8.87c-1.971,2.342-0.615,3.819-0.615,3.819
				s-0.987,5.052-1.973,7.637c-0.985,2.589-3.941,15.276-4.188,18.974"/>
			<rect x="170.416" y="274.566" fill="#0E2144" width="54.329" height="5.358"/>
		</g>
		<rect x="165.336" y="332.062" fill="#0E2144" width="66.543" height="10.003"/>
		<polygon fill="#0E2144" points="221.562,322.1 174.076,322.1 179.295,315.575 218.081,315.575 		"/>
		<rect x="178.819" y="284.656" fill="#0E2144" width="39.577" height="31.749"/>
		<rect x="184.907" y="291.614" fill="#0E2144" width="3.914" height="16.962"/>
		<rect x="196.216" y="291.614" fill="#0E2144" width="3.913" height="16.962"/>
		<rect x="207.523" y="291.614" fill="#0E2144" width="3.913" height="16.962"/>
		<rect x="178.819" y="284.656" opacity="0.2" fill="#0E2144" enable-background="new    " width="39.577" height="2.613"/>
		<rect x="178.819" y="313.662" opacity="0.2" fill="#0E2144" enable-background="new    " width="39.577" height="2.611"/>
		<rect x="172.729" y="322.059" fill="#0E2144" width="50.45" height="10.003"/>
		<rect x="174.47" y="279.872" fill="#0E2144" width="47.84" height="4.784"/>
		<rect x="174.47" y="279.872" opacity="0.2" fill="#0E2144" enable-background="new    " width="47.84" height="1.634"/>
		<rect x="175.614" y="270.17" opacity="0.2" fill="#0E2144" enable-background="new    " width="43.24" height="1.334"/>
		<rect x="205.942" y="237.312" fill="#0E2144" width="2.625" height="27.822"/>
		<rect x="199.118" y="239.937" fill="#0E2144" width="2.625" height="25.197"/>
		<rect x="192.293" y="239.937" fill="#0E2144" width="2.625" height="25.197"/>
		<rect x="187.021" y="239.937" fill="#0E2144" width="1.354" height="25.197"/>
		<path fill="#0E2144" d="M189.842,211.587c0,0,11.2-6.649,15.751-19.25C205.593,192.337,206.642,207.386,189.842,211.587z"/>
		<path fill="#0E2144" d="M189.842,201.438c0,0,10.15,1.75,14.7-10.851C204.542,190.588,201.392,196.537,189.842,201.438z"/>
		<path fill="#0E2144" d="M189.843,219.635c0,0,15.05-3.497,17.149-25.897C206.992,193.737,208.042,220.687,189.843,219.635z"/>
		<path fill="#0E2144" d="M209.442,202.139c0,0,2.101,2.799,3.149,2.799c1.051,0,8.399-4.551,8.399-4.551
			S211.191,214.036,209.442,202.139z"/>
		<path fill="#0E2144" d="M188.793,239.586c0,0,18.899,0.352,24.499-5.949C213.292,233.636,211.191,242.735,188.793,239.586z"/>
		<path fill="#0E2144" d="M196.144,175.189c-0.514,0.105,7.174-0.176,5.949,6.824C202.093,182.014,204.543,173.438,196.144,175.189z
			"/>
		<path fill="#0E2144" d="M187.043,188.139c-0.755,0.202,5.6-4.374,5.95-11.9C192.993,176.238,193.517,186.388,187.043,188.139z"/>
		<rect x="198.962" y="180.036" fill="#0E2144" width="2.237" height="0.67"/>
		<rect x="197.62" y="180.11" fill="#0E2144" width="0.671" height="3.132"/>
		<rect x="195.384" y="180.036" fill="#0E2144" width="2.945" height="0.67"/>
	</g>
	<g>
		<g>
			<rect x="431.407" y="320.782" fill="#0E2144" width="2.35" height="28.918"/>
			<rect x="411.887" y="320.782" fill="#0E2144" width="2.351" height="28.918"/>
			<rect x="392.366" y="320.782" fill="#0E2144" width="2.35" height="28.918"/>
			<rect x="411.995" y="314.635" fill="#0E2144" width="1.954" height="7.052"/>
			<rect x="390.954" y="319.516" fill="#0E2144" width="43.6" height="2.17"/>
			<path fill="#0E2144" d="M392.908,293.309c0,0,6.688,8.676,7.049,13.375h26.751c0,0,0.903-9.22,7.41-13.196L392.908,293.309z"/>
			<rect x="430.983" y="345.428" fill="#0E2144" width="3.377" height="4.713"/>
			<rect x="411.337" y="345.428" fill="#0E2144" width="3.377" height="4.713"/>
			<rect x="391.69" y="345.428" fill="#0E2144" width="3.378" height="4.713"/>
			<path fill="#0E2144" d="M383.229,286.149c0,0,3.896,9.375,13.477,9.556s34.342,0,34.342,0s5.851,0.278,11.633-9.12
				c0,0,1.04-2.033,0.499-1.556c-2.278,2.008-10.161,8.456-21.35,3.085c-4.52-2.17-5.604-4.881-5.604-4.881
				s-0.181-3.073-2.351-3.073c0,0,0.542-5.241-1.084-5.241c-1.627,0-1.265,4.88-1.265,4.88s-1.989,0.361-1.989,4.158
				c0,0-5.784,6.688-14.821,6.688c-5.291,0-8.498-1.633-11.425-5.43C382.392,284.048,383.229,286.149,383.229,286.149z"/>
			<path fill="#0E2144" d="M382.967,284.813c0,0,4.158,9.219,13.737,9.398c9.58,0.181,34.342,0,34.342,0s6.326,0.181,12.109-9.219
				c0,0-7.478,8.274-21.327,1.627c-4.52-2.169-5.604-4.881-5.604-4.881s-0.181-3.073-2.351-3.073c0,0,0.542-5.241-1.084-5.241
				c-1.627,0-1.265,4.881-1.265,4.881s-1.989,0.36-1.989,4.157c0,0-5.784,6.688-14.821,6.688S382.967,284.813,382.967,284.813z"/>
			<g>
				<g>
					<path id="SVGID_5_" fill="#0E2144" d="M382.967,284.813c0,0,4.158,9.219,13.737,9.398c9.58,0.181,34.342,0,34.342,0
						s6.326,0.181,12.109-9.219c0,0-7.478,8.274-21.327,1.627c-4.52-2.169-5.604-4.881-5.604-4.881s-0.181-3.073-2.351-3.073
						c0,0,0.542-5.241-1.084-5.241c-1.627,0-1.265,4.881-1.265,4.881s-1.989,0.36-1.989,4.157c0,0-5.784,6.688-14.821,6.688
						S382.967,284.813,382.967,284.813z"/>
				</g>
				<g>
					<defs>
						<path id="SVGID_18_" d="M382.967,284.813c0,0,4.158,9.219,13.737,9.398c9.58,0.181,34.342,0,34.342,0
							s6.326,0.181,12.109-9.219c0,0-7.478,8.274-21.327,1.627c-4.52-2.169-5.604-4.881-5.604-4.881s-0.181-3.073-2.351-3.073
							c0,0,0.542-5.241-1.084-5.241c-1.627,0-1.265,4.881-1.265,4.881s-1.989,0.36-1.989,4.157c0,0-5.784,6.688-14.821,6.688
							S382.967,284.813,382.967,284.813z"/>
					</defs>
					<clipPath id="SVGID_19_">
						<use xlink:href="#SVGID_18_"  overflow="visible"/>
					</clipPath>
					<g clip-path="url(#SVGID_19_)">
						<rect x="382.987" y="265.893" fill="#0E2144" width="0.623" height="36.496"/>
						<rect x="385.523" y="265.893" fill="#0E2144" width="0.623" height="36.496"/>
						<rect x="388.06" y="265.893" fill="#0E2144" width="0.624" height="36.496"/>
						<rect x="390.596" y="265.893" fill="#0E2144" width="0.623" height="36.496"/>
						<rect x="393.132" y="265.893" fill="#0E2144" width="0.622" height="36.496"/>
						<rect x="395.668" y="265.893" fill="#0E2144" width="0.622" height="36.496"/>
						<rect x="398.204" y="265.893" fill="#0E2144" width="0.623" height="36.496"/>
						<rect x="400.74" y="265.893" fill="#0E2144" width="0.622" height="36.496"/>
						<rect x="403.275" y="265.893" fill="#0E2144" width="0.623" height="36.496"/>
						<rect x="405.813" y="265.893" fill="#0E2144" width="0.622" height="36.496"/>
						<rect x="408.349" y="265.893" fill="#0E2144" width="0.622" height="36.496"/>
						<rect x="410.884" y="265.893" fill="#0E2144" width="0.623" height="36.496"/>
						<rect x="413.42" y="265.893" fill="#0E2144" width="0.623" height="36.496"/>
						<rect x="415.956" y="265.893" fill="#0E2144" width="0.623" height="36.496"/>
						<rect x="418.493" y="265.893" fill="#0E2144" width="0.621" height="36.496"/>
						<rect x="421.028" y="265.893" fill="#0E2144" width="0.623" height="36.496"/>
						<rect x="423.564" y="265.893" fill="#0E2144" width="0.621" height="36.496"/>
						<rect x="426.101" y="265.893" fill="#0E2144" width="0.623" height="36.496"/>
						<rect x="428.636" y="265.893" fill="#0E2144" width="0.623" height="36.496"/>
						<rect x="431.172" y="265.893" fill="#0E2144" width="0.622" height="36.496"/>
						<rect x="433.708" y="265.893" fill="#0E2144" width="0.623" height="36.496"/>
						<rect x="436.244" y="265.893" fill="#0E2144" width="0.622" height="36.496"/>
						<rect x="438.78" y="265.893" fill="#0E2144" width="0.623" height="36.496"/>
						<rect x="441.316" y="265.893" fill="#0E2144" width="0.623" height="36.496"/>
					</g>
				</g>
			</g>
			<rect x="389.943" y="314.635" fill="#0E2144" width="4.846" height="7.052"/>
			<rect x="431.333" y="314.635" fill="#0E2144" width="4.848" height="7.052"/>
			<path fill="#0E2144" d="M375.759,305.665c0,0,5.039,10.732,14.077,10.732c9.037,0,48.079,0,48.079,0s9.211-0.548,12.465-11.394
				c0,0,0.41-1.435,0.268-1.113c-1.493,3.36-6.523,6.457-13.455,6.723c-9.398,0.363-10.483-2.53-10.483-2.53h-26.751
				c0,0-3.253,3.253-11.566,2.53c-6.109-0.531-11.127-5.33-13.006-6.816C374.708,303.261,375.759,305.665,375.759,305.665z"/>
			<path fill="#0E2144" d="M375.015,303.43c0,0,5.783,11.566,14.821,11.566c9.037,0,48.079,0,48.079,0s9.397-0.362,12.651-11.206
				c0,0-0.366,4.922-13.375,5.422c-9.398,0.362-10.483-2.528-10.483-2.528h-26.751c0,0-3.253,3.252-11.566,2.528
				C380.075,308.489,375.015,303.43,375.015,303.43z"/>
			<g>
				<g>
					<path id="SVGID_7_" fill="#0E2144" d="M375.015,303.43c0,0,5.783,11.566,14.821,11.566c9.037,0,48.079,0,48.079,0
						s9.397-0.362,12.651-11.206c0,0-0.366,4.922-13.375,5.422c-9.398,0.362-10.483-2.528-10.483-2.528h-26.751
						c0,0-3.253,3.252-11.566,2.528C380.075,308.489,375.015,303.43,375.015,303.43z"/>
				</g>
				<g>
					<defs>
						<path id="SVGID_20_" d="M375.015,303.43c0,0,5.783,11.566,14.821,11.566c9.037,0,48.079,0,48.079,0s9.397-0.362,12.651-11.206
							c0,0-0.366,4.922-13.375,5.422c-9.398,0.362-10.483-2.528-10.483-2.528h-26.751c0,0-3.253,3.252-11.566,2.528
							C380.075,308.489,375.015,303.43,375.015,303.43z"/>
					</defs>
					<clipPath id="SVGID_21_">
						<use xlink:href="#SVGID_20_"  overflow="visible"/>
					</clipPath>
					<g clip-path="url(#SVGID_21_)">
						<g>
							<g>
								<rect x="376.019" y="290.182" fill="#0E2144" width="0.621" height="36.497"/>
							</g>
							<g>
								<rect x="378.554" y="290.182" fill="#0E2144" width="0.622" height="36.497"/>
							</g>
							<g>
								<rect x="381.089" y="290.182" fill="#0E2144" width="0.623" height="36.497"/>
							</g>
							<g>
								<rect x="383.626" y="290.182" fill="#0E2144" width="0.622" height="36.497"/>
							</g>
							<g>
								<rect x="386.161" y="290.182" fill="#0E2144" width="0.623" height="36.497"/>
							</g>
							<g>
								<rect x="388.696" y="290.182" fill="#0E2144" width="0.623" height="36.497"/>
							</g>
							<g>
								<rect x="391.233" y="290.182" fill="#0E2144" width="0.623" height="36.497"/>
							</g>
							<g>
								<rect x="393.77" y="290.182" fill="#0E2144" width="0.622" height="36.497"/>
							</g>
							<g>
								<rect x="396.306" y="290.182" fill="#0E2144" width="0.623" height="36.497"/>
							</g>
							<g>
								<rect x="398.841" y="290.182" fill="#0E2144" width="0.623" height="36.497"/>
							</g>
							<g>
								<rect x="401.377" y="290.182" fill="#0E2144" width="0.623" height="36.497"/>
							</g>
							<g>
								<rect x="403.913" y="290.182" fill="#0E2144" width="0.623" height="36.497"/>
							</g>
							<g>
								<rect x="406.449" y="290.182" fill="#0E2144" width="0.622" height="36.497"/>
							</g>
							<g>
								<rect x="408.985" y="290.182" fill="#0E2144" width="0.623" height="36.497"/>
							</g>
							<g>
								<rect x="411.522" y="290.182" fill="#0E2144" width="0.621" height="36.497"/>
							</g>
							<g>
								<rect x="414.058" y="290.182" fill="#0E2144" width="0.623" height="36.497"/>
							</g>
							<g>
								<rect x="416.594" y="290.182" fill="#0E2144" width="0.622" height="36.497"/>
							</g>
							<g>
								<rect x="419.129" y="290.182" fill="#0E2144" width="0.623" height="36.497"/>
							</g>
							<g>
								<rect x="421.666" y="290.182" fill="#0E2144" width="0.622" height="36.497"/>
							</g>
							<g>
								<rect x="424.202" y="290.182" fill="#0E2144" width="0.622" height="36.497"/>
							</g>
							<g>
								<rect x="426.737" y="290.182" fill="#0E2144" width="0.623" height="36.497"/>
							</g>
							<g>
								<rect x="429.272" y="290.182" fill="#0E2144" width="0.624" height="36.497"/>
							</g>
							<g>
								<rect x="431.811" y="290.182" fill="#0E2144" width="0.622" height="36.497"/>
							</g>
							<g>
								<rect x="434.346" y="290.182" fill="#0E2144" width="0.622" height="36.497"/>
							</g>
						</g>
					</g>
				</g>
				<g>
					<defs>
						<path id="SVGID_22_" d="M375.015,303.43c0,0,5.783,11.566,14.821,11.566c9.037,0,48.079,0,48.079,0s9.397-0.362,12.651-11.206
							c0,0-0.366,4.922-13.375,5.422c-9.398,0.362-10.483-2.528-10.483-2.528h-26.751c0,0-3.253,3.252-11.566,2.528
							C380.075,308.489,375.015,303.43,375.015,303.43z"/>
					</defs>
					<clipPath id="SVGID_23_">
						<use xlink:href="#SVGID_22_"  overflow="visible"/>
					</clipPath>
					<g clip-path="url(#SVGID_23_)">
						<g>
							<g>
								<rect x="436.737" y="290.182" fill="#0E2144" width="0.623" height="36.497"/>
							</g>
							<g>
								<rect x="439.273" y="290.182" fill="#0E2144" width="0.623" height="36.497"/>
							</g>
							<g>
								<rect x="441.81" y="290.182" fill="#0E2144" width="0.623" height="36.497"/>
							</g>
							<g>
								<rect x="444.346" y="290.182" fill="#0E2144" width="0.622" height="36.497"/>
							</g>
							<g>
								<rect x="446.883" y="290.182" fill="#0E2144" width="0.622" height="36.497"/>
							</g>
							<g>
								<rect x="449.418" y="290.182" fill="#0E2144" width="0.623" height="36.497"/>
							</g>
							<g>
								<rect x="451.954" y="290.182" fill="#0E2144" width="0.623" height="36.497"/>
							</g>
							<g>
								<rect x="454.491" y="290.182" fill="#0E2144" width="0.621" height="36.497"/>
							</g>
							<g>
								<rect x="457.026" y="290.182" fill="#0E2144" width="0.622" height="36.497"/>
							</g>
							<g>
								<rect x="459.563" y="290.182" fill="#0E2144" width="0.622" height="36.497"/>
							</g>
							<g>
								<rect x="462.099" y="290.182" fill="#0E2144" width="0.623" height="36.497"/>
							</g>
							<g>
								<rect x="464.634" y="290.182" fill="#0E2144" width="0.623" height="36.497"/>
							</g>
							<g>
								<rect x="467.17" y="290.182" fill="#0E2144" width="0.623" height="36.497"/>
							</g>
							<g>
								<rect x="469.706" y="290.182" fill="#0E2144" width="0.623" height="36.497"/>
							</g>
							<g>
								<rect x="472.243" y="290.182" fill="#0E2144" width="0.623" height="36.497"/>
							</g>
							<g>
								<rect x="474.778" y="290.182" fill="#0E2144" width="0.623" height="36.497"/>
							</g>
							<g>
								<rect x="477.313" y="290.182" fill="#0E2144" width="0.623" height="36.497"/>
							</g>
							<g>
								<rect x="479.85" y="290.182" fill="#0E2144" width="0.623" height="36.497"/>
							</g>
							<g>
								<rect x="482.387" y="290.182" fill="#0E2144" width="0.621" height="36.497"/>
							</g>
							<g>
								<rect x="484.922" y="290.182" fill="#0E2144" width="0.623" height="36.497"/>
							</g>
							<g>
								<rect x="487.458" y="290.182" fill="#0E2144" width="0.623" height="36.497"/>
							</g>
							<g>
								<rect x="489.995" y="290.182" fill="#0E2144" width="0.623" height="36.497"/>
							</g>
							<g>
								<rect x="492.53" y="290.182" fill="#0E2144" width="0.623" height="36.497"/>
							</g>
							<g>
								<rect x="495.067" y="290.182" fill="#0E2144" width="0.621" height="36.497"/>
							</g>
						</g>
					</g>
				</g>
			</g>
		</g>
		<rect x="401.305" y="297.079" fill="#0E2144" width="2.29" height="6.695"/>
		<rect x="405.532" y="297.079" fill="#0E2144" width="2.289" height="6.695"/>
		<rect x="409.76" y="297.079" fill="#0E2144" width="2.29" height="6.695"/>
		<rect x="413.987" y="297.079" fill="#0E2144" width="2.29" height="6.695"/>
		<rect x="418.216" y="297.079" fill="#0E2144" width="2.29" height="6.695"/>
		<rect x="422.443" y="297.079" fill="#0E2144" width="2.291" height="6.695"/>
	</g>
	<g>
		<rect x="469.887" y="344.133" fill="#0E2144" width="109.023" height="2.039"/>
		<rect x="472.381" y="342.772" fill="#0E2144" width="104.49" height="2.04"/>
		<rect x="475.1" y="341.121" fill="#0E2144" width="99.051" height="2.039"/>
		<rect x="477.368" y="339.342" fill="#0E2144" width="93.838" height="2.042"/>
		<rect x="479.633" y="337.271" fill="#0E2144" width="89.078" height="2.041"/>
		<polygon fill="#0E2144" points="482.34,307.854 488.575,307.854 488.848,336.713 481.887,336.713 		"/>
		<rect x="480.997" y="303.062" fill="#0E2144" width="86.355" height="2.806"/>
		<rect x="480.088" y="299.495" fill="#0E2144" width="88.623" height="3.913"/>
		<polygon fill="#0E2144" points="479.928,299.392 523.217,285.565 569.004,299.618 		"/>
		<polygon fill="#0E2144" points="497.319,296.703 523.235,288.427 550.641,296.84 		"/>
		<path fill="#0E2144" d="M480.917,305.774v1.059c0,0-0.23,1.134,3.248,1.134c3.475,0,5.363,0.452,5.816-1.435v-0.758H480.917z"/>
		<polygon fill="#0E2144" points="496.7,307.854 502.934,307.854 503.206,336.713 496.247,336.713 		"/>
		<path fill="#0E2144" d="M495.272,305.774v1.059c0,0-0.227,1.134,3.25,1.134s5.363,0.452,5.816-1.435v-0.758H495.272z"/>
		<polygon fill="#0E2144" points="513.17,307.854 519.403,307.854 519.676,336.713 512.715,336.713 		"/>
		<path fill="#0E2144" d="M511.743,305.774v1.059c0,0-0.227,1.134,3.248,1.134c3.479,0,5.365,0.452,5.82-1.435v-0.758H511.743z"/>
		<polygon fill="#0E2144" points="529.641,307.854 535.872,307.854 536.147,336.713 529.188,336.713 		"/>
		<path fill="#0E2144" d="M528.215,305.774v1.059c0,0-0.227,1.134,3.248,1.134c3.477,0,5.365,0.452,5.816-1.435v-0.758H528.215z"/>
		<polygon fill="#0E2144" points="546.112,307.854 552.344,307.854 552.616,336.713 545.659,336.713 		"/>
		<path fill="#0E2144" d="M544.684,305.774v1.059c0,0-0.227,1.134,3.248,1.134c3.479,0,5.365,0.452,5.818-1.435v-0.758H544.684z"/>
		<polygon fill="#0E2144" points="559.766,307.854 565.997,307.854 566.274,336.713 559.313,336.713 		"/>
		<path fill="#0E2144" d="M558.34,305.774v1.059c0,0-0.227,1.134,3.248,1.134c3.477,0,5.363,0.452,5.82-1.435v-0.758H558.34z"/>
		<rect x="481.415" y="335.315" fill="#0E2144" width="8.01" height="2.041"/>
		<rect x="495.774" y="335.315" fill="#0E2144" width="8.01" height="2.041"/>
		<rect x="512.245" y="335.315" fill="#0E2144" width="8.01" height="2.041"/>
		<rect x="528.715" y="335.315" fill="#0E2144" width="8.01" height="2.041"/>
		<rect x="545.186" y="335.315" fill="#0E2144" width="8.008" height="2.041"/>
		<rect x="558.84" y="335.315" fill="#0E2144" width="8.01" height="2.041"/>
	</g>
	<g>
		<path fill="#0E2144" d="M150.554,336.163c-0.456-0.506-45.672-51.26-48.68-116.24l1.998-0.092
			c2.976,64.272,47.714,114.491,48.166,114.99L150.554,336.163z"/>
		<path fill="#0E2144" d="M31.586,336.163l-1.484-1.341c0.452-0.5,45.192-50.743,48.165-114.991l1.998,0.092
			C77.259,284.903,32.042,335.657,31.586,336.163z"/>
		<rect x="90.472" y="215.641" fill="#0E2144" width="1" height="119.248"/>
		<path fill="#0E2144" d="M102.492,208.58l-22.381-0.161l1.096-28.688h19.721L102.492,208.58z M81.15,207.427l20.285,0.146
			l-1.455-26.841H82.17L81.15,207.427z"/>
		<path fill="#0E2144" d="M91.375,208.02c-0.138,0-0.25-0.112-0.25-0.25v-27.538c0-0.139,0.112-0.25,0.25-0.25s0.25,0.111,0.25,0.25
			v27.538C91.625,207.907,91.513,208.02,91.375,208.02z"/>
		<path fill="#0E2144" d="M100.755,189.711H81.537c-0.138,0-0.25-0.111-0.25-0.25c0-0.138,0.112-0.25,0.25-0.25h19.218
			c0.138,0,0.25,0.112,0.25,0.25C101.005,189.599,100.893,189.711,100.755,189.711z"/>
		<path fill="#0E2144" d="M100.755,198.489H81.537c-0.138,0-0.25-0.112-0.25-0.25s0.112-0.25,0.25-0.25h19.218
			c0.138,0,0.25,0.112,0.25,0.25S100.893,198.489,100.755,198.489z"/>
		<path fill="#0E2144" d="M99.165,153.493H82.677l1.257-27.646l13.663,0.326L99.165,153.493z M83.724,152.493h14.383l-1.455-25.34
			l-11.763-0.282L83.724,152.493z"/>
		<path fill="#0E2144" d="M90.768,152.94c-0.138,0-0.25-0.112-0.25-0.25v-26.026c0-0.138,0.112-0.25,0.25-0.25
			c0.138,0,0.25,0.112,0.25,0.25v26.026C91.018,152.828,90.905,152.94,90.768,152.94z"/>
		<path fill="#0E2144" d="M98.333,144.92H83.656c-0.138,0-0.25-0.111-0.25-0.25c0-0.138,0.112-0.25,0.25-0.25h14.677
			c0.138,0,0.25,0.112,0.25,0.25C98.583,144.808,98.471,144.92,98.333,144.92z"/>
		<path fill="#0E2144" d="M97.576,135.385H84.262c-0.138,0-0.25-0.111-0.25-0.25c0-0.138,0.112-0.25,0.25-0.25h13.314
			c0.138,0,0.25,0.112,0.25,0.25C97.826,135.274,97.714,135.385,97.576,135.385z"/>
		<path fill="#0E2144" d="M83.796,144.621c-0.079,0-0.157-0.038-0.206-0.107c-0.078-0.113-0.05-0.271,0.064-0.349L96.957,135
			l-12.694-7.97c-0.117-0.073-0.152-0.229-0.079-0.345c0.074-0.118,0.23-0.15,0.345-0.079l13.017,8.172
			c0.071,0.045,0.115,0.122,0.117,0.207c0.002,0.084-0.039,0.163-0.108,0.211l-13.616,9.381
			C83.895,144.606,83.845,144.621,83.796,144.621z"/>
		<path fill="#0E2144" d="M91.372,208.023c-0.06,0-0.119-0.021-0.167-0.063l-10.289-9.229c-0.052-0.047-0.082-0.113-0.083-0.185
			c-0.001-0.07,0.028-0.138,0.079-0.186l9.962-9.331l-9.203-8.157c-0.104-0.092-0.112-0.25-0.021-0.354
			c0.092-0.104,0.249-0.113,0.354-0.021l9.237,8.188l8.736-8.185c0.1-0.093,0.258-0.09,0.354,0.013
			c0.094,0.101,0.089,0.259-0.012,0.354l-8.702,8.151l10.361,9.185c0.053,0.048,0.084,0.115,0.084,0.188
			c0,0.071-0.03,0.14-0.083,0.187L91.54,207.96C91.491,208.002,91.432,208.023,91.372,208.023z M81.453,198.539l9.919,8.898
			l10.064-9.046l-10.188-9.029L81.453,198.539z"/>
		<path fill="#0E2144" d="M80.626,207.57c-0.069,0-0.138-0.028-0.187-0.084c-0.092-0.104-0.083-0.262,0.021-0.354l20.072-17.827
			l-9.032-8.591c-0.101-0.096-0.104-0.254-0.01-0.354c0.096-0.101,0.254-0.104,0.354-0.01l9.229,8.776
			c0.051,0.049,0.079,0.116,0.078,0.187c-0.001,0.069-0.031,0.137-0.084,0.183l-20.275,18.009
			C80.744,207.55,80.686,207.57,80.626,207.57z"/>
		<path fill="#0E2144" d="M101.963,207.57c-0.06,0-0.119-0.021-0.167-0.063l-20.581-18.462c-0.054-0.049-0.084-0.117-0.083-0.188
			c0.001-0.072,0.032-0.141,0.087-0.188l9.533-8.174c0.106-0.091,0.264-0.078,0.353,0.026c0.09,0.104,0.078,0.263-0.026,0.353
			l-9.317,7.988l20.369,18.271c0.103,0.094,0.111,0.251,0.02,0.354C102.1,207.542,102.031,207.57,101.963,207.57z"/>
		<rect x="77.602" y="232.093" fill="#0E2144" width="26.783" height="1"/>
		<rect x="75.482" y="244.652" fill="#0E2144" width="30.416" height="1"/>
		<rect x="72.909" y="257.213" fill="#0E2144" width="36.318" height="1"/>
		<rect x="68.976" y="269.773" fill="#0E2144" width="44.49" height="1"/>
		<rect x="64.135" y="282.334" fill="#0E2144" width="54.175" height="1"/>
		<rect x="57.625" y="294.896" fill="#0E2144" width="67.039" height="1"/>
		<path fill="#0E2144" d="M98.018,144.926c-0.049,0-0.099-0.015-0.142-0.044l-13.622-9.384c-0.068-0.047-0.109-0.125-0.108-0.208
			c0.001-0.082,0.042-0.159,0.11-0.206l12.876-8.628c0.114-0.076,0.27-0.046,0.348,0.068c0.076,0.115,0.046,0.271-0.068,0.348
			l-12.57,8.423l13.318,9.175c0.114,0.078,0.143,0.234,0.064,0.349C98.175,144.888,98.097,144.926,98.018,144.926z"/>
		<path fill="#0E2144" d="M98.927,153.401c-0.039,0-0.078-0.009-0.115-0.028l-15.131-7.87c-0.123-0.063-0.17-0.215-0.106-0.337
			c0.063-0.123,0.215-0.17,0.337-0.105l15.131,7.87c0.123,0.063,0.17,0.215,0.106,0.337
			C99.104,153.353,99.017,153.401,98.927,153.401z"/>
		<path fill="#0E2144" d="M82.884,153.401c-0.09,0-0.178-0.049-0.222-0.135c-0.063-0.122-0.017-0.273,0.106-0.337l15.134-7.87
			c0.122-0.064,0.274-0.018,0.337,0.105c0.063,0.122,0.017,0.273-0.106,0.337l-15.134,7.87
			C82.962,153.393,82.923,153.401,82.884,153.401z"/>
		<path fill="#0E2144" d="M96.831,335.379l-2-0.051c0.05-2.12,6.91-17.548,14.286-24.247c2.443-2.219,4.741-3.271,6.831-3.115
			c13.349,0.97,28.558,25.285,29.199,26.32l-1.7,1.053c-0.152-0.243-15.309-24.482-27.644-25.379
			c-1.455-0.096-3.174,0.696-5.098,2.385C103.643,318.541,96.927,333.712,96.831,335.379z"/>
		<path fill="#0E2144" d="M84.87,335.375c-0.252-10.825-2.467-17.985-6.77-21.895c-2.982-2.708-7.09-3.89-12.205-3.521
			c-12.34,0.896-27.49,25.136-27.642,25.379l-1.701-1.053c0.642-1.035,15.852-25.352,29.198-26.32
			c5.681-0.414,10.291,0.942,13.694,4.034c4.729,4.296,7.158,11.927,7.425,23.328L84.87,335.375z"/>
		<polygon fill="#0E2144" points="107.414,207.77 74.426,207.77 76.241,220.182 105.597,220.182 		"/>
		<path fill="#0E2144" d="M100.983,180.889l-19.826-0.161l1.57-28.234h16.376L100.983,180.889z M82.214,179.735l17.701,0.146
			l-1.747-26.388H83.673L82.214,179.735z"/>
		<rect x="82.138" y="171.537" fill="#0E2144" width="17.707" height="0.75"/>
		<rect x="83.045" y="162.306" fill="#0E2144" width="16.193" height="0.75"/>
		<rect x="90.691" y="153.298" fill="#0E2144" width="0.75" height="27.087"/>
		
			<rect x="90.07" y="149.974" transform="matrix(-0.7476 -0.6642 0.6642 -0.7476 50.1118 344.0839)" fill="#0E2144" width="0.75" height="25.09"/>
		
			<rect x="90.239" y="158.74" transform="matrix(-0.7068 -0.7074 0.7074 -0.7068 33.5796 356.2233)" fill="#0E2144" width="0.751" height="24.825"/>
		
			<rect x="79.042" y="162.229" transform="matrix(-0.6666 -0.7454 0.7454 -0.6666 31.3358 339.2235)" fill="#0E2144" width="24.971" height="0.75"/>
		
			<rect x="79.228" y="171.229" transform="matrix(-0.7162 -0.6979 0.6979 -0.7162 37.4187 358.4251)" fill="#0E2144" width="24.72" height="0.75"/>
		<polygon fill="#0E2144" points="83.179,162.927 82.614,162.435 91.223,152.568 99.525,162.439 98.951,162.922 91.213,153.721 		
			"/>
		<polygon fill="#0E2144" points="91.211,179.957 82.053,172.349 82.531,171.772 91.225,178.992 99.462,172.523 99.925,173.113 		
			"/>
		<rect x="84.262" y="116.902" fill="#0E2144" width="12.557" height="0.75"/>
		<rect x="85.168" y="107.674" fill="#0E2144" width="10.745" height="0.75"/>
		<path fill="#0E2144" d="M97.809,127.177l-13.919-0.329l1.252-28.981h10.633L97.809,127.177z M84.933,125.872l11.802,0.279
			l-1.894-27.286h-8.742L84.933,125.872z"/>
		<rect x="90.341" y="97.332" fill="#0E2144" width="0.75" height="29.332"/>
		<polygon fill="#0E2144" points="84.633,126.662 84.189,126.057 96.199,117.266 84.598,108.075 95.049,98.094 95.566,98.637 
			85.738,108.022 97.438,117.289 		"/>
		<polygon fill="#0E2144" points="97.039,126.959 84.745,117.273 95.354,108.038 85.363,98.639 85.877,98.092 96.472,108.06 
			85.921,117.244 97.504,126.369 		"/>
		<polygon fill="#0E2144" points="83.566,90.496 83.566,82.627 87.806,82.627 89.68,6.056 93.102,82.477 97.188,82.477 
			97.188,90.496 		"/>
		<g>
			<g>
				<polygon id="SVGID_9_" fill="#0E2144" points="83.566,90.496 83.566,82.627 87.806,82.627 89.68,6.056 93.102,82.477 
					97.188,82.477 97.188,90.496 				"/>
			</g>
			<g>
				<defs>
					<polygon id="SVGID_24_" points="83.566,90.496 83.566,82.627 87.806,82.627 89.68,6.056 93.102,82.477 97.188,82.477 
						97.188,90.496 					"/>
				</defs>
				<clipPath id="SVGID_25_">
					<use xlink:href="#SVGID_24_"  overflow="visible"/>
				</clipPath>
				<rect x="83.791" y="59.704" clip-path="url(#SVGID_25_)" fill="#0E2144" width="13.314" height="8.472"/>
			</g>
			<g>
				<defs>
					<polygon id="SVGID_26_" points="83.566,90.496 83.566,82.627 87.806,82.627 89.68,6.056 93.102,82.477 97.188,82.477 
						97.188,90.496 					"/>
				</defs>
				<clipPath id="SVGID_27_">
					<use xlink:href="#SVGID_26_"  overflow="visible"/>
				</clipPath>
				<rect x="83.791" y="31.433" clip-path="url(#SVGID_27_)" fill="#0E2144" width="13.314" height="8.472"/>
			</g>
		</g>
		<rect x="83.416" y="90.799" fill="#0E2144" width="14.075" height="8.323"/>
		
			<rect x="89.391" y="214.766" transform="matrix(-0.6873 -0.7264 0.7264 -0.6873 -17.6089 457.9484)" fill="#0E2144" width="0.75" height="35.997"/>
		
			<rect x="74.272" y="232.538" transform="matrix(-0.7437 -0.6686 0.6686 -0.7437 5.0433 467.7604)" fill="#0E2144" width="35.847" height="0.751"/>
		<polygon fill="#0E2144" points="91.002,258.272 75.153,247.07 75.587,246.457 90.973,257.333 106.101,245.126 106.571,245.71 		
			"/>
		<path fill="#0E2144" d="M90.444,270.636l-18.429-12.284l19.241-13.663l18.707,13.399L90.444,270.636z M73.338,258.332
			l17.114,11.408l18.178-11.685L91.255,245.61L73.338,258.332z"/>
		<path fill="#0E2144" d="M90.988,283.275l-0.186-0.104l-22.378-12.436l22.558-13.367l22.843,12.814L90.988,283.275z
			 M69.931,270.716l21.052,11.698l21.323-12.222l-21.313-11.957L69.931,270.716z"/>
		<path fill="#0E2144" d="M90.985,309.1l-0.141-0.058l-33.476-13.555l33.615-12.507l0.128,0.046l34.32,12.183L90.985,309.1z
			 M59.441,295.518l31.544,12.772l32.33-13.036L90.99,283.78L59.441,295.518z"/>
		<path fill="#0E2144" d="M90.987,295.646l-0.158-0.072l-27.65-12.72l27.268-13.08l0.161,0.075l27.647,12.998L90.987,295.646z
			 M64.942,282.84l26.041,11.979l25.508-11.973L90.45,270.604L64.942,282.84z"/>
		<polygon fill="#0E2144" points="133.4,309.07 90.985,309.07 90.985,308.32 128.809,308.32 90.866,295.588 91.104,294.877 		"/>
		<polygon fill="#0E2144" points="90.985,309.07 48.572,309.07 90.866,294.877 91.104,295.588 53.164,308.32 90.985,308.32 		"/>
		<rect x="139.788" y="333.535" fill="#0E2144" width="13.318" height="8.471"/>
		<rect x="26.146" y="333.535" fill="#0E2144" width="13.316" height="8.471"/>
		<rect x="83.649" y="333.535" fill="#0E2144" width="13.314" height="8.471"/>
	</g>
</g>
</svg>
