<?xml version="1.0" encoding="utf-8"?>
<!-- Generator: Adobe Illustrator 16.0.0, SVG Export Plug-In . SVG Version: 6.00 Build 0)  -->
<!DOCTYPE svg PUBLIC "-//W3C//DTD SVG 1.1//EN" "http://www.w3.org/Graphics/SVG/1.1/DTD/svg11.dtd">
<svg version="1.1" id="레이어_1" xmlns="http://www.w3.org/2000/svg" xmlns:xlink="http://www.w3.org/1999/xlink" x="0px"
	 y="0px" width="930.567px" height="399.305px" viewBox="0 -41.028 930.567 399.305"
	 enable-background="new 0 -41.028 930.567 399.305" xml:space="preserve">
<polygon fill="#1D3475" points="675.893,305.774 675.893,310.614 824.901,310.614 824.901,311.092 840.018,311.092 840.018,310.614 
	865.934,310.614 865.934,310.551 877.002,310.551 877.002,310.614 888.612,310.614 888.612,310.551 899.409,310.551 
	899.409,310.614 912.911,310.614 912.911,310.551 918.307,310.551 918.307,305.774 938.215,305.774 938.215,283.774 
	912.911,283.774 912.911,266.006 899.409,266.006 899.409,283.774 888.612,283.774 888.612,281.935 877.002,281.935 
	877.002,283.774 865.934,283.774 865.934,263.848 852.434,263.848 852.434,283.774 846.497,283.774 846.497,279.504 
	836.506,279.504 836.506,283.774 828.678,283.774 828.678,274.645 823.821,274.645 819.77,274.645 819.77,283.774 813.563,283.774 
	813.563,256.288 800.604,256.288 800.604,283.774 797.633,283.774 797.633,283.555 794.393,283.555 794.393,265.466 
	782.786,265.466 782.786,283.774 779.006,283.774 779.006,268.706 770.907,268.706 770.907,224.971 767.813,218.954 
	760.874,218.954 758.489,223.892 758.489,283.775 752.008,283.775 752.008,233.61 738.51,233.61 738.51,283.774 727.709,283.774 
	727.709,249.538 716.1,249.538 716.1,283.774 705.034,283.774 705.034,231.451 691.532,231.451 691.532,267.088 685.594,267.088 
	685.594,247.109 675.893,247.109 675.893,283.775 642.215,283.775 642.215,273.775 624.215,273.775 624.215,283.775 
	620.215,283.775 620.215,273.775 602.215,273.775 602.215,283.775 579.737,283.775 579.737,267.775 496.944,267.775 
	496.944,283.775 461.215,283.775 461.215,268.775 443.215,268.775 443.215,283.775 370.023,283.775 370.023,256.828 
	356.522,256.828 356.522,283.775 345.725,283.775 345.725,272.756 334.115,272.756 334.115,283.775 323.047,283.775 323.047,254.67 
	309.547,254.67 309.547,283.775 303.609,283.775 303.609,270.326 293.62,270.326 293.62,283.775 285.792,283.775 285.792,265.466 
	280.933,265.466 276.883,265.466 276.883,281.394 272.024,281.394 270.676,279.505 270.676,247.109 257.717,247.109 
	257.717,277.885 254.746,277.885 254.746,274.376 251.506,274.376 251.506,256.287 239.899,256.287 239.899,277.345 
	236.119,277.345 236.119,259.527 228.019,259.527 228.019,215.792 224.925,209.775 217.985,209.775 215.602,214.713 
	215.602,283.015 209.122,283.015 209.122,224.432 195.624,224.432 195.624,283.776 190.764,283.776 190.764,276.536 
	184.826,276.536 184.826,240.36 173.216,240.36 173.216,275.186 166.197,275.186 166.197,283.776 162.148,283.776 162.148,222.273 
	148.647,222.273 148.647,257.91 142.709,257.91 142.709,237.931 133.009,237.931 133.009,283.777 52.216,283.777 52.216,250.902 
	34.216,250.902 34.216,283.777 28.419,283.777 28.419,267.777 10.419,267.777 10.419,283.777 -9,283.777 -9,305.777 
	675.893,305.777 "/>
<g>
	<rect x="825.161" y="277.679" fill="#6B8BD1" width="1.535" height="1.975"/>
	<rect x="821.432" y="277.679" fill="#6B8BD1" width="1.537" height="1.975"/>
	<rect x="766.721" y="228.75" fill="#6B8BD1" width="1.893" height="5.399"/>
	<rect x="766.721" y="237.928" fill="#6B8BD1" width="1.893" height="5.399"/>
	<rect x="766.721" y="247.108" fill="#6B8BD1" width="1.893" height="5.398"/>
	<rect x="766.721" y="256.288" fill="#6B8BD1" width="1.893" height="5.399"/>
	<rect x="766.721" y="265.468" fill="#6B8BD1" width="1.893" height="5.398"/>
	<rect x="766.721" y="274.647" fill="#6B8BD1" width="1.893" height="5.397"/>
	<rect x="761.727" y="228.75" fill="#6B8BD1" width="1.891" height="5.399"/>
	<rect x="761.727" y="237.928" fill="#6B8BD1" width="1.891" height="5.399"/>
	<rect x="761.727" y="247.108" fill="#6B8BD1" width="1.891" height="5.398"/>
	<rect x="761.727" y="256.288" fill="#6B8BD1" width="1.891" height="5.399"/>
	<rect x="761.727" y="265.468" fill="#6B8BD1" width="1.891" height="5.398"/>
	<rect x="761.727" y="274.647" fill="#6B8BD1" width="1.891" height="5.397"/>
	<rect x="699.95" y="237.326" fill="#6B8BD1" width="1.891" height="2.43"/>
	<rect x="699.95" y="243.535" fill="#6B8BD1" width="1.891" height="2.429"/>
	<rect x="699.95" y="249.743" fill="#6B8BD1" width="1.891" height="2.43"/>
	<rect x="699.95" y="255.952" fill="#6B8BD1" width="1.891" height="2.43"/>
	<rect x="699.95" y="262.161" fill="#6B8BD1" width="1.891" height="2.43"/>
	<rect x="699.95" y="269.722" fill="#6B8BD1" width="1.891" height="2.431"/>
	<rect x="699.95" y="275.931" fill="#6B8BD1" width="1.891" height="2.431"/>
	<rect x="695.362" y="237.326" fill="#6B8BD1" width="1.891" height="2.43"/>
	<rect x="695.362" y="243.535" fill="#6B8BD1" width="1.891" height="2.429"/>
	<rect x="695.362" y="249.743" fill="#6B8BD1" width="1.891" height="2.43"/>
	<rect x="695.362" y="255.952" fill="#6B8BD1" width="1.891" height="2.43"/>
	<rect x="695.362" y="262.161" fill="#6B8BD1" width="1.891" height="2.43"/>
	<rect x="695.362" y="269.722" fill="#6B8BD1" width="1.891" height="2.431"/>
	<rect x="695.362" y="275.931" fill="#6B8BD1" width="1.891" height="2.431"/>
	<rect x="681.987" y="251" fill="#6B8BD1" width="1.535" height="1.974"/>
	<rect x="681.987" y="256.044" fill="#6B8BD1" width="1.535" height="1.976"/>
	<rect x="681.987" y="261.088" fill="#6B8BD1" width="1.535" height="1.977"/>
	<rect x="681.987" y="266.134" fill="#6B8BD1" width="1.535" height="1.975"/>
	<rect x="681.987" y="271.178" fill="#6B8BD1" width="1.535" height="1.974"/>
	<rect x="681.987" y="277.188" fill="#6B8BD1" width="1.535" height="1.974"/>
	<rect x="678.258" y="251" fill="#6B8BD1" width="1.537" height="1.974"/>
	<rect x="678.258" y="256.044" fill="#6B8BD1" width="1.537" height="1.976"/>
	<rect x="678.258" y="261.088" fill="#6B8BD1" width="1.537" height="1.977"/>
	<rect x="678.258" y="266.134" fill="#6B8BD1" width="1.537" height="1.975"/>
	<rect x="678.258" y="271.178" fill="#6B8BD1" width="1.537" height="1.974"/>
	<rect x="678.258" y="277.188" fill="#6B8BD1" width="1.537" height="1.974"/>
	<rect x="678.258" y="287.276" fill="#6B8BD1" width="1.537" height="1.975"/>
	<rect x="678.258" y="282.231" fill="#6B8BD1" width="1.537" height="1.975"/>
	<rect x="678.258" y="292.321" fill="#6B8BD1" width="1.537" height="1.974"/>
	<rect x="678.258" y="297.365" fill="#6B8BD1" width="1.537" height="1.974"/>
	<rect x="681.987" y="287.276" fill="#6B8BD1" width="1.535" height="1.975"/>
	<rect x="681.987" y="282.231" fill="#6B8BD1" width="1.535" height="1.975"/>
	<rect x="681.987" y="292.321" fill="#6B8BD1" width="1.535" height="1.974"/>
	<rect x="681.987" y="297.365" fill="#6B8BD1" width="1.535" height="1.974"/>
	<rect x="695.362" y="288.349" fill="#6B8BD1" width="1.891" height="2.43"/>
	<rect x="695.362" y="282.139" fill="#6B8BD1" width="1.891" height="2.431"/>
	<rect x="695.362" y="294.558" fill="#6B8BD1" width="1.891" height="2.43"/>
	<rect x="699.95" y="288.349" fill="#6B8BD1" width="1.891" height="2.43"/>
	<rect x="699.95" y="282.139" fill="#6B8BD1" width="1.891" height="2.431"/>
	<rect x="699.95" y="294.558" fill="#6B8BD1" width="1.891" height="2.43"/>
	<rect x="761.725" y="283.828" fill="#6B8BD1" width="1.891" height="5.398"/>
	<rect x="761.725" y="293.007" fill="#6B8BD1" width="1.891" height="5.398"/>
	<rect x="821.432" y="287.769" fill="#6B8BD1" width="1.537" height="1.974"/>
	<rect x="821.432" y="282.723" fill="#6B8BD1" width="1.537" height="1.974"/>
	<rect x="821.432" y="292.813" fill="#6B8BD1" width="1.537" height="1.975"/>
	<rect x="821.432" y="297.857" fill="#6B8BD1" width="1.537" height="1.975"/>
	<rect x="766.721" y="283.828" fill="#6B8BD1" width="1.891" height="5.398"/>
	<rect x="766.721" y="293.007" fill="#6B8BD1" width="1.891" height="5.398"/>
	<rect x="825.161" y="282.723" fill="#6B8BD1" width="1.535" height="1.974"/>
	<rect x="825.161" y="287.769" fill="#6B8BD1" width="1.535" height="1.974"/>
	<rect x="825.161" y="292.813" fill="#6B8BD1" width="1.535" height="1.975"/>
	<rect x="825.161" y="297.857" fill="#6B8BD1" width="1.535" height="1.975"/>
	<rect x="838.709" y="302.906" fill="#6B8BD1" width="1.535" height="1.976"/>
	<rect x="838.709" y="287.772" fill="#6B8BD1" width="1.535" height="1.976"/>
	<rect x="838.709" y="292.817" fill="#6B8BD1" width="1.535" height="1.976"/>
	<rect x="838.709" y="297.863" fill="#6B8BD1" width="1.535" height="1.973"/>
	<rect x="842.438" y="302.906" fill="#6B8BD1" width="1.535" height="1.976"/>
	<rect x="856.215" y="286.955" fill="#6B8BD1" width="1.893" height="5.398"/>
	<rect x="861.211" y="286.954" fill="#6B8BD1" width="1.893" height="5.398"/>
	<rect x="842.44" y="297.863" fill="#6B8BD1" width="1.535" height="1.973"/>
	<rect x="842.438" y="292.817" fill="#6B8BD1" width="1.535" height="1.976"/>
	<rect x="842.44" y="287.772" fill="#6B8BD1" width="1.535" height="1.976"/>
	<rect x="880.286" y="304.985" fill="#6B8BD1" width="1.535" height="1.976"/>
	<rect x="880.286" y="284.807" fill="#6B8BD1" width="1.535" height="1.975"/>
	<rect x="880.286" y="289.853" fill="#6B8BD1" width="1.535" height="1.974"/>
	<rect x="880.286" y="294.896" fill="#6B8BD1" width="1.535" height="1.974"/>
	<rect x="880.286" y="299.941" fill="#6B8BD1" width="1.535" height="1.974"/>
	<rect x="884.014" y="304.985" fill="#6B8BD1" width="1.535" height="1.976"/>
	<rect x="884.014" y="284.807" fill="#6B8BD1" width="1.535" height="1.975"/>
	<rect x="884.014" y="289.853" fill="#6B8BD1" width="1.535" height="1.974"/>
	<rect x="884.014" y="294.896" fill="#6B8BD1" width="1.535" height="1.974"/>
	<rect x="884.014" y="299.941" fill="#6B8BD1" width="1.535" height="1.974"/>
	<rect x="908.106" y="287.816" fill="#6B8BD1" width="1.891" height="2.43"/>
	<rect x="908.106" y="294.025" fill="#6B8BD1" width="1.891" height="2.429"/>
	<rect x="902.516" y="287.816" fill="#6B8BD1" width="1.891" height="2.43"/>
	<rect x="902.516" y="294.025" fill="#6B8BD1" width="1.891" height="2.429"/>
	<rect x="908.106" y="269.19" fill="#6B8BD1" width="1.891" height="2.429"/>
	<rect x="908.106" y="275.398" fill="#6B8BD1" width="1.891" height="2.43"/>
	<rect x="908.106" y="281.606" fill="#6B8BD1" width="1.891" height="2.431"/>
	<rect x="902.518" y="269.19" fill="#6B8BD1" width="1.891" height="2.429"/>
	<rect x="902.518" y="275.398" fill="#6B8BD1" width="1.891" height="2.43"/>
	<rect x="902.518" y="281.606" fill="#6B8BD1" width="1.891" height="2.431"/>
	<rect x="861.211" y="268.594" fill="#6B8BD1" width="1.893" height="5.398"/>
	<rect x="861.211" y="277.774" fill="#6B8BD1" width="1.893" height="5.397"/>
	<rect x="856.215" y="268.594" fill="#6B8BD1" width="1.893" height="5.398"/>
	<rect x="856.215" y="277.774" fill="#6B8BD1" width="1.893" height="5.397"/>
	<rect x="842.44" y="282.729" fill="#6B8BD1" width="1.535" height="1.974"/>
	<rect x="838.709" y="282.729" fill="#6B8BD1" width="1.535" height="1.974"/>
	<rect x="364.22" y="261.01" fill="#6B8BD1" width="1.891" height="2.43"/>
	<rect x="364.22" y="267.219" fill="#6B8BD1" width="1.891" height="2.431"/>
	<rect x="364.22" y="273.427" fill="#6B8BD1" width="1.891" height="2.432"/>
	<rect x="364.22" y="279.637" fill="#6B8BD1" width="1.891" height="2.43"/>
	<rect x="359.631" y="261.01" fill="#6B8BD1" width="1.891" height="2.43"/>
	<rect x="359.631" y="267.219" fill="#6B8BD1" width="1.891" height="2.431"/>
	<rect x="359.631" y="273.427" fill="#6B8BD1" width="1.891" height="2.432"/>
	<rect x="359.631" y="279.637" fill="#6B8BD1" width="1.891" height="2.43"/>
	<rect x="341.127" y="275.628" fill="#6B8BD1" width="1.536" height="1.976"/>
	<rect x="341.127" y="280.673" fill="#6B8BD1" width="1.536" height="1.975"/>
	<rect x="337.399" y="275.628" fill="#6B8BD1" width="1.534" height="1.976"/>
	<rect x="337.399" y="280.673" fill="#6B8BD1" width="1.534" height="1.975"/>
	<rect x="299.552" y="274.549" fill="#6B8BD1" width="1.536" height="1.975"/>
	<rect x="299.552" y="279.593" fill="#6B8BD1" width="1.536" height="1.977"/>
	<rect x="295.822" y="274.549" fill="#6B8BD1" width="1.536" height="1.975"/>
	<rect x="295.822" y="279.593" fill="#6B8BD1" width="1.536" height="1.977"/>
	<rect x="282.274" y="268.499" fill="#6B8BD1" width="1.535" height="1.976"/>
	<rect x="282.274" y="273.544" fill="#6B8BD1" width="1.535" height="1.975"/>
	<rect x="282.274" y="278.589" fill="#6B8BD1" width="1.535" height="1.975"/>
	<rect x="278.546" y="268.499" fill="#6B8BD1" width="1.536" height="1.976"/>
	<rect x="278.546" y="273.544" fill="#6B8BD1" width="1.536" height="1.975"/>
	<rect x="278.546" y="278.589" fill="#6B8BD1" width="1.536" height="1.975"/>
	<rect x="265.546" y="253.182" fill="#6B8BD1" width="1.891" height="5.397"/>
	<rect x="265.546" y="262.36" fill="#6B8BD1" width="1.891" height="5.398"/>
	<rect x="265.546" y="271.54" fill="#6B8BD1" width="1.891" height="5.398"/>
	<rect x="260.551" y="253.182" fill="#6B8BD1" width="1.89" height="5.397"/>
	<rect x="260.551" y="262.36" fill="#6B8BD1" width="1.89" height="5.398"/>
	<rect x="260.551" y="271.54" fill="#6B8BD1" width="1.89" height="5.398"/>
	<rect x="246.918" y="259.605" fill="#6B8BD1" width="1.891" height="2.43"/>
	<rect x="246.918" y="265.813" fill="#6B8BD1" width="1.891" height="2.43"/>
	<rect x="246.918" y="272.022" fill="#6B8BD1" width="1.891" height="2.43"/>
	<rect x="246.918" y="278.231" fill="#6B8BD1" width="1.891" height="2.43"/>
	<rect x="242.329" y="259.605" fill="#6B8BD1" width="1.891" height="2.43"/>
	<rect x="242.329" y="265.813" fill="#6B8BD1" width="1.891" height="2.43"/>
	<rect x="242.329" y="272.022" fill="#6B8BD1" width="1.891" height="2.43"/>
	<rect x="242.329" y="278.231" fill="#6B8BD1" width="1.891" height="2.43"/>
	<rect x="223.835" y="216.57" fill="#6B8BD1" width="1.891" height="5.398"/>
	<rect x="223.835" y="225.749" fill="#6B8BD1" width="1.891" height="5.399"/>
	<rect x="223.835" y="234.928" fill="#6B8BD1" width="1.891" height="5.399"/>
	<rect x="223.835" y="244.108" fill="#6B8BD1" width="1.891" height="5.398"/>
	<rect x="223.835" y="253.288" fill="#6B8BD1" width="1.891" height="5.398"/>
	<rect x="223.835" y="262.468" fill="#6B8BD1" width="1.891" height="5.398"/>
	<rect x="223.835" y="271.647" fill="#6B8BD1" width="1.891" height="5.397"/>
	<rect x="217.84" y="216.57" fill="#6B8BD1" width="1.89" height="5.398"/>
	<rect x="217.84" y="225.749" fill="#6B8BD1" width="1.89" height="5.399"/>
	<rect x="217.84" y="234.928" fill="#6B8BD1" width="1.89" height="5.399"/>
	<rect x="217.84" y="244.108" fill="#6B8BD1" width="1.89" height="5.398"/>
	<rect x="217.84" y="253.288" fill="#6B8BD1" width="1.89" height="5.398"/>
	<rect x="217.84" y="262.468" fill="#6B8BD1" width="1.89" height="5.398"/>
	<rect x="217.84" y="271.647" fill="#6B8BD1" width="1.89" height="5.397"/>
	<rect x="203.991" y="236.983" fill="#6B8BD1" width="1.891" height="2.43"/>
	<rect x="203.991" y="243.192" fill="#6B8BD1" width="1.891" height="2.429"/>
	<rect x="203.991" y="249.401" fill="#6B8BD1" width="1.891" height="2.429"/>
	<rect x="203.991" y="255.608" fill="#6B8BD1" width="1.891" height="2.431"/>
	<rect x="203.991" y="261.818" fill="#6B8BD1" width="1.891" height="2.43"/>
	<rect x="199.402" y="236.983" fill="#6B8BD1" width="1.891" height="2.43"/>
	<rect x="199.402" y="243.192" fill="#6B8BD1" width="1.891" height="2.429"/>
	<rect x="199.402" y="249.401" fill="#6B8BD1" width="1.891" height="2.429"/>
	<rect x="199.402" y="255.608" fill="#6B8BD1" width="1.891" height="2.431"/>
	<rect x="199.402" y="261.818" fill="#6B8BD1" width="1.891" height="2.43"/>
	<rect x="135.372" y="288.186" fill="#6B8BD1" width="1.536" height="1.974"/>
	<rect x="135.372" y="283.141" fill="#6B8BD1" width="1.536" height="1.974"/>
	<rect x="139.101" y="288.186" fill="#6B8BD1" width="1.535" height="1.974"/>
	<rect x="139.101" y="283.141" fill="#6B8BD1" width="1.535" height="1.974"/>
	<rect x="151.475" y="283.378" fill="#6B8BD1" width="1.891" height="2.431"/>
	<rect x="157.063" y="283.378" fill="#6B8BD1" width="1.891" height="2.431"/>
	<rect x="175.645" y="295.562" fill="#6B8BD1" width="1.891" height="2.429"/>
	<rect x="175.646" y="289.352" fill="#6B8BD1" width="1.891" height="2.43"/>
	<rect x="180.234" y="289.353" fill="#6B8BD1" width="1.891" height="2.43"/>
	<rect x="180.234" y="295.562" fill="#6B8BD1" width="1.891" height="2.429"/>
	<rect x="217.839" y="290.817" fill="#6B8BD1" width="1.89" height="5.397"/>
	<rect x="217.84" y="280.828" fill="#6B8BD1" width="1.89" height="5.398"/>
	<rect x="223.835" y="290.817" fill="#6B8BD1" width="1.891" height="5.397"/>
	<rect x="223.835" y="280.828" fill="#6B8BD1" width="1.891" height="5.398"/>
	<rect x="242.329" y="284.44" fill="#6B8BD1" width="1.891" height="2.43"/>
	<rect x="246.918" y="284.44" fill="#6B8BD1" width="1.891" height="2.43"/>
	<rect x="278.546" y="288.678" fill="#6B8BD1" width="1.536" height="1.975"/>
	<rect x="278.546" y="283.632" fill="#6B8BD1" width="1.536" height="1.976"/>
	<rect x="282.275" y="283.632" fill="#6B8BD1" width="1.535" height="1.976"/>
	<rect x="282.275" y="288.678" fill="#6B8BD1" width="1.535" height="1.975"/>
	<rect x="299.552" y="289.684" fill="#6B8BD1" width="1.536" height="1.973"/>
	<rect x="299.552" y="284.637" fill="#6B8BD1" width="1.536" height="1.976"/>
	<rect x="299.552" y="294.727" fill="#6B8BD1" width="1.536" height="1.976"/>
	<rect x="337.4" y="290.762" fill="#6B8BD1" width="1.534" height="1.974"/>
	<rect x="337.399" y="285.716" fill="#6B8BD1" width="1.534" height="1.975"/>
	<rect x="337.4" y="295.806" fill="#6B8BD1" width="1.534" height="1.976"/>
	<rect x="341.127" y="290.762" fill="#6B8BD1" width="1.536" height="1.974"/>
	<rect x="341.127" y="285.716" fill="#6B8BD1" width="1.536" height="1.975"/>
	<rect x="341.127" y="295.806" fill="#6B8BD1" width="1.536" height="1.976"/>
	<rect x="364.219" y="285.845" fill="#6B8BD1" width="1.891" height="2.429"/>
	<rect x="359.631" y="285.845" fill="#6B8BD1" width="1.891" height="2.429"/>
	<rect x="295.822" y="284.637" fill="#6B8BD1" width="1.536" height="1.976"/>
	<rect x="295.822" y="289.684" fill="#6B8BD1" width="1.536" height="1.973"/>
	<rect x="295.822" y="294.727" fill="#6B8BD1" width="1.536" height="1.976"/>
	<rect x="318.324" y="260.415" fill="#6B8BD1" width="1.892" height="5.398"/>
	<rect x="318.324" y="269.594" fill="#6B8BD1" width="1.892" height="5.398"/>
	<rect x="318.324" y="278.774" fill="#6B8BD1" width="1.892" height="5.397"/>
	<rect x="313.329" y="260.415" fill="#6B8BD1" width="1.891" height="5.398"/>
	<rect x="313.329" y="269.594" fill="#6B8BD1" width="1.891" height="5.398"/>
	<rect x="313.329" y="278.774" fill="#6B8BD1" width="1.891" height="5.397"/>
	<rect x="180.234" y="245.487" fill="#6B8BD1" width="1.891" height="2.43"/>
	<rect x="180.234" y="251.696" fill="#6B8BD1" width="1.891" height="2.43"/>
	<rect x="180.234" y="257.905" fill="#6B8BD1" width="1.891" height="2.429"/>
	<rect x="180.234" y="264.113" fill="#6B8BD1" width="1.891" height="2.43"/>
	<rect x="180.234" y="270.321" fill="#6B8BD1" width="1.891" height="2.432"/>
	<rect x="180.234" y="276.935" fill="#6B8BD1" width="1.891" height="2.43"/>
	<rect x="180.234" y="283.144" fill="#6B8BD1" width="1.891" height="2.43"/>
	<rect x="175.646" y="245.487" fill="#6B8BD1" width="1.891" height="2.43"/>
	<rect x="175.646" y="251.696" fill="#6B8BD1" width="1.891" height="2.43"/>
	<rect x="175.646" y="257.905" fill="#6B8BD1" width="1.891" height="2.429"/>
	<rect x="175.646" y="264.113" fill="#6B8BD1" width="1.891" height="2.43"/>
	<rect x="175.646" y="270.321" fill="#6B8BD1" width="1.891" height="2.432"/>
	<rect x="175.646" y="276.935" fill="#6B8BD1" width="1.891" height="2.43"/>
	<rect x="175.646" y="283.144" fill="#6B8BD1" width="1.891" height="2.43"/>
	<rect x="157.063" y="226.146" fill="#6B8BD1" width="1.891" height="2.43"/>
	<rect x="157.063" y="232.355" fill="#6B8BD1" width="1.891" height="2.429"/>
	<rect x="157.063" y="238.563" fill="#6B8BD1" width="1.891" height="2.43"/>
	<rect x="157.063" y="244.772" fill="#6B8BD1" width="1.891" height="2.43"/>
	<rect x="157.063" y="250.981" fill="#6B8BD1" width="1.891" height="2.43"/>
	<rect x="157.063" y="258.542" fill="#6B8BD1" width="1.891" height="2.432"/>
	<rect x="157.063" y="264.751" fill="#6B8BD1" width="1.891" height="2.432"/>
	<rect x="157.063" y="270.96" fill="#6B8BD1" width="1.891" height="2.432"/>
	<rect x="157.063" y="277.169" fill="#6B8BD1" width="1.891" height="2.431"/>
	<rect x="151.475" y="226.146" fill="#6B8BD1" width="1.891" height="2.43"/>
	<rect x="151.475" y="232.355" fill="#6B8BD1" width="1.891" height="2.429"/>
	<rect x="151.475" y="238.563" fill="#6B8BD1" width="1.891" height="2.43"/>
	<rect x="151.475" y="244.772" fill="#6B8BD1" width="1.891" height="2.43"/>
	<rect x="151.475" y="250.981" fill="#6B8BD1" width="1.891" height="2.43"/>
	<rect x="151.475" y="258.542" fill="#6B8BD1" width="1.891" height="2.432"/>
	<rect x="151.475" y="264.751" fill="#6B8BD1" width="1.891" height="2.432"/>
	<rect x="151.475" y="270.96" fill="#6B8BD1" width="1.891" height="2.432"/>
	<rect x="139.101" y="241.82" fill="#6B8BD1" width="1.535" height="1.973"/>
	<rect x="139.101" y="246.864" fill="#6B8BD1" width="1.535" height="1.975"/>
	<rect x="139.101" y="251.908" fill="#6B8BD1" width="1.535" height="1.976"/>
	<rect x="139.101" y="256.954" fill="#6B8BD1" width="1.535" height="1.974"/>
	<rect x="139.101" y="261.998" fill="#6B8BD1" width="1.535" height="1.975"/>
	<rect x="139.101" y="268.008" fill="#6B8BD1" width="1.535" height="1.975"/>
	<rect x="139.101" y="273.052" fill="#6B8BD1" width="1.535" height="1.976"/>
	<rect x="139.101" y="278.097" fill="#6B8BD1" width="1.535" height="1.975"/>
	<rect x="135.372" y="241.82" fill="#6B8BD1" width="1.536" height="1.973"/>
	<rect x="135.372" y="246.864" fill="#6B8BD1" width="1.536" height="1.975"/>
	<rect x="135.372" y="251.908" fill="#6B8BD1" width="1.536" height="1.976"/>
	<rect x="135.372" y="256.954" fill="#6B8BD1" width="1.536" height="1.974"/>
	<rect x="135.372" y="261.998" fill="#6B8BD1" width="1.536" height="1.975"/>
	<rect x="135.372" y="268.008" fill="#6B8BD1" width="1.536" height="1.975"/>
	<rect x="135.372" y="273.052" fill="#6B8BD1" width="1.536" height="1.976"/>
	<rect x="135.372" y="278.097" fill="#6B8BD1" width="1.536" height="1.975"/>
	<rect x="151.475" y="277.169" fill="#6B8BD1" width="1.891" height="2.431"/>
	<rect x="761.727" y="228.75" fill="#6B8BD1" width="1.891" height="5.399"/>
	<rect x="766.721" y="228.75" fill="#6B8BD1" width="1.893" height="5.399"/>
	<rect x="761.727" y="237.928" fill="#6B8BD1" width="1.891" height="5.399"/>
	<rect x="766.721" y="237.928" fill="#6B8BD1" width="1.893" height="5.399"/>
	<rect x="761.727" y="247.108" fill="#6B8BD1" width="1.891" height="5.398"/>
	<rect x="766.721" y="247.108" fill="#6B8BD1" width="1.893" height="5.398"/>
	<rect x="856.215" y="268.594" fill="#6B8BD1" width="1.893" height="5.398"/>
	<rect x="861.211" y="268.594" fill="#6B8BD1" width="1.893" height="5.398"/>
	<rect x="856.215" y="277.774" fill="#6B8BD1" width="1.893" height="5.397"/>
	<rect x="861.211" y="277.774" fill="#6B8BD1" width="1.893" height="5.397"/>
	<rect x="856.215" y="286.954" fill="#6B8BD1" width="1.893" height="5.398"/>
	<rect x="861.211" y="286.954" fill="#6B8BD1" width="1.893" height="5.398"/>
	<rect x="761.727" y="256.288" fill="#6B8BD1" width="1.891" height="5.399"/>
	<rect x="766.721" y="256.288" fill="#6B8BD1" width="1.893" height="5.399"/>
	<rect x="761.727" y="265.468" fill="#6B8BD1" width="1.891" height="5.398"/>
	<rect x="766.721" y="265.468" fill="#6B8BD1" width="1.893" height="5.398"/>
	<rect x="761.727" y="274.647" fill="#6B8BD1" width="1.891" height="5.397"/>
	<rect x="766.721" y="274.647" fill="#6B8BD1" width="1.893" height="5.397"/>
	<rect x="761.727" y="283.827" fill="#6B8BD1" width="1.891" height="5.398"/>
	<rect x="766.721" y="283.827" fill="#6B8BD1" width="1.893" height="5.398"/>
	<rect x="761.727" y="293.007" fill="#6B8BD1" width="1.891" height="5.398"/>
	<rect x="766.721" y="293.007" fill="#6B8BD1" width="1.893" height="5.398"/>
	<rect x="902.518" y="269.19" fill="#6B8BD1" width="1.891" height="2.429"/>
	<rect x="908.106" y="269.19" fill="#6B8BD1" width="1.891" height="2.429"/>
	<rect x="902.518" y="275.398" fill="#6B8BD1" width="1.891" height="2.43"/>
	<rect x="908.106" y="275.398" fill="#6B8BD1" width="1.891" height="2.43"/>
	<rect x="902.518" y="281.606" fill="#6B8BD1" width="1.891" height="2.431"/>
	<rect x="908.106" y="281.606" fill="#6B8BD1" width="1.891" height="2.431"/>
	<rect x="902.518" y="287.816" fill="#6B8BD1" width="1.891" height="2.43"/>
	<rect x="908.106" y="287.816" fill="#6B8BD1" width="1.891" height="2.43"/>
	<rect x="902.518" y="294.025" fill="#6B8BD1" width="1.891" height="2.429"/>
	<rect x="908.106" y="294.025" fill="#6B8BD1" width="1.891" height="2.429"/>
	<rect x="880.286" y="284.808" fill="#6B8BD1" width="1.535" height="1.975"/>
	<rect x="884.014" y="284.808" fill="#6B8BD1" width="1.535" height="1.975"/>
	<rect x="880.286" y="289.853" fill="#6B8BD1" width="1.535" height="1.974"/>
	<rect x="884.014" y="289.853" fill="#6B8BD1" width="1.535" height="1.974"/>
	<rect x="880.286" y="294.896" fill="#6B8BD1" width="1.535" height="1.974"/>
	<rect x="884.014" y="294.896" fill="#6B8BD1" width="1.535" height="1.974"/>
	<rect x="880.286" y="299.941" fill="#6B8BD1" width="1.535" height="1.974"/>
	<rect x="884.014" y="299.941" fill="#6B8BD1" width="1.535" height="1.974"/>
	<rect x="880.286" y="304.985" fill="#6B8BD1" width="1.535" height="1.976"/>
	<rect x="884.014" y="304.985" fill="#6B8BD1" width="1.535" height="1.976"/>
	<rect x="838.709" y="282.729" fill="#6B8BD1" width="1.535" height="1.974"/>
	<rect x="842.438" y="282.729" fill="#6B8BD1" width="1.535" height="1.974"/>
	<rect x="838.709" y="287.772" fill="#6B8BD1" width="1.535" height="1.976"/>
	<rect x="842.438" y="287.772" fill="#6B8BD1" width="1.535" height="1.976"/>
	<rect x="838.709" y="292.817" fill="#6B8BD1" width="1.535" height="1.976"/>
	<rect x="842.438" y="292.817" fill="#6B8BD1" width="1.535" height="1.976"/>
	<rect x="838.709" y="297.863" fill="#6B8BD1" width="1.535" height="1.973"/>
	<rect x="842.438" y="297.863" fill="#6B8BD1" width="1.535" height="1.973"/>
	<rect x="838.709" y="302.906" fill="#6B8BD1" width="1.535" height="1.976"/>
	<rect x="842.438" y="302.906" fill="#6B8BD1" width="1.535" height="1.976"/>
	<rect x="821.432" y="277.679" fill="#6B8BD1" width="1.537" height="1.975"/>
	<rect x="825.161" y="277.679" fill="#6B8BD1" width="1.535" height="1.975"/>
	<rect x="821.432" y="282.724" fill="#6B8BD1" width="1.537" height="1.974"/>
	<rect x="825.161" y="282.724" fill="#6B8BD1" width="1.535" height="1.974"/>
	<rect x="821.432" y="287.769" fill="#6B8BD1" width="1.537" height="1.974"/>
	<rect x="825.161" y="287.769" fill="#6B8BD1" width="1.535" height="1.974"/>
	<rect x="821.432" y="292.813" fill="#6B8BD1" width="1.537" height="1.975"/>
	<rect x="825.161" y="292.813" fill="#6B8BD1" width="1.535" height="1.975"/>
	<rect x="821.432" y="297.857" fill="#6B8BD1" width="1.537" height="1.975"/>
	<rect x="825.161" y="297.857" fill="#6B8BD1" width="1.535" height="1.975"/>
	<rect x="678.258" y="251" fill="#6B8BD1" width="1.537" height="1.974"/>
	<rect x="681.987" y="251" fill="#6B8BD1" width="1.535" height="1.974"/>
	<rect x="678.258" y="256.044" fill="#6B8BD1" width="1.537" height="1.976"/>
	<rect x="681.987" y="256.044" fill="#6B8BD1" width="1.535" height="1.976"/>
	<rect x="678.258" y="261.088" fill="#6B8BD1" width="1.537" height="1.977"/>
	<rect x="681.987" y="261.088" fill="#6B8BD1" width="1.535" height="1.977"/>
	<rect x="678.258" y="266.134" fill="#6B8BD1" width="1.537" height="1.975"/>
	<rect x="681.987" y="266.134" fill="#6B8BD1" width="1.535" height="1.975"/>
	<rect x="678.258" y="271.178" fill="#6B8BD1" width="1.537" height="1.974"/>
	<rect x="681.987" y="271.178" fill="#6B8BD1" width="1.535" height="1.974"/>
	<rect x="678.258" y="277.188" fill="#6B8BD1" width="1.537" height="1.974"/>
	<rect x="681.987" y="277.188" fill="#6B8BD1" width="1.535" height="1.974"/>
	<rect x="678.258" y="282.231" fill="#6B8BD1" width="1.537" height="1.975"/>
	<rect x="681.987" y="282.231" fill="#6B8BD1" width="1.535" height="1.975"/>
	<rect x="678.258" y="287.276" fill="#6B8BD1" width="1.537" height="1.975"/>
	<rect x="681.987" y="287.276" fill="#6B8BD1" width="1.535" height="1.975"/>
	<rect x="678.258" y="292.321" fill="#6B8BD1" width="1.537" height="1.974"/>
	<rect x="681.987" y="292.321" fill="#6B8BD1" width="1.535" height="1.974"/>
	<rect x="678.258" y="297.365" fill="#6B8BD1" width="1.537" height="1.974"/>
	<rect x="681.987" y="297.365" fill="#6B8BD1" width="1.535" height="1.974"/>
	<rect x="695.362" y="237.326" fill="#6B8BD1" width="1.891" height="2.43"/>
	<rect x="699.95" y="237.326" fill="#6B8BD1" width="1.891" height="2.43"/>
	<rect x="695.362" y="243.535" fill="#6B8BD1" width="1.891" height="2.429"/>
	<rect x="699.95" y="243.535" fill="#6B8BD1" width="1.891" height="2.429"/>
	<rect x="695.362" y="249.743" fill="#6B8BD1" width="1.891" height="2.43"/>
	<rect x="699.95" y="249.743" fill="#6B8BD1" width="1.891" height="2.43"/>
	<rect x="695.362" y="255.952" fill="#6B8BD1" width="1.891" height="2.43"/>
	<rect x="699.95" y="255.952" fill="#6B8BD1" width="1.891" height="2.43"/>
	<rect x="695.362" y="262.161" fill="#6B8BD1" width="1.891" height="2.43"/>
	<rect x="699.95" y="262.161" fill="#6B8BD1" width="1.891" height="2.43"/>
	<rect x="695.362" y="269.722" fill="#6B8BD1" width="1.891" height="2.431"/>
	<rect x="699.95" y="269.722" fill="#6B8BD1" width="1.891" height="2.431"/>
	<rect x="695.362" y="275.931" fill="#6B8BD1" width="1.891" height="2.431"/>
	<rect x="699.95" y="275.931" fill="#6B8BD1" width="1.891" height="2.431"/>
	<rect x="695.362" y="282.14" fill="#6B8BD1" width="1.891" height="2.431"/>
	<rect x="699.95" y="282.14" fill="#6B8BD1" width="1.891" height="2.431"/>
	<rect x="695.362" y="288.349" fill="#6B8BD1" width="1.891" height="2.43"/>
	<rect x="699.95" y="288.349" fill="#6B8BD1" width="1.891" height="2.43"/>
	<rect x="695.362" y="294.558" fill="#6B8BD1" width="1.891" height="2.43"/>
	<rect x="699.95" y="294.558" fill="#6B8BD1" width="1.891" height="2.43"/>
	<rect x="217.84" y="216.57" fill="#6B8BD1" width="1.89" height="5.398"/>
	<rect x="223.835" y="216.57" fill="#6B8BD1" width="1.891" height="5.398"/>
	<rect x="217.84" y="225.749" fill="#6B8BD1" width="1.89" height="5.399"/>
	<rect x="223.835" y="225.749" fill="#6B8BD1" width="1.891" height="5.399"/>
	<rect x="217.84" y="234.928" fill="#6B8BD1" width="1.89" height="5.399"/>
	<rect x="223.835" y="234.928" fill="#6B8BD1" width="1.891" height="5.399"/>
	<rect x="260.551" y="253.182" fill="#6B8BD1" width="1.89" height="5.397"/>
	<rect x="265.546" y="253.182" fill="#6B8BD1" width="1.891" height="5.397"/>
	<rect x="260.551" y="262.36" fill="#6B8BD1" width="1.89" height="5.398"/>
	<rect x="265.546" y="262.36" fill="#6B8BD1" width="1.891" height="5.398"/>
	<rect x="260.551" y="271.54" fill="#6B8BD1" width="1.89" height="5.398"/>
	<rect x="265.546" y="271.54" fill="#6B8BD1" width="1.891" height="5.398"/>
	<rect x="313.329" y="260.415" fill="#6B8BD1" width="1.891" height="5.398"/>
	<rect x="318.324" y="260.415" fill="#6B8BD1" width="1.892" height="5.398"/>
	<rect x="313.329" y="269.594" fill="#6B8BD1" width="1.891" height="5.398"/>
	<rect x="318.324" y="269.594" fill="#6B8BD1" width="1.892" height="5.398"/>
	<rect x="313.329" y="278.774" fill="#6B8BD1" width="1.891" height="5.397"/>
	<rect x="318.324" y="278.774" fill="#6B8BD1" width="1.892" height="5.397"/>
	<rect x="217.84" y="244.108" fill="#6B8BD1" width="1.89" height="5.398"/>
	<rect x="223.835" y="244.108" fill="#6B8BD1" width="1.891" height="5.398"/>
	<rect x="217.84" y="253.288" fill="#6B8BD1" width="1.89" height="5.398"/>
	<rect x="223.835" y="253.288" fill="#6B8BD1" width="1.891" height="5.398"/>
	<rect x="217.84" y="262.468" fill="#6B8BD1" width="1.89" height="5.398"/>
	<rect x="223.835" y="262.468" fill="#6B8BD1" width="1.891" height="5.398"/>
	<rect x="217.84" y="271.647" fill="#6B8BD1" width="1.89" height="5.397"/>
	<rect x="223.835" y="271.647" fill="#6B8BD1" width="1.891" height="5.397"/>
	<rect x="217.84" y="280.827" fill="#6B8BD1" width="1.89" height="5.398"/>
	<rect x="223.835" y="280.827" fill="#6B8BD1" width="1.891" height="5.398"/>
	<rect x="217.84" y="290.817" fill="#6B8BD1" width="1.89" height="5.397"/>
	<rect x="223.835" y="290.817" fill="#6B8BD1" width="1.891" height="5.397"/>
	<rect x="242.329" y="259.605" fill="#6B8BD1" width="1.891" height="2.43"/>
	<rect x="246.918" y="259.605" fill="#6B8BD1" width="1.891" height="2.43"/>
	<rect x="242.329" y="265.813" fill="#6B8BD1" width="1.891" height="2.43"/>
	<rect x="246.918" y="265.813" fill="#6B8BD1" width="1.891" height="2.43"/>
	<rect x="242.329" y="272.022" fill="#6B8BD1" width="1.891" height="2.43"/>
	<rect x="246.918" y="272.022" fill="#6B8BD1" width="1.891" height="2.43"/>
	<rect x="242.329" y="278.231" fill="#6B8BD1" width="1.891" height="2.43"/>
	<rect x="246.918" y="278.231" fill="#6B8BD1" width="1.891" height="2.43"/>
	<rect x="242.329" y="284.44" fill="#6B8BD1" width="1.891" height="2.43"/>
	<rect x="246.918" y="284.44" fill="#6B8BD1" width="1.891" height="2.43"/>
	<rect x="175.646" y="245.487" fill="#6B8BD1" width="1.891" height="2.43"/>
	<rect x="180.234" y="245.487" fill="#6B8BD1" width="1.891" height="2.43"/>
	<rect x="175.646" y="251.696" fill="#6B8BD1" width="1.891" height="2.43"/>
	<rect x="180.234" y="251.696" fill="#6B8BD1" width="1.891" height="2.43"/>
	<rect x="175.646" y="257.905" fill="#6B8BD1" width="1.891" height="2.429"/>
	<rect x="180.234" y="257.905" fill="#6B8BD1" width="1.891" height="2.429"/>
	<rect x="175.646" y="264.113" fill="#6B8BD1" width="1.891" height="2.43"/>
	<rect x="180.234" y="264.113" fill="#6B8BD1" width="1.891" height="2.43"/>
	<rect x="175.646" y="270.321" fill="#6B8BD1" width="1.891" height="2.432"/>
	<rect x="180.234" y="270.321" fill="#6B8BD1" width="1.891" height="2.432"/>
	<rect x="175.646" y="276.935" fill="#6B8BD1" width="1.891" height="2.43"/>
	<rect x="180.234" y="276.935" fill="#6B8BD1" width="1.891" height="2.43"/>
	<rect x="175.646" y="283.144" fill="#6B8BD1" width="1.891" height="2.43"/>
	<rect x="180.234" y="283.144" fill="#6B8BD1" width="1.891" height="2.43"/>
	<rect x="175.646" y="289.353" fill="#6B8BD1" width="1.891" height="2.43"/>
	<rect x="180.234" y="289.353" fill="#6B8BD1" width="1.891" height="2.43"/>
	<rect x="175.646" y="295.562" fill="#6B8BD1" width="1.891" height="2.429"/>
	<rect x="180.234" y="295.562" fill="#6B8BD1" width="1.891" height="2.429"/>
	<rect x="359.631" y="261.01" fill="#6B8BD1" width="1.891" height="2.43"/>
	<rect x="364.22" y="261.01" fill="#6B8BD1" width="1.891" height="2.43"/>
	<rect x="359.631" y="267.219" fill="#6B8BD1" width="1.891" height="2.431"/>
	<rect x="364.22" y="267.219" fill="#6B8BD1" width="1.891" height="2.431"/>
	<rect x="359.631" y="273.427" fill="#6B8BD1" width="1.891" height="2.432"/>
	<rect x="364.22" y="273.427" fill="#6B8BD1" width="1.891" height="2.432"/>
	<rect x="359.631" y="279.637" fill="#6B8BD1" width="1.891" height="2.43"/>
	<rect x="364.22" y="279.637" fill="#6B8BD1" width="1.891" height="2.43"/>
	<rect x="359.631" y="285.846" fill="#6B8BD1" width="1.891" height="2.429"/>
	<rect x="364.22" y="285.846" fill="#6B8BD1" width="1.891" height="2.429"/>
	<rect x="337.399" y="275.628" fill="#6B8BD1" width="1.534" height="1.976"/>
	<rect x="341.127" y="275.628" fill="#6B8BD1" width="1.536" height="1.976"/>
	<rect x="337.399" y="280.673" fill="#6B8BD1" width="1.534" height="1.975"/>
	<rect x="341.127" y="280.673" fill="#6B8BD1" width="1.536" height="1.975"/>
	<rect x="337.399" y="285.717" fill="#6B8BD1" width="1.534" height="1.975"/>
	<rect x="341.127" y="285.717" fill="#6B8BD1" width="1.536" height="1.975"/>
	<rect x="337.399" y="290.762" fill="#6B8BD1" width="1.534" height="1.974"/>
	<rect x="341.127" y="290.762" fill="#6B8BD1" width="1.536" height="1.974"/>
	<rect x="337.399" y="295.806" fill="#6B8BD1" width="1.534" height="1.976"/>
	<rect x="341.127" y="295.806" fill="#6B8BD1" width="1.536" height="1.976"/>
	<rect x="295.822" y="274.549" fill="#6B8BD1" width="1.536" height="1.975"/>
	<rect x="299.552" y="274.549" fill="#6B8BD1" width="1.536" height="1.975"/>
	<rect x="295.822" y="279.593" fill="#6B8BD1" width="1.536" height="1.977"/>
	<rect x="299.552" y="279.593" fill="#6B8BD1" width="1.536" height="1.977"/>
	<rect x="295.822" y="284.638" fill="#6B8BD1" width="1.536" height="1.976"/>
	<rect x="299.552" y="284.638" fill="#6B8BD1" width="1.536" height="1.976"/>
	<rect x="295.822" y="289.684" fill="#6B8BD1" width="1.536" height="1.973"/>
	<rect x="299.552" y="289.684" fill="#6B8BD1" width="1.536" height="1.973"/>
	<rect x="295.822" y="294.727" fill="#6B8BD1" width="1.536" height="1.976"/>
	<rect x="299.552" y="294.727" fill="#6B8BD1" width="1.536" height="1.976"/>
	<rect x="278.546" y="268.499" fill="#6B8BD1" width="1.536" height="1.976"/>
	<rect x="282.274" y="268.499" fill="#6B8BD1" width="1.535" height="1.976"/>
	<rect x="278.546" y="273.544" fill="#6B8BD1" width="1.536" height="1.975"/>
	<rect x="282.274" y="273.544" fill="#6B8BD1" width="1.535" height="1.975"/>
	<rect x="278.546" y="278.589" fill="#6B8BD1" width="1.536" height="1.975"/>
	<rect x="282.274" y="278.589" fill="#6B8BD1" width="1.535" height="1.975"/>
	<rect x="278.546" y="283.633" fill="#6B8BD1" width="1.536" height="1.976"/>
	<rect x="282.274" y="283.633" fill="#6B8BD1" width="1.535" height="1.976"/>
	<rect x="278.546" y="288.678" fill="#6B8BD1" width="1.536" height="1.975"/>
	<rect x="282.274" y="288.678" fill="#6B8BD1" width="1.535" height="1.975"/>
	<rect x="135.372" y="241.82" fill="#6B8BD1" width="1.536" height="1.973"/>
	<rect x="139.101" y="241.82" fill="#6B8BD1" width="1.535" height="1.973"/>
	<rect x="135.372" y="246.864" fill="#6B8BD1" width="1.536" height="1.975"/>
	<rect x="139.101" y="246.864" fill="#6B8BD1" width="1.535" height="1.975"/>
	<rect x="135.372" y="251.908" fill="#6B8BD1" width="1.536" height="1.976"/>
	<rect x="139.101" y="251.908" fill="#6B8BD1" width="1.535" height="1.976"/>
	<rect x="135.372" y="256.954" fill="#6B8BD1" width="1.536" height="1.974"/>
	<rect x="139.101" y="256.954" fill="#6B8BD1" width="1.535" height="1.974"/>
	<rect x="135.372" y="261.998" fill="#6B8BD1" width="1.536" height="1.975"/>
	<rect x="139.101" y="261.998" fill="#6B8BD1" width="1.535" height="1.975"/>
	<rect x="135.372" y="268.008" fill="#6B8BD1" width="1.536" height="1.975"/>
	<rect x="139.101" y="268.008" fill="#6B8BD1" width="1.535" height="1.975"/>
	<rect x="135.372" y="273.052" fill="#6B8BD1" width="1.536" height="1.976"/>
	<rect x="139.101" y="273.052" fill="#6B8BD1" width="1.535" height="1.976"/>
	<rect x="135.372" y="278.097" fill="#6B8BD1" width="1.536" height="1.975"/>
	<rect x="139.101" y="278.097" fill="#6B8BD1" width="1.535" height="1.975"/>
	<rect x="135.372" y="283.142" fill="#6B8BD1" width="1.536" height="1.974"/>
	<rect x="139.101" y="283.142" fill="#6B8BD1" width="1.535" height="1.974"/>
	<rect x="135.372" y="288.186" fill="#6B8BD1" width="1.536" height="1.974"/>
	<rect x="139.101" y="288.186" fill="#6B8BD1" width="1.535" height="1.974"/>
	<rect x="151.475" y="226.146" fill="#6B8BD1" width="1.891" height="2.43"/>
	<rect x="157.063" y="226.146" fill="#6B8BD1" width="1.891" height="2.43"/>
	<rect x="151.475" y="232.355" fill="#6B8BD1" width="1.891" height="2.429"/>
	<rect x="157.063" y="232.355" fill="#6B8BD1" width="1.891" height="2.429"/>
	<rect x="151.475" y="238.563" fill="#6B8BD1" width="1.891" height="2.43"/>
	<rect x="157.063" y="238.563" fill="#6B8BD1" width="1.891" height="2.43"/>
	<rect x="151.475" y="244.772" fill="#6B8BD1" width="1.891" height="2.43"/>
	<rect x="157.063" y="244.772" fill="#6B8BD1" width="1.891" height="2.43"/>
	<rect x="151.475" y="250.981" fill="#6B8BD1" width="1.891" height="2.43"/>
	<rect x="157.063" y="250.981" fill="#6B8BD1" width="1.891" height="2.43"/>
	<rect x="151.475" y="258.542" fill="#6B8BD1" width="1.891" height="2.432"/>
	<rect x="157.063" y="258.542" fill="#6B8BD1" width="1.891" height="2.432"/>
	<rect x="151.475" y="264.751" fill="#6B8BD1" width="1.891" height="2.432"/>
	<rect x="157.063" y="264.751" fill="#6B8BD1" width="1.891" height="2.432"/>
	<rect x="151.475" y="270.96" fill="#6B8BD1" width="1.891" height="2.432"/>
	<rect x="157.063" y="270.96" fill="#6B8BD1" width="1.891" height="2.432"/>
	<rect x="151.475" y="277.169" fill="#6B8BD1" width="1.891" height="2.431"/>
	<rect x="157.063" y="277.169" fill="#6B8BD1" width="1.891" height="2.431"/>
	<rect x="151.475" y="283.378" fill="#6B8BD1" width="1.891" height="2.431"/>
	<rect x="157.063" y="283.378" fill="#6B8BD1" width="1.891" height="2.431"/>
	<rect x="199.402" y="236.983" fill="#6B8BD1" width="1.891" height="2.43"/>
	<rect x="203.991" y="236.983" fill="#6B8BD1" width="1.891" height="2.43"/>
	<rect x="199.402" y="243.192" fill="#6B8BD1" width="1.891" height="2.429"/>
	<rect x="203.991" y="243.192" fill="#6B8BD1" width="1.891" height="2.429"/>
	<rect x="199.402" y="249.401" fill="#6B8BD1" width="1.891" height="2.429"/>
	<rect x="203.991" y="249.401" fill="#6B8BD1" width="1.891" height="2.429"/>
	<rect x="199.402" y="255.608" fill="#6B8BD1" width="1.891" height="2.431"/>
	<rect x="203.991" y="255.608" fill="#6B8BD1" width="1.891" height="2.431"/>
	<rect x="199.402" y="261.818" fill="#6B8BD1" width="1.891" height="2.43"/>
	<rect x="203.991" y="261.818" fill="#6B8BD1" width="1.891" height="2.43"/>
</g>
<g>
	<rect x="-9" y="302.648" fill="#0E2144" width="947.215" height="58.576"/>
	<g>
		<polygon fill="#0E2144" points="784.215,261.774 786.465,237.148 741.69,237.148 741.69,259.612 752.266,249.694 773.463,253.419 
					"/>
		<rect x="716.104" y="262.283" fill="#0E2144" width="32.457" height="42.004"/>
		<rect x="781.512" y="262.628" fill="#0E2144" width="32.453" height="41.659"/>
		<rect x="717.84" y="236.901" fill="#0E2144" width="32.84" height="22.296"/>
		<rect x="784.483" y="237.148" fill="#0E2144" width="27.006" height="22.298"/>
		<rect x="717.249" y="232.195" fill="#0E2144" width="95.994" height="5.449"/>
		<polygon fill="#0E2144" points="814.708,228.229 714.618,228.229 717.592,233.682 812.975,233.682 		"/>
		<path fill="#0E2144" d="M781.512,304.287h-3.221v-39.144c0,0-0.744-12.14-13.627-12.14s-12.389,12.389-12.389,12.389v38.895
			h-5.449v-43.105c0,0,0.496-19.077,17.59-19.077c17.096,0,17.838,19.325,17.838,19.325L781.512,304.287z"/>
		<rect x="788.2" y="242.598" fill="#0E2144" width="20.066" height="11.894"/>
		<rect x="787.026" y="268.737" fill="#0E2144" width="23.041" height="17.094"/>
		<rect x="720.627" y="268.737" fill="#0E2144" width="23.041" height="17.094"/>
		<rect x="721.307" y="242.598" fill="#0E2144" width="20.068" height="11.894"/>
		<rect x="718.336" y="212.374" fill="#0E2144" width="92.656" height="11.646"/>
		<rect x="781.149" y="258.471" fill="#0E2144" width="33.045" height="5.172"/>
		<rect x="715.946" y="258.471" fill="#0E2144" width="31.666" height="5.172"/>
		<g>
			<path fill="#0E2144" d="M742.788,217.719c0,1.559-1.109,2.822-2.479,2.822l0,0c-1.367,0-2.477-1.265-2.477-2.822v-2.239h4.953
				v2.239H742.788z"/>
			<circle fill="#0E2144" cx="740.309" cy="218.011" r="0.928"/>
		</g>
		<g>
			<path fill="#0E2144" d="M734.649,217.719c0,1.559-1.107,2.822-2.479,2.822l0,0c-1.367,0-2.477-1.265-2.477-2.822v-2.239h4.953
				v2.239H734.649z"/>
			<circle fill="#0E2144" cx="732.172" cy="218.011" r="0.93"/>
		</g>
		<g>
			<path fill="#0E2144" d="M726.51,217.719c0,1.559-1.109,2.822-2.477,2.822l0,0c-1.369,0-2.479-1.265-2.479-2.822v-2.239h4.953
				v2.239H726.51z"/>
			<circle fill="#0E2144" cx="724.034" cy="218.011" r="0.928"/>
		</g>
		<g>
			<path fill="#0E2144" d="M750.928,217.719c0,1.559-1.109,2.822-2.479,2.822l0,0c-1.369,0-2.479-1.265-2.479-2.822v-2.239h4.957
				V217.719L750.928,217.719z"/>
			<circle fill="#0E2144" cx="748.45" cy="218.011" r="0.93"/>
		</g>
		<g>
			<path fill="#0E2144" d="M759.063,217.719c0,1.559-1.107,2.822-2.479,2.822l0,0c-1.367,0-2.477-1.265-2.477-2.822v-2.239h4.953
				v2.239H759.063z"/>
			<circle fill="#0E2144" cx="756.586" cy="218.011" r="0.929"/>
		</g>
		<g>
			<path fill="#0E2144" d="M767.204,217.719c0,1.559-1.109,2.822-2.479,2.822l0,0c-1.367,0-2.479-1.265-2.479-2.822v-2.239h4.957
				V217.719L767.204,217.719z"/>
			<circle fill="#0E2144" cx="764.725" cy="218.011" r="0.929"/>
		</g>
		<g>
			<path fill="#0E2144" d="M775.342,217.719c0,1.559-1.109,2.822-2.477,2.822l0,0c-1.371,0-2.479-1.265-2.479-2.822v-2.239h4.953
				v2.239H775.342z"/>
			<circle fill="#0E2144" cx="772.864" cy="218.011" r="0.929"/>
		</g>
		<g>
			<path fill="#0E2144" d="M783.481,217.719c0,1.559-1.109,2.822-2.479,2.822l0,0c-1.369,0-2.479-1.265-2.479-2.822v-2.239h4.957
				V217.719z"/>
			<circle fill="#0E2144" cx="781.002" cy="218.011" r="0.93"/>
		</g>
		<g>
			<path fill="#0E2144" d="M791.618,217.719c0,1.559-1.109,2.822-2.477,2.822l0,0c-1.369,0-2.477-1.265-2.477-2.822v-2.239h4.953
				V217.719L791.618,217.719z"/>
			<circle fill="#0E2144" cx="789.141" cy="218.011" r="0.928"/>
		</g>
		<g>
			<path fill="#0E2144" d="M799.756,217.719c0,1.559-1.107,2.822-2.477,2.822l0,0c-1.369,0-2.479-1.265-2.479-2.822v-2.239h4.955
				V217.719L799.756,217.719z"/>
			<circle fill="#0E2144" cx="797.28" cy="218.011" r="0.929"/>
		</g>
		<g>
			<path fill="#0E2144" d="M807.897,217.719c0,1.559-1.111,2.822-2.479,2.822l0,0c-1.367,0-2.477-1.265-2.477-2.822v-2.239h4.953
				v2.239H807.897z"/>
			<circle fill="#0E2144" cx="805.418" cy="218.011" r="0.928"/>
		</g>
		<rect x="717.44" y="210.393" fill="#0E2144" width="94.297" height="3.484"/>
		<rect x="781.391" y="292.397" fill="#0E2144" width="32.592" height="1.98"/>
		<rect x="781.391" y="303.051" fill="#0E2144" width="32.592" height="1.981"/>
		<rect x="715.915" y="292.397" fill="#0E2144" width="30.869" height="1.98"/>
		<rect x="715.915" y="303.051" fill="#0E2144" width="30.869" height="1.981"/>
		<rect x="713.131" y="221.602" fill="#0E2144" width="102.816" height="7.176"/>
	</g>
	<g>
		<path fill="#0E2144" d="M830.471,197.469l-1.434-0.776c0,0-2.33,9.483-1.871,10.758l-2.904-1.255c0,0-1.996,9.219-1.871,10.757
			s-1.893-2.052-1.893-2.052l-3.023,7.574c0,0-2.465-7.607-0.359-12.544l-2.389,2.157c0,0,0.281-7.591,4.613-10.739l-3.041-0.055
			c0,0,9.285-14.154,18.131-16.777l1.521,2.618C835.952,187.135,832.184,190.657,830.471,197.469z"/>
		<path fill="#0E2144" d="M835.807,183.176c0,0-8.816-4.784-21.133,1.586l2.594,1.867c0,0-5.115,0.964-7.836,8.147l2.432,0.599
			c0,0-3.59,3.955-3.17,8.384l6.109-6.786l1.289,2.339c0,0,3.445-8.036,5.439-9.056l0.293,2.849
			C821.825,193.104,829.35,184.92,835.807,183.176z"/>
		<polygon fill="#0E2144" points="834.571,183.314 826.924,170.524 825.208,172.153 820.465,165.802 818.713,167.732 
			813.918,164.425 815.618,170.722 814.307,171.484 821.545,174.771 819.76,177.002 		"/>
		<path fill="#0E2144" d="M837.278,183.633c0,0,7.66-0.32,11.643-0.464l-1.785,2.23c0,0,9.199-0.446,13.395,2.791l-3.893,1.982
			c0,0,7.186,1.146,11.645,4.721l-2.619,1.521c0,0,8.158,5.839,9.33,11.463c1.168,5.627,0.158,1.238,0.158,1.238
			s-10.141-4.544-11.646-9.904l-0.988,3.238c0,0-8-4.597-8.215-7.976l-0.848,2.032c0,0-7.133-4.189-7.609-7.906l-0.99,3.238
			C844.854,191.84,837.124,187.578,837.278,183.633z"/>
		<path fill="#0E2144" d="M838.659,182.269c0,0,1.064,11.713,1.758,13.624l-2.338-0.886l3.559,8.652l-3.166-1.591
			c0,0,7.043,7.535,5.648,16.822l-1.541,0.125l-0.172,6.688c0,0-4.32-4.776-5.35-11.605l-0.813,1.732c0,0-2.781-10.084-1.402-16.631
			l-2.424,2.46C832.418,201.662,832.415,186.11,838.659,182.269z"/>
		<path fill="#0E2144" d="M837.508,184.271c0,0,4.084-16.601,30.342-6.503l-1.482,2.266l6.67,2.916l-2.92,1.487l4.287,5.076
			l-10.143-4.546l1.488,2.922l-9.594-6.615l0.621,2.513C856.778,183.786,847.096,180.517,837.508,184.271z"/>
		<path fill="#0E2144" d="M837.879,183.702c0,0,6.189-11.165,12.861-13.432l-1.293-1.98l8.104-1.49l-1.93-1.751
			c0,0,4.74-4.018,9.074-1.983c0,0-13.104-8.065-21.586,2.042C834.959,174.822,835.333,184.625,837.879,183.702z"/>
		<path fill="#0E2144" d="M837.709,184.971c0,0-9.979-4.869-9.35-14.561c0.629-9.689,9.115-12.092,9.115-12.092l-0.314,4.239
			l2.121,0.005l-4.254,5.138l3.939-0.596C838.967,167.105,831.674,177.082,837.709,184.971z"/>
		<path fill="#0E2144" d="M858.239,317.715l-3.16-0.761c0.033-0.146,3.502-15.331,2.414-62.111
			c-1.086-46.54-19.461-66.646-19.646-66.844l2.369-2.225c0.793,0.844,19.414,21.22,20.525,68.993
			C861.844,302.135,858.385,317.102,858.239,317.715z"/>
	</g>
	<g>
		<circle fill="#0E2144" cx="660.215" cy="165.377" r="15.304"/>
		<rect x="662.819" y="177.197" fill="#0E2144" width="1.76" height="71.419"/>
		<rect x="655.784" y="177.197" fill="#0E2144" width="1.758" height="71.419"/>
		<rect x="656.961" y="238.414" fill="#0E2144" width="6.563" height="1.759"/>
		<rect x="656.961" y="229.442" fill="#0E2144" width="6.563" height="1.759"/>
		<rect x="656.961" y="220.472" fill="#0E2144" width="6.563" height="1.758"/>
		<rect x="656.961" y="211.5" fill="#0E2144" width="6.563" height="1.758"/>
		<rect x="656.961" y="202.527" fill="#0E2144" width="6.563" height="1.759"/>
		<rect x="656.961" y="193.557" fill="#0E2144" width="6.563" height="1.76"/>
		<rect x="656.961" y="184.585" fill="#0E2144" width="6.563" height="1.76"/>
		<rect x="658.28" y="132.833" fill="#0E2144" width="4.223" height="20.758"/>
		<rect x="659.221" y="95.188" fill="#0E2144" width="1.639" height="14.425"/>
		
			<rect x="645.42" y="271.698" transform="matrix(0.9215 0.3885 -0.3885 0.9215 165.3879 -228.231)" fill="#0E2144" width="3.459" height="46.441"/>
		
			<rect x="655.542" y="271.712" transform="matrix(0.9863 0.1649 -0.1649 0.9863 57.6147 -104.3203)" fill="#0E2144" width="3.459" height="46.44"/>
		
			<rect x="663.413" y="287.487" transform="matrix(0.7274 0.6863 -0.6863 0.7274 387.0703 -374.0978)" fill="#0E2144" width="1.877" height="25.214"/>
		<polygon fill="#0E2144" points="656.672,309.827 655.049,310.772 646.561,292.516 648.184,291.569 		"/>
		
			<rect x="671.735" y="271.719" transform="matrix(-0.9215 0.3885 -0.3885 -0.9215 1408.6111 305.1027)" fill="#0E2144" width="3.459" height="46.442"/>
		<rect x="655.979" y="184.927" fill="#0E2144" width="7.951" height="0.791"/>
		<rect x="655.979" y="193.944" fill="#0E2144" width="7.951" height="0.791"/>
		<rect x="655.979" y="202.962" fill="#0E2144" width="7.951" height="0.79"/>
		<rect x="655.979" y="211.977" fill="#0E2144" width="7.951" height="0.792"/>
		<rect x="655.979" y="220.994" fill="#0E2144" width="7.951" height="0.792"/>
		<rect x="655.979" y="230.01" fill="#0E2144" width="7.951" height="0.792"/>
		<rect x="655.979" y="239.027" fill="#0E2144" width="7.951" height="0.792"/>
		<circle fill="#0E2144" cx="660.215" cy="261.776" r="16.712"/>
		<rect x="658.86" y="107.854" fill="#0E2144" width="2.359" height="20.758"/>
		<circle fill="#0E2144" cx="660.215" cy="128.787" r="6.508"/>
		<g>
			<g>
				<circle id="SVGID_1_" fill="#0E2144" cx="660.215" cy="165.377" r="15.304"/>
			</g>
			<g>
				<defs>
					<circle id="SVGID_2_" cx="660.215" cy="165.377" r="15.304"/>
				</defs>
				<clipPath id="SVGID_4_">
					<use xlink:href="#SVGID_2_"  overflow="visible"/>
				</clipPath>
				<g clip-path="url(#SVGID_4_)">
					
						<rect x="678.178" y="154.036" transform="matrix(0.7628 -0.6466 0.6466 0.7628 51.2488 478.9588)" fill="#0E2144" width="0.655" height="31.17"/>
					
						<rect x="673.805" y="154.063" transform="matrix(0.7628 -0.6466 0.6466 0.7628 50.1936 476.1377)" fill="#0E2144" width="0.655" height="31.171"/>
					
						<rect x="669.425" y="154.063" transform="matrix(0.7641 -0.6451 0.6451 0.7641 48.5727 472.1126)" fill="#0E2144" width="0.657" height="31.171"/>
					
						<rect x="665.038" y="154.034" transform="matrix(0.7616 -0.6481 0.6481 0.7616 48.7148 471.6531)" fill="#0E2144" width="0.654" height="31.171"/>
					
						<rect x="660.665" y="154.064" transform="matrix(0.7641 -0.6451 0.6451 0.7641 46.5056 466.4614)" fill="#0E2144" width="0.657" height="31.17"/>
					
						<rect x="656.245" y="154.002" transform="matrix(0.7641 -0.6451 0.6451 0.7641 45.5022 463.5956)" fill="#0E2144" width="0.657" height="31.172"/>
					
						<rect x="651.899" y="154.034" transform="matrix(0.7616 -0.6481 0.6481 0.7616 45.5822 463.1382)" fill="#0E2144" width="0.654" height="31.171"/>
					
						<rect x="647.525" y="154.061" transform="matrix(0.7628 -0.6466 0.6466 0.7628 43.9616 459.1449)" fill="#0E2144" width="0.655" height="31.172"/>
					
						<rect x="643.14" y="154.035" transform="matrix(0.7628 -0.6466 0.6466 0.7628 42.9385 456.3028)" fill="#0E2144" width="0.655" height="31.171"/>
					
						<rect x="638.765" y="154.062" transform="matrix(0.7641 -0.6451 0.6451 0.7641 41.3395 452.3322)" fill="#0E2144" width="0.657" height="31.171"/>
				</g>
			</g>
			<g>
				<defs>
					<circle id="SVGID_6_" cx="660.215" cy="165.377" r="15.304"/>
				</defs>
				<clipPath id="SVGID_8_">
					<use xlink:href="#SVGID_6_"  overflow="visible"/>
				</clipPath>
				<g clip-path="url(#SVGID_8_)">
					
						<rect x="638.732" y="154.8" transform="matrix(-0.7636 -0.6457 0.6457 -0.7636 1016.9915 713.1514)" fill="#0E2144" width="0.655" height="31.172"/>
					
						<rect x="643.09" y="154.817" transform="matrix(-0.7641 -0.6451 0.6451 -0.7641 1025.0962 715.6981)" fill="#0E2144" width="0.657" height="31.172"/>
					
						<rect x="647.47" y="154.818" transform="matrix(-0.7641 -0.6451 0.6451 -0.7641 1032.8228 718.5229)" fill="#0E2144" width="0.657" height="31.17"/>
					
						<rect x="651.85" y="154.818" transform="matrix(-0.7628 -0.6466 0.6466 -0.7628 1039.4894 722.0941)" fill="#0E2144" width="0.655" height="31.17"/>
					
						<rect x="656.229" y="154.818" transform="matrix(-0.7628 -0.6466 0.6466 -0.7628 1047.2083 724.9265)" fill="#0E2144" width="0.655" height="31.171"/>
					
						<rect x="660.63" y="154.799" transform="matrix(-0.7628 -0.6466 0.6466 -0.7628 1054.9773 727.7391)" fill="#0E2144" width="0.655" height="31.171"/>
					
						<rect x="665.01" y="154.8" transform="matrix(-0.7628 -0.6466 0.6466 -0.7628 1062.6984 730.5712)" fill="#0E2144" width="0.655" height="31.17"/>
					
						<rect x="669.389" y="154.8" transform="matrix(-0.7628 -0.6466 0.6466 -0.7628 1070.4175 733.4026)" fill="#0E2144" width="0.655" height="31.17"/>
					
						<rect x="673.746" y="154.818" transform="matrix(-0.7641 -0.6451 0.6451 -0.7641 1079.175 735.4775)" fill="#0E2144" width="0.657" height="31.172"/>
					
						<rect x="678.15" y="154.8" transform="matrix(-0.7616 -0.6481 0.6481 -0.7616 1084.7622 739.853)" fill="#0E2144" width="0.654" height="31.17"/>
				</g>
			</g>
			<g>
				<defs>
					<circle id="SVGID_10_" cx="660.215" cy="165.377" r="15.304"/>
				</defs>
				<clipPath id="SVGID_11_">
					<use xlink:href="#SVGID_10_"  overflow="visible"/>
				</clipPath>
				<rect x="637.17" y="150.099" clip-path="url(#SVGID_11_)" fill="#0E2144" width="44.096" height="1.406"/>
			</g>
			<g>
				<defs>
					<circle id="SVGID_12_" cx="660.215" cy="165.377" r="15.304"/>
				</defs>
				<clipPath id="SVGID_13_">
					<use xlink:href="#SVGID_12_"  overflow="visible"/>
				</clipPath>
				<rect x="637.17" y="157.569" clip-path="url(#SVGID_13_)" fill="#0E2144" width="44.096" height="1.406"/>
			</g>
		</g>
		<g>
			<g>
				<circle id="SVGID_3_" fill="#0E2144" cx="660.215" cy="261.776" r="16.712"/>
			</g>
			<g>
				<defs>
					<circle id="SVGID_14_" cx="660.215" cy="261.776" r="16.712"/>
				</defs>
				<clipPath id="SVGID_15_">
					<use xlink:href="#SVGID_14_"  overflow="visible"/>
				</clipPath>
				<rect x="635.077" y="255.674" clip-path="url(#SVGID_15_)" fill="#0E2144" width="47.916" height="13.14"/>
			</g>
			<g>
				<defs>
					<circle id="SVGID_16_" cx="660.215" cy="261.776" r="16.712"/>
				</defs>
				<clipPath id="SVGID_17_">
					<use xlink:href="#SVGID_16_"  overflow="visible"/>
				</clipPath>
				<rect x="637.17" y="262.034" clip-path="url(#SVGID_17_)" fill="#0E2144" width="44.096" height="1.407"/>
			</g>
		</g>
	</g>
	<g>
		<g>
			<polygon fill="#0E2144" points="190.99,109.89 193.087,115.203 198.55,113.531 195.702,118.483 200.417,121.709 194.771,122.573 
				195.186,128.27 190.99,124.393 186.795,128.27 187.21,122.573 181.563,121.709 186.276,118.483 183.431,113.531 188.892,115.203 
							"/>
			<path fill="#0E2144" d="M187.603,124.825c0,0-0.74-2.033,1.294-4.436c2.032-2.403,0.554-4.067,0.554-4.067
				s4.988,2.959,3.511,7.578"/>
			<rect x="175.614" y="238.17" fill="#0E2144" width="43.24" height="5.71"/>
			<rect x="178.918" y="233.111" fill="#0E2144" width="36.587" height="5.358"/>
			<path fill="#0E2144" d="M212.365,233.729c0,0,0.491-17.248-0.123-18.728c0,0-0.247-0.493,1.23-0.984
				c1.479-0.493,0.493-3.327,0.369-4.189c-0.122-0.861-0.122-1.973,1.11-2.218c1.231-0.245,1.231-0.245,1.231-0.245
				s-1.848-19.959-3.202-24.888c-1.355-4.927,2.954-4.806,3.448-4.806c0,0,4.066-2.217,4.436-4.68
				c0.369-2.465,0.862-4.559,1.479-4.559c0.615,0,0.861-2.835-1.603-2.835c-2.464,0-8.376-0.122-9.732,1.232
				c-1.355,1.355-2.588,2.096-2.341,0.124c0.248-1.973,0.37-8.749-3.572-10.473c-3.941-1.726-3.819-3.821-3.326-4.189
				s0.863-1.479,2.094-0.736c1.232,0.736,3.328,2.71,3.943,2.463c0.614-0.246-1.946-2.142-4.066-4.684
				c-1.231-1.478,1.355-1.601,1.355-1.601s5.422-1.108,5.297-1.725c-0.122-0.617-5.05,0.615-5.789,0.491
				c-0.74-0.123-1.478-1.479-0.122-2.956c1.354-1.478,4.804-5.175,4.804-5.175s0.246-1.231-0.617-0.493
				c-0.861,0.74-6.283,5.053-6.651,4.932c-0.371-0.124-0.123-8.996-0.123-8.996s-0.739-1.23-1.725,5.546c0,0-0.863,3.08-1.725,1.848
				c-0.76-1.087-1.479-7.269-1.973-7.269c-0.491,0-0.245,7.885-1.108,8.623c-0.862,0.738-1.268-0.104-1.724,0.493
				c-1.172,1.532-1.172-10.017-0.368-12.813c0.6-0.139,1.354-4.681,0.368-6.777c-0.987-2.094-2.588,1.233-3.573,0.616
				c-0.984-0.616-3.08-2.341-3.325-0.983c-0.248,1.354-0.397,6.967,1.352,6.967c0.51,7.861,0.127,22.105-1.352,24.815
				c0,0-2.097,3.941-0.738,7.392c1.354,3.45-0.248,3.326,0.983,4.436c1.233,1.108,1.602,3.078,0.739,4.189
				c-0.863,1.107-1.971,5.912,0.123,7.392c2.095,1.479-0.369,3.695-0.369,3.695s-2.342,3.818-0.738,5.543
				c1.601,1.725,2.586,2.588,2.341,6.652c-0.247,4.065,0.614,6.53-1.356,8.87c-1.971,2.342-0.615,3.819-0.615,3.819
				s-0.987,5.052-1.973,7.637c-0.985,2.589-3.941,15.276-4.188,18.974"/>
			<rect x="170.416" y="242.566" fill="#0E2144" width="54.329" height="5.358"/>
		</g>
		<rect x="165.336" y="300.062" fill="#0E2144" width="66.543" height="10.003"/>
		<polygon fill="#0E2144" points="221.562,290.1 174.076,290.1 179.295,283.575 218.081,283.575 		"/>
		<rect x="178.819" y="252.656" fill="#0E2144" width="39.577" height="31.749"/>
		<rect x="184.907" y="259.614" fill="#0E2144" width="3.914" height="16.962"/>
		<rect x="196.216" y="259.614" fill="#0E2144" width="3.913" height="16.962"/>
		<rect x="207.523" y="259.614" fill="#0E2144" width="3.913" height="16.962"/>
		<rect x="178.819" y="252.656" opacity="0.2" fill="#0E2144" enable-background="new    " width="39.577" height="2.613"/>
		<rect x="178.819" y="281.662" opacity="0.2" fill="#0E2144" enable-background="new    " width="39.577" height="2.611"/>
		<rect x="172.729" y="290.059" fill="#0E2144" width="50.45" height="10.003"/>
		<rect x="174.47" y="247.872" fill="#0E2144" width="47.84" height="4.784"/>
		<rect x="174.47" y="247.872" opacity="0.2" fill="#0E2144" enable-background="new    " width="47.84" height="1.634"/>
		<rect x="175.614" y="238.17" opacity="0.2" fill="#0E2144" enable-background="new    " width="43.24" height="1.334"/>
		<rect x="205.942" y="205.312" fill="#0E2144" width="2.625" height="27.822"/>
		<rect x="199.118" y="207.937" fill="#0E2144" width="2.625" height="25.197"/>
		<rect x="192.293" y="207.937" fill="#0E2144" width="2.625" height="25.197"/>
		<rect x="187.021" y="207.937" fill="#0E2144" width="1.354" height="25.197"/>
		<path fill="#0E2144" d="M189.842,179.587c0,0,11.2-6.649,15.751-19.25C205.593,160.337,206.642,175.386,189.842,179.587z"/>
		<path fill="#0E2144" d="M189.842,169.438c0,0,10.15,1.75,14.7-10.851C204.542,158.588,201.392,164.537,189.842,169.438z"/>
		<path fill="#0E2144" d="M189.843,187.635c0,0,15.05-3.497,17.149-25.897C206.992,161.737,208.042,188.687,189.843,187.635z"/>
		<path fill="#0E2144" d="M209.442,170.139c0,0,2.101,2.799,3.149,2.799c1.051,0,8.399-4.551,8.399-4.551
			S211.191,182.036,209.442,170.139z"/>
		<path fill="#0E2144" d="M188.793,207.586c0,0,18.899,0.352,24.499-5.949C213.292,201.636,211.191,210.735,188.793,207.586z"/>
		<path fill="#0E2144" d="M196.144,143.189c-0.514,0.105,7.174-0.176,5.949,6.824C202.093,150.014,204.543,141.438,196.144,143.189z
			"/>
		<path fill="#0E2144" d="M187.043,156.139c-0.755,0.202,5.6-4.374,5.95-11.9C192.993,144.238,193.517,154.388,187.043,156.139z"/>
		<rect x="198.962" y="148.036" fill="#0E2144" width="2.237" height="0.67"/>
		<rect x="197.62" y="148.11" fill="#0E2144" width="0.671" height="3.132"/>
		<rect x="195.384" y="148.036" fill="#0E2144" width="2.945" height="0.67"/>
	</g>
	<g>
		<g>
			<rect x="431.407" y="288.782" fill="#0E2144" width="2.35" height="28.918"/>
			<rect x="411.887" y="288.782" fill="#0E2144" width="2.351" height="28.918"/>
			<rect x="392.366" y="288.782" fill="#0E2144" width="2.35" height="28.918"/>
			<rect x="411.995" y="282.635" fill="#0E2144" width="1.954" height="7.052"/>
			<rect x="390.954" y="287.516" fill="#0E2144" width="43.6" height="2.17"/>
			<path fill="#0E2144" d="M392.908,261.309c0,0,6.688,8.676,7.049,13.375h26.751c0,0,0.903-9.22,7.41-13.196L392.908,261.309z"/>
			<rect x="430.983" y="313.428" fill="#0E2144" width="3.377" height="4.713"/>
			<rect x="411.337" y="313.428" fill="#0E2144" width="3.377" height="4.713"/>
			<rect x="391.69" y="313.428" fill="#0E2144" width="3.378" height="4.713"/>
			<path fill="#0E2144" d="M383.229,254.149c0,0,3.896,9.375,13.477,9.556s34.342,0,34.342,0s5.851,0.278,11.633-9.12
				c0,0,1.04-2.033,0.499-1.556c-2.278,2.008-10.161,8.456-21.35,3.085c-4.52-2.17-5.604-4.881-5.604-4.881
				s-0.181-3.073-2.351-3.073c0,0,0.542-5.241-1.084-5.241c-1.627,0-1.265,4.88-1.265,4.88s-1.989,0.361-1.989,4.158
				c0,0-5.784,6.688-14.821,6.688c-5.291,0-8.498-1.633-11.425-5.43C382.392,252.048,383.229,254.149,383.229,254.149z"/>
			<path fill="#0E2144" d="M382.967,252.813c0,0,4.158,9.219,13.737,9.398c9.58,0.181,34.342,0,34.342,0s6.326,0.181,12.109-9.219
				c0,0-7.478,8.274-21.327,1.627c-4.52-2.169-5.604-4.881-5.604-4.881s-0.181-3.073-2.351-3.073c0,0,0.542-5.241-1.084-5.241
				c-1.627,0-1.265,4.881-1.265,4.881s-1.989,0.36-1.989,4.157c0,0-5.784,6.688-14.821,6.688S382.967,252.813,382.967,252.813z"/>
			<g>
				<g>
					<path id="SVGID_5_" fill="#0E2144" d="M382.967,252.813c0,0,4.158,9.219,13.737,9.398c9.58,0.181,34.342,0,34.342,0
						s6.326,0.181,12.109-9.219c0,0-7.478,8.274-21.327,1.627c-4.52-2.169-5.604-4.881-5.604-4.881s-0.181-3.073-2.351-3.073
						c0,0,0.542-5.241-1.084-5.241c-1.627,0-1.265,4.881-1.265,4.881s-1.989,0.36-1.989,4.157c0,0-5.784,6.688-14.821,6.688
						S382.967,252.813,382.967,252.813z"/>
				</g>
				<g>
					<defs>
						<path id="SVGID_18_" d="M382.967,252.813c0,0,4.158,9.219,13.737,9.398c9.58,0.181,34.342,0,34.342,0
							s6.326,0.181,12.109-9.219c0,0-7.478,8.274-21.327,1.627c-4.52-2.169-5.604-4.881-5.604-4.881s-0.181-3.073-2.351-3.073
							c0,0,0.542-5.241-1.084-5.241c-1.627,0-1.265,4.881-1.265,4.881s-1.989,0.36-1.989,4.157c0,0-5.784,6.688-14.821,6.688
							S382.967,252.813,382.967,252.813z"/>
					</defs>
					<clipPath id="SVGID_19_">
						<use xlink:href="#SVGID_18_"  overflow="visible"/>
					</clipPath>
					<g clip-path="url(#SVGID_19_)">
						<rect x="382.987" y="233.893" fill="#0E2144" width="0.623" height="36.496"/>
						<rect x="385.523" y="233.893" fill="#0E2144" width="0.623" height="36.496"/>
						<rect x="388.06" y="233.893" fill="#0E2144" width="0.624" height="36.496"/>
						<rect x="390.596" y="233.893" fill="#0E2144" width="0.623" height="36.496"/>
						<rect x="393.132" y="233.893" fill="#0E2144" width="0.622" height="36.496"/>
						<rect x="395.668" y="233.893" fill="#0E2144" width="0.622" height="36.496"/>
						<rect x="398.204" y="233.893" fill="#0E2144" width="0.623" height="36.496"/>
						<rect x="400.74" y="233.893" fill="#0E2144" width="0.622" height="36.496"/>
						<rect x="403.275" y="233.893" fill="#0E2144" width="0.623" height="36.496"/>
						<rect x="405.813" y="233.893" fill="#0E2144" width="0.622" height="36.496"/>
						<rect x="408.349" y="233.893" fill="#0E2144" width="0.622" height="36.496"/>
						<rect x="410.884" y="233.893" fill="#0E2144" width="0.623" height="36.496"/>
						<rect x="413.42" y="233.893" fill="#0E2144" width="0.623" height="36.496"/>
						<rect x="415.956" y="233.893" fill="#0E2144" width="0.623" height="36.496"/>
						<rect x="418.493" y="233.893" fill="#0E2144" width="0.621" height="36.496"/>
						<rect x="421.028" y="233.893" fill="#0E2144" width="0.623" height="36.496"/>
						<rect x="423.564" y="233.893" fill="#0E2144" width="0.621" height="36.496"/>
						<rect x="426.101" y="233.893" fill="#0E2144" width="0.623" height="36.496"/>
						<rect x="428.636" y="233.893" fill="#0E2144" width="0.623" height="36.496"/>
						<rect x="431.172" y="233.893" fill="#0E2144" width="0.622" height="36.496"/>
						<rect x="433.708" y="233.893" fill="#0E2144" width="0.623" height="36.496"/>
						<rect x="436.244" y="233.893" fill="#0E2144" width="0.622" height="36.496"/>
						<rect x="438.78" y="233.893" fill="#0E2144" width="0.623" height="36.496"/>
						<rect x="441.316" y="233.893" fill="#0E2144" width="0.623" height="36.496"/>
					</g>
				</g>
			</g>
			<rect x="389.943" y="282.635" fill="#0E2144" width="4.846" height="7.052"/>
			<rect x="431.333" y="282.635" fill="#0E2144" width="4.848" height="7.052"/>
			<path fill="#0E2144" d="M375.759,273.665c0,0,5.039,10.732,14.077,10.732c9.037,0,48.079,0,48.079,0s9.211-0.548,12.465-11.394
				c0,0,0.41-1.435,0.268-1.113c-1.493,3.36-6.523,6.457-13.455,6.723c-9.398,0.363-10.483-2.53-10.483-2.53h-26.751
				c0,0-3.253,3.253-11.566,2.53c-6.109-0.531-11.127-5.33-13.006-6.816C374.708,271.261,375.759,273.665,375.759,273.665z"/>
			<path fill="#0E2144" d="M375.015,271.43c0,0,5.783,11.566,14.821,11.566c9.037,0,48.079,0,48.079,0s9.397-0.362,12.651-11.206
				c0,0-0.366,4.922-13.375,5.422c-9.398,0.362-10.483-2.528-10.483-2.528h-26.751c0,0-3.253,3.252-11.566,2.528
				C380.075,276.489,375.015,271.43,375.015,271.43z"/>
			<g>
				<g>
					<path id="SVGID_7_" fill="#0E2144" d="M375.015,271.43c0,0,5.783,11.566,14.821,11.566c9.037,0,48.079,0,48.079,0
						s9.397-0.362,12.651-11.206c0,0-0.366,4.922-13.375,5.422c-9.398,0.362-10.483-2.528-10.483-2.528h-26.751
						c0,0-3.253,3.252-11.566,2.528C380.075,276.489,375.015,271.43,375.015,271.43z"/>
				</g>
				<g>
					<defs>
						<path id="SVGID_20_" d="M375.015,271.43c0,0,5.783,11.566,14.821,11.566c9.037,0,48.079,0,48.079,0s9.397-0.362,12.651-11.206
							c0,0-0.366,4.922-13.375,5.422c-9.398,0.362-10.483-2.528-10.483-2.528h-26.751c0,0-3.253,3.252-11.566,2.528
							C380.075,276.489,375.015,271.43,375.015,271.43z"/>
					</defs>
					<clipPath id="SVGID_21_">
						<use xlink:href="#SVGID_20_"  overflow="visible"/>
					</clipPath>
					<g clip-path="url(#SVGID_21_)">
						<g>
							<g>
								<rect x="376.019" y="258.182" fill="#0E2144" width="0.621" height="36.497"/>
							</g>
							<g>
								<rect x="378.554" y="258.182" fill="#0E2144" width="0.622" height="36.497"/>
							</g>
							<g>
								<rect x="381.089" y="258.182" fill="#0E2144" width="0.623" height="36.497"/>
							</g>
							<g>
								<rect x="383.626" y="258.182" fill="#0E2144" width="0.622" height="36.497"/>
							</g>
							<g>
								<rect x="386.161" y="258.182" fill="#0E2144" width="0.623" height="36.497"/>
							</g>
							<g>
								<rect x="388.696" y="258.182" fill="#0E2144" width="0.623" height="36.497"/>
							</g>
							<g>
								<rect x="391.233" y="258.182" fill="#0E2144" width="0.623" height="36.497"/>
							</g>
							<g>
								<rect x="393.77" y="258.182" fill="#0E2144" width="0.622" height="36.497"/>
							</g>
							<g>
								<rect x="396.306" y="258.182" fill="#0E2144" width="0.623" height="36.497"/>
							</g>
							<g>
								<rect x="398.841" y="258.182" fill="#0E2144" width="0.623" height="36.497"/>
							</g>
							<g>
								<rect x="401.377" y="258.182" fill="#0E2144" width="0.623" height="36.497"/>
							</g>
							<g>
								<rect x="403.913" y="258.182" fill="#0E2144" width="0.623" height="36.497"/>
							</g>
							<g>
								<rect x="406.449" y="258.182" fill="#0E2144" width="0.622" height="36.497"/>
							</g>
							<g>
								<rect x="408.985" y="258.182" fill="#0E2144" width="0.623" height="36.497"/>
							</g>
							<g>
								<rect x="411.522" y="258.182" fill="#0E2144" width="0.621" height="36.497"/>
							</g>
							<g>
								<rect x="414.058" y="258.182" fill="#0E2144" width="0.623" height="36.497"/>
							</g>
							<g>
								<rect x="416.594" y="258.182" fill="#0E2144" width="0.622" height="36.497"/>
							</g>
							<g>
								<rect x="419.129" y="258.182" fill="#0E2144" width="0.623" height="36.497"/>
							</g>
							<g>
								<rect x="421.666" y="258.182" fill="#0E2144" width="0.622" height="36.497"/>
							</g>
							<g>
								<rect x="424.202" y="258.182" fill="#0E2144" width="0.622" height="36.497"/>
							</g>
							<g>
								<rect x="426.737" y="258.182" fill="#0E2144" width="0.623" height="36.497"/>
							</g>
							<g>
								<rect x="429.272" y="258.182" fill="#0E2144" width="0.624" height="36.497"/>
							</g>
							<g>
								<rect x="431.811" y="258.182" fill="#0E2144" width="0.622" height="36.497"/>
							</g>
							<g>
								<rect x="434.346" y="258.182" fill="#0E2144" width="0.622" height="36.497"/>
							</g>
						</g>
					</g>
				</g>
				<g>
					<defs>
						<path id="SVGID_22_" d="M375.015,271.43c0,0,5.783,11.566,14.821,11.566c9.037,0,48.079,0,48.079,0s9.397-0.362,12.651-11.206
							c0,0-0.366,4.922-13.375,5.422c-9.398,0.362-10.483-2.528-10.483-2.528h-26.751c0,0-3.253,3.252-11.566,2.528
							C380.075,276.489,375.015,271.43,375.015,271.43z"/>
					</defs>
					<clipPath id="SVGID_23_">
						<use xlink:href="#SVGID_22_"  overflow="visible"/>
					</clipPath>
					<g clip-path="url(#SVGID_23_)">
						<g>
							<g>
								<rect x="436.737" y="258.182" fill="#0E2144" width="0.623" height="36.497"/>
							</g>
							<g>
								<rect x="439.273" y="258.182" fill="#0E2144" width="0.623" height="36.497"/>
							</g>
							<g>
								<rect x="441.81" y="258.182" fill="#0E2144" width="0.623" height="36.497"/>
							</g>
							<g>
								<rect x="444.346" y="258.182" fill="#0E2144" width="0.622" height="36.497"/>
							</g>
							<g>
								<rect x="446.883" y="258.182" fill="#0E2144" width="0.622" height="36.497"/>
							</g>
							<g>
								<rect x="449.418" y="258.182" fill="#0E2144" width="0.623" height="36.497"/>
							</g>
							<g>
								<rect x="451.954" y="258.182" fill="#0E2144" width="0.623" height="36.497"/>
							</g>
							<g>
								<rect x="454.491" y="258.182" fill="#0E2144" width="0.621" height="36.497"/>
							</g>
							<g>
								<rect x="457.026" y="258.182" fill="#0E2144" width="0.622" height="36.497"/>
							</g>
							<g>
								<rect x="459.563" y="258.182" fill="#0E2144" width="0.622" height="36.497"/>
							</g>
							<g>
								<rect x="462.099" y="258.182" fill="#0E2144" width="0.623" height="36.497"/>
							</g>
							<g>
								<rect x="464.634" y="258.182" fill="#0E2144" width="0.623" height="36.497"/>
							</g>
							<g>
								<rect x="467.17" y="258.182" fill="#0E2144" width="0.623" height="36.497"/>
							</g>
							<g>
								<rect x="469.706" y="258.182" fill="#0E2144" width="0.623" height="36.497"/>
							</g>
							<g>
								<rect x="472.243" y="258.182" fill="#0E2144" width="0.623" height="36.497"/>
							</g>
							<g>
								<rect x="474.778" y="258.182" fill="#0E2144" width="0.623" height="36.497"/>
							</g>
							<g>
								<rect x="477.313" y="258.182" fill="#0E2144" width="0.623" height="36.497"/>
							</g>
							<g>
								<rect x="479.85" y="258.182" fill="#0E2144" width="0.623" height="36.497"/>
							</g>
							<g>
								<rect x="482.387" y="258.182" fill="#0E2144" width="0.621" height="36.497"/>
							</g>
							<g>
								<rect x="484.922" y="258.182" fill="#0E2144" width="0.623" height="36.497"/>
							</g>
							<g>
								<rect x="487.458" y="258.182" fill="#0E2144" width="0.623" height="36.497"/>
							</g>
							<g>
								<rect x="489.995" y="258.182" fill="#0E2144" width="0.623" height="36.497"/>
							</g>
							<g>
								<rect x="492.53" y="258.182" fill="#0E2144" width="0.623" height="36.497"/>
							</g>
							<g>
								<rect x="495.067" y="258.182" fill="#0E2144" width="0.621" height="36.497"/>
							</g>
						</g>
					</g>
				</g>
			</g>
		</g>
		<rect x="401.305" y="265.079" fill="#0E2144" width="2.29" height="6.695"/>
		<rect x="405.532" y="265.079" fill="#0E2144" width="2.289" height="6.695"/>
		<rect x="409.76" y="265.079" fill="#0E2144" width="2.29" height="6.695"/>
		<rect x="413.987" y="265.079" fill="#0E2144" width="2.29" height="6.695"/>
		<rect x="418.216" y="265.079" fill="#0E2144" width="2.29" height="6.695"/>
		<rect x="422.443" y="265.079" fill="#0E2144" width="2.291" height="6.695"/>
	</g>
	<g>
		<rect x="469.887" y="312.133" fill="#0E2144" width="109.023" height="2.039"/>
		<rect x="472.381" y="310.772" fill="#0E2144" width="104.49" height="2.04"/>
		<rect x="475.1" y="309.121" fill="#0E2144" width="99.051" height="2.039"/>
		<rect x="477.368" y="307.342" fill="#0E2144" width="93.838" height="2.042"/>
		<rect x="479.633" y="305.271" fill="#0E2144" width="89.078" height="2.041"/>
		<polygon fill="#0E2144" points="482.34,275.854 488.575,275.854 488.848,304.713 481.887,304.713 		"/>
		<rect x="480.997" y="271.062" fill="#0E2144" width="86.355" height="2.806"/>
		<rect x="480.088" y="267.495" fill="#0E2144" width="88.623" height="3.913"/>
		<polygon fill="#0E2144" points="479.928,267.392 523.217,253.565 569.004,267.618 		"/>
		<polygon fill="#0E2144" points="497.319,264.703 523.235,256.427 550.641,264.84 		"/>
		<path fill="#0E2144" d="M480.917,273.774v1.059c0,0-0.23,1.134,3.248,1.134c3.475,0,5.363,0.452,5.816-1.435v-0.758H480.917z"/>
		<polygon fill="#0E2144" points="496.7,275.854 502.934,275.854 503.206,304.713 496.247,304.713 		"/>
		<path fill="#0E2144" d="M495.272,273.774v1.059c0,0-0.227,1.134,3.25,1.134s5.363,0.452,5.816-1.435v-0.758H495.272z"/>
		<polygon fill="#0E2144" points="513.17,275.854 519.403,275.854 519.676,304.713 512.715,304.713 		"/>
		<path fill="#0E2144" d="M511.743,273.774v1.059c0,0-0.227,1.134,3.248,1.134c3.479,0,5.365,0.452,5.82-1.435v-0.758H511.743z"/>
		<polygon fill="#0E2144" points="529.641,275.854 535.872,275.854 536.147,304.713 529.188,304.713 		"/>
		<path fill="#0E2144" d="M528.215,273.774v1.059c0,0-0.227,1.134,3.248,1.134c3.477,0,5.365,0.452,5.816-1.435v-0.758H528.215z"/>
		<polygon fill="#0E2144" points="546.112,275.854 552.344,275.854 552.616,304.713 545.659,304.713 		"/>
		<path fill="#0E2144" d="M544.684,273.774v1.059c0,0-0.227,1.134,3.248,1.134c3.479,0,5.365,0.452,5.818-1.435v-0.758H544.684z"/>
		<polygon fill="#0E2144" points="559.766,275.854 565.997,275.854 566.274,304.713 559.313,304.713 		"/>
		<path fill="#0E2144" d="M558.34,273.774v1.059c0,0-0.227,1.134,3.248,1.134c3.477,0,5.363,0.452,5.82-1.435v-0.758H558.34z"/>
		<rect x="481.415" y="303.315" fill="#0E2144" width="8.01" height="2.041"/>
		<rect x="495.774" y="303.315" fill="#0E2144" width="8.01" height="2.041"/>
		<rect x="512.245" y="303.315" fill="#0E2144" width="8.01" height="2.041"/>
		<rect x="528.715" y="303.315" fill="#0E2144" width="8.01" height="2.041"/>
		<rect x="545.186" y="303.315" fill="#0E2144" width="8.008" height="2.041"/>
		<rect x="558.84" y="303.315" fill="#0E2144" width="8.01" height="2.041"/>
	</g>
	<g>
		<path fill="#0E2144" d="M150.554,304.163c-0.456-0.506-45.672-51.26-48.68-116.24l1.998-0.092
			c2.976,64.272,47.714,114.491,48.166,114.99L150.554,304.163z"/>
		<path fill="#0E2144" d="M31.586,304.163l-1.484-1.341c0.452-0.5,45.192-50.743,48.165-114.991l1.998,0.092
			C77.259,252.903,32.042,303.657,31.586,304.163z"/>
		<rect x="90.472" y="183.641" fill="#0E2144" width="1" height="119.248"/>
		<path fill="#0E2144" d="M102.492,176.58l-22.381-0.161l1.096-28.688h19.721L102.492,176.58z M81.15,175.427l20.285,0.146
			l-1.455-26.841H82.17L81.15,175.427z"/>
		<path fill="#0E2144" d="M91.375,176.02c-0.138,0-0.25-0.112-0.25-0.25v-27.538c0-0.139,0.112-0.25,0.25-0.25s0.25,0.111,0.25,0.25
			v27.538C91.625,175.907,91.513,176.02,91.375,176.02z"/>
		<path fill="#0E2144" d="M100.755,157.711H81.537c-0.138,0-0.25-0.111-0.25-0.25c0-0.138,0.112-0.25,0.25-0.25h19.218
			c0.138,0,0.25,0.112,0.25,0.25C101.005,157.599,100.893,157.711,100.755,157.711z"/>
		<path fill="#0E2144" d="M100.755,166.489H81.537c-0.138,0-0.25-0.112-0.25-0.25s0.112-0.25,0.25-0.25h19.218
			c0.138,0,0.25,0.112,0.25,0.25S100.893,166.489,100.755,166.489z"/>
		<path fill="#0E2144" d="M99.165,121.493H82.677l1.257-27.646l13.663,0.326L99.165,121.493z M83.724,120.493h14.383l-1.455-25.34
			l-11.763-0.282L83.724,120.493z"/>
		<path fill="#0E2144" d="M90.768,120.94c-0.138,0-0.25-0.112-0.25-0.25V94.664c0-0.138,0.112-0.25,0.25-0.25
			c0.138,0,0.25,0.112,0.25,0.25v26.026C91.018,120.828,90.905,120.94,90.768,120.94z"/>
		<path fill="#0E2144" d="M98.333,112.92H83.656c-0.138,0-0.25-0.111-0.25-0.25c0-0.138,0.112-0.25,0.25-0.25h14.677
			c0.138,0,0.25,0.112,0.25,0.25C98.583,112.808,98.471,112.92,98.333,112.92z"/>
		<path fill="#0E2144" d="M97.576,103.385H84.262c-0.138,0-0.25-0.111-0.25-0.25c0-0.138,0.112-0.25,0.25-0.25h13.314
			c0.138,0,0.25,0.112,0.25,0.25C97.826,103.274,97.714,103.385,97.576,103.385z"/>
		<path fill="#0E2144" d="M83.796,112.621c-0.079,0-0.157-0.038-0.206-0.107c-0.078-0.113-0.05-0.271,0.064-0.349L96.957,103
			l-12.694-7.97c-0.117-0.073-0.152-0.229-0.079-0.345c0.074-0.118,0.23-0.15,0.345-0.079l13.017,8.172
			c0.071,0.045,0.115,0.122,0.117,0.207c0.002,0.084-0.039,0.163-0.108,0.211l-13.616,9.381
			C83.895,112.606,83.845,112.621,83.796,112.621z"/>
		<path fill="#0E2144" d="M91.372,176.023c-0.06,0-0.119-0.021-0.167-0.063l-10.289-9.229c-0.052-0.047-0.082-0.113-0.083-0.185
			c-0.001-0.07,0.028-0.138,0.079-0.186l9.962-9.331l-9.203-8.157c-0.104-0.092-0.112-0.25-0.021-0.354
			c0.092-0.104,0.249-0.113,0.354-0.021l9.237,8.188l8.736-8.185c0.1-0.093,0.258-0.09,0.354,0.013
			c0.094,0.101,0.089,0.259-0.012,0.354l-8.702,8.151l10.361,9.185c0.053,0.048,0.084,0.115,0.084,0.188
			c0,0.071-0.03,0.14-0.083,0.187L91.54,175.96C91.491,176.002,91.432,176.023,91.372,176.023z M81.453,166.539l9.919,8.898
			l10.064-9.046l-10.188-9.029L81.453,166.539z"/>
		<path fill="#0E2144" d="M80.626,175.57c-0.069,0-0.138-0.028-0.187-0.084c-0.092-0.104-0.083-0.262,0.021-0.354l20.072-17.827
			l-9.032-8.591c-0.101-0.096-0.104-0.254-0.01-0.354c0.096-0.101,0.254-0.104,0.354-0.01l9.229,8.776
			c0.051,0.049,0.079,0.116,0.078,0.187c-0.001,0.069-0.031,0.137-0.084,0.183l-20.275,18.009
			C80.744,175.55,80.686,175.57,80.626,175.57z"/>
		<path fill="#0E2144" d="M101.963,175.57c-0.06,0-0.119-0.021-0.167-0.063l-20.581-18.462c-0.054-0.049-0.084-0.117-0.083-0.188
			c0.001-0.072,0.032-0.141,0.087-0.188l9.533-8.174c0.106-0.091,0.264-0.078,0.353,0.026c0.09,0.104,0.078,0.263-0.026,0.353
			l-9.317,7.988l20.369,18.271c0.103,0.094,0.111,0.251,0.02,0.354C102.1,175.542,102.031,175.57,101.963,175.57z"/>
		<rect x="77.602" y="200.093" fill="#0E2144" width="26.783" height="1"/>
		<rect x="75.482" y="212.652" fill="#0E2144" width="30.416" height="1"/>
		<rect x="72.909" y="225.213" fill="#0E2144" width="36.318" height="1"/>
		<rect x="68.976" y="237.773" fill="#0E2144" width="44.49" height="1"/>
		<rect x="64.135" y="250.334" fill="#0E2144" width="54.175" height="1"/>
		<rect x="57.625" y="262.896" fill="#0E2144" width="67.039" height="1"/>
		<path fill="#0E2144" d="M98.018,112.926c-0.049,0-0.099-0.015-0.142-0.044l-13.622-9.384c-0.068-0.047-0.109-0.125-0.108-0.208
			c0.001-0.082,0.042-0.159,0.11-0.206l12.876-8.628c0.114-0.076,0.27-0.046,0.348,0.068c0.076,0.115,0.046,0.271-0.068,0.348
			l-12.57,8.423l13.318,9.175c0.114,0.078,0.143,0.234,0.064,0.349C98.175,112.888,98.097,112.926,98.018,112.926z"/>
		<path fill="#0E2144" d="M98.927,121.401c-0.039,0-0.078-0.009-0.115-0.028l-15.131-7.87c-0.123-0.063-0.17-0.215-0.106-0.337
			c0.063-0.123,0.215-0.17,0.337-0.105l15.131,7.87c0.123,0.063,0.17,0.215,0.106,0.337
			C99.104,121.353,99.017,121.401,98.927,121.401z"/>
		<path fill="#0E2144" d="M82.884,121.401c-0.09,0-0.178-0.049-0.222-0.135c-0.063-0.122-0.017-0.273,0.106-0.337l15.134-7.87
			c0.122-0.064,0.274-0.018,0.337,0.105c0.063,0.122,0.017,0.273-0.106,0.337l-15.134,7.87
			C82.962,121.393,82.923,121.401,82.884,121.401z"/>
		<path fill="#0E2144" d="M96.831,303.379l-2-0.051c0.05-2.12,6.91-17.548,14.286-24.247c2.443-2.219,4.741-3.271,6.831-3.115
			c13.349,0.97,28.558,25.285,29.199,26.32l-1.7,1.053c-0.152-0.243-15.309-24.482-27.644-25.379
			c-1.455-0.096-3.174,0.696-5.098,2.385C103.643,286.541,96.927,301.712,96.831,303.379z"/>
		<path fill="#0E2144" d="M84.87,303.375c-0.252-10.825-2.467-17.985-6.77-21.895c-2.982-2.708-7.09-3.89-12.205-3.521
			c-12.34,0.896-27.49,25.136-27.642,25.379l-1.701-1.053c0.642-1.035,15.852-25.352,29.198-26.32
			c5.681-0.414,10.291,0.942,13.694,4.034c4.729,4.296,7.158,11.927,7.425,23.328L84.87,303.375z"/>
		<polygon fill="#0E2144" points="107.414,175.77 74.426,175.77 76.241,188.182 105.597,188.182 		"/>
		<path fill="#0E2144" d="M100.983,148.889l-19.826-0.161l1.57-28.234h16.376L100.983,148.889z M82.214,147.735l17.701,0.146
			l-1.747-26.388H83.673L82.214,147.735z"/>
		<rect x="82.138" y="139.537" fill="#0E2144" width="17.707" height="0.75"/>
		<rect x="83.045" y="130.306" fill="#0E2144" width="16.193" height="0.75"/>
		<rect x="90.691" y="121.298" fill="#0E2144" width="0.75" height="27.087"/>
		
			<rect x="90.07" y="117.974" transform="matrix(-0.7476 -0.6642 0.6642 -0.7476 71.3663 288.1622)" fill="#0E2144" width="0.75" height="25.09"/>
		
			<rect x="90.239" y="126.74" transform="matrix(-0.7068 -0.7074 0.7074 -0.7068 56.2174 301.6063)" fill="#0E2144" width="0.751" height="24.825"/>
		
			<rect x="79.042" y="130.229" transform="matrix(-0.6666 -0.7454 0.7454 -0.6666 55.1886 285.8918)" fill="#0E2144" width="24.971" height="0.75"/>
		
			<rect x="79.228" y="139.229" transform="matrix(-0.7162 -0.6979 0.6979 -0.7162 59.7516 303.5069)" fill="#0E2144" width="24.72" height="0.75"/>
		<polygon fill="#0E2144" points="83.179,130.927 82.614,130.435 91.223,120.568 99.525,130.439 98.951,130.922 91.213,121.721 		
			"/>
		<polygon fill="#0E2144" points="91.211,147.957 82.053,140.349 82.531,139.772 91.225,146.992 99.462,140.523 99.925,141.113 		
			"/>
		<rect x="84.262" y="84.902" fill="#0E2144" width="12.557" height="0.75"/>
		<rect x="85.168" y="75.674" fill="#0E2144" width="10.745" height="0.75"/>
		<path fill="#0E2144" d="M97.809,95.177L83.89,94.847l1.252-28.981h10.633L97.809,95.177z M84.933,93.872l11.802,0.279
			l-1.894-27.286h-8.742L84.933,93.872z"/>
		<rect x="90.341" y="65.332" fill="#0E2144" width="0.75" height="29.332"/>
		<polygon fill="#0E2144" points="84.633,94.662 84.189,94.057 96.199,85.266 84.598,76.075 95.049,66.094 95.566,66.637 
			85.738,76.022 97.438,85.289 		"/>
		<polygon fill="#0E2144" points="97.039,94.959 84.745,85.273 95.354,76.038 85.363,66.639 85.877,66.092 96.472,76.06 
			85.921,85.244 97.504,94.369 		"/>
		<polygon fill="#0E2144" points="83.566,58.496 83.566,50.627 87.806,50.627 89.68,-25.944 93.102,50.477 97.188,50.477 
			97.188,58.496 		"/>
		<g>
			<g>
				<polygon id="SVGID_9_" fill="#0E2144" points="83.566,58.496 83.566,50.627 87.806,50.627 89.68,-25.944 93.102,50.477 
					97.188,50.477 97.188,58.496 				"/>
			</g>
			<g>
				<defs>
					<polygon id="SVGID_24_" points="83.566,58.496 83.566,50.627 87.806,50.627 89.68,-25.944 93.102,50.477 97.188,50.477 
						97.188,58.496 					"/>
				</defs>
				<clipPath id="SVGID_25_">
					<use xlink:href="#SVGID_24_"  overflow="visible"/>
				</clipPath>
				<rect x="83.791" y="27.704" clip-path="url(#SVGID_25_)" fill="#0E2144" width="13.314" height="8.472"/>
			</g>
			<g>
				<defs>
					<polygon id="SVGID_26_" points="83.566,58.496 83.566,50.627 87.806,50.627 89.68,-25.944 93.102,50.477 97.188,50.477 
						97.188,58.496 					"/>
				</defs>
				<clipPath id="SVGID_27_">
					<use xlink:href="#SVGID_26_"  overflow="visible"/>
				</clipPath>
				<rect x="83.791" y="-0.567" clip-path="url(#SVGID_27_)" fill="#0E2144" width="13.314" height="8.472"/>
			</g>
		</g>
		<rect x="83.416" y="58.799" fill="#0E2144" width="14.075" height="8.323"/>
		
			<rect x="89.391" y="182.766" transform="matrix(-0.6873 -0.7264 0.7264 -0.6873 5.6347 403.9545)" fill="#0E2144" width="0.75" height="35.997"/>
		
			<rect x="74.272" y="200.538" transform="matrix(-0.7437 -0.6686 0.6686 -0.7437 26.4371 411.9632)" fill="#0E2144" width="35.847" height="0.751"/>
		<polygon fill="#0E2144" points="91.002,226.272 75.153,215.07 75.587,214.457 90.973,225.333 106.101,213.126 106.571,213.71 		
			"/>
		<path fill="#0E2144" d="M90.444,238.636l-18.429-12.284l19.241-13.663l18.707,13.399L90.444,238.636z M73.338,226.332
			l17.114,11.408l18.178-11.685L91.255,213.61L73.338,226.332z"/>
		<path fill="#0E2144" d="M90.988,251.275l-0.186-0.104l-22.378-12.436l22.558-13.367l22.843,12.814L90.988,251.275z
			 M69.931,238.716l21.052,11.698l21.323-12.222l-21.313-11.957L69.931,238.716z"/>
		<path fill="#0E2144" d="M90.985,277.1l-0.141-0.058l-33.476-13.555l33.615-12.507l0.128,0.046l34.32,12.183L90.985,277.1z
			 M59.441,263.518l31.544,12.772l32.33-13.036L90.99,251.78L59.441,263.518z"/>
		<path fill="#0E2144" d="M90.987,263.646l-0.158-0.072l-27.65-12.72l27.268-13.08l0.161,0.075l27.647,12.998L90.987,263.646z
			 M64.942,250.84l26.041,11.979l25.508-11.973L90.45,238.604L64.942,250.84z"/>
		<polygon fill="#0E2144" points="133.4,277.07 90.985,277.07 90.985,276.32 128.809,276.32 90.866,263.588 91.104,262.877 		"/>
		<polygon fill="#0E2144" points="90.985,277.07 48.572,277.07 90.866,262.877 91.104,263.588 53.164,276.32 90.985,276.32 		"/>
		<rect x="139.788" y="301.535" fill="#0E2144" width="13.318" height="8.471"/>
		<rect x="26.146" y="301.535" fill="#0E2144" width="13.316" height="8.471"/>
		<rect x="83.649" y="301.535" fill="#0E2144" width="13.314" height="8.471"/>
	</g>
</g>
</svg>
